<svg id="root" width="1624" height="930" style="left:0;top:0" viewBox="0 0 1624 930" preserveAspectRatio="xMinYMin" xmlns="http://www.w3.org/2000/svg" xmlns:xlink="http://www.w3.org/1999/xlink" xmlns:c="http://www.easyeda.com/" class="bw-electron"><g id="g1" c_spicecmd="TRAN`1u`1m`0`{AC`dec`10`1Hz`1Meg`{DC`0``0`0`{TF```" xmlns="http://www.w3.org/2000/svg" c_spiceCmd="null" importFlag="0"><rect x="0" y="0" width="1624" height="930" stroke="#FFFFFF" stroke-width="1" id="gge3119" fill="#FFFFFF"/><g c_partid="part_annotation" id="gge3122" c_origin="20,30"><text x="20" y="30" stroke="none" text-anchor="start" fill="#0000FF" font-size="12pt">V(volprobe3)</text></g><g c_partid="part_annotation" id="gge3125" c_origin="561.3333333333334,30"><text x="561.3333333333334" y="30" stroke="none" text-anchor="start" fill="#00FF00" font-size="12pt">V(volprobe2)</text></g><g c_partid="part_annotation" id="gge3128" c_origin="1102.6666666666667,30"><text x="1102.6666666666667" y="30" stroke="none" text-anchor="start" fill="#FF0000" font-size="12pt">V(volprobe1)</text></g><rect x="70" y="50" width="1484" height="845" id="gge3131" stroke="#333333" stroke-width="1" fill="#FFFFFF"/><g c_partid="part_annotation" id="gge3134" c_origin="70,912"><text x="70" y="912" stroke="none" text-anchor="middle" fill="#333333" font-size="12pt">200us</text></g><polyline points="144.2 50 144.2 895" stroke="#333333" stroke-width="1" stroke-dasharray="2,8" fill="none" id="gge3137" class="px1"/><g c_partid="part_annotation" id="gge3140" c_origin="144.2,912"><text x="144.2" y="912" stroke="none" text-anchor="middle" fill="#333333" font-size="12pt">220us</text></g><polyline points="218.4 50 218.4 895" stroke="#333333" stroke-width="1" stroke-dasharray="2,8" fill="none" id="gge3143" class="px1"/><g c_partid="part_annotation" id="gge3146" c_origin="218.4,912"><text x="218.4" y="912" stroke="none" text-anchor="middle" fill="#333333" font-size="12pt">240us</text></g><polyline points="292.6 50 292.6 895" stroke="#333333" stroke-width="1" stroke-dasharray="2,8" fill="none" id="gge3149" class="px1"/><g c_partid="part_annotation" id="gge3152" c_origin="292.6,912"><text x="292.6" y="912" stroke="none" text-anchor="middle" fill="#333333" font-size="12pt">260us</text></g><polyline points="366.8 50 366.8 895" stroke="#333333" stroke-width="1" stroke-dasharray="2,8" fill="none" id="gge3155" class="px1"/><g c_partid="part_annotation" id="gge3158" c_origin="366.8,912"><text x="366.8" y="912" stroke="none" text-anchor="middle" fill="#333333" font-size="12pt">280us</text></g><polyline points="441 50 441 895" stroke="#333333" stroke-width="1" stroke-dasharray="2,8" fill="none" id="gge3161" class="px1"/><g c_partid="part_annotation" id="gge3164" c_origin="441,912"><text x="441" y="912" stroke="none" text-anchor="middle" fill="#333333" font-size="12pt">300us</text></g><polyline points="515.2 50 515.2 895" stroke="#333333" stroke-width="1" stroke-dasharray="2,8" fill="none" id="gge3167" class="px1"/><g c_partid="part_annotation" id="gge3170" c_origin="515.2,912"><text x="515.2" y="912" stroke="none" text-anchor="middle" fill="#333333" font-size="12pt">320us</text></g><polyline points="589.4 50 589.4 895" stroke="#333333" stroke-width="1" stroke-dasharray="2,8" fill="none" id="gge3173" class="px1"/><g c_partid="part_annotation" id="gge3176" c_origin="589.4,912"><text x="589.4" y="912" stroke="none" text-anchor="middle" fill="#333333" font-size="12pt">340us</text></g><polyline points="663.6 50 663.6 895" stroke="#333333" stroke-width="1" stroke-dasharray="2,8" fill="none" id="gge3179" class="px1"/><g c_partid="part_annotation" id="gge3182" c_origin="663.6,912"><text x="663.6" y="912" stroke="none" text-anchor="middle" fill="#333333" font-size="12pt">360us</text></g><polyline points="737.8000000000001 50 737.8000000000001 895" stroke="#333333" stroke-width="1" stroke-dasharray="2,8" fill="none" id="gge3185" class="px1"/><g c_partid="part_annotation" id="gge3188" c_origin="737.8000000000001,912"><text x="737.8000000000001" y="912" stroke="none" text-anchor="middle" fill="#333333" font-size="12pt">380us</text></g><polyline points="812 50 812 895" stroke="#333333" stroke-width="1" stroke-dasharray="2,8" fill="none" id="gge3191" class="px1"/><g c_partid="part_annotation" id="gge3194" c_origin="812,912"><text x="812" y="912" stroke="none" text-anchor="middle" fill="#333333" font-size="12pt">400us</text></g><polyline points="886.2 50 886.2 895" stroke="#333333" stroke-width="1" stroke-dasharray="2,8" fill="none" id="gge3197" class="px1"/><g c_partid="part_annotation" id="gge3200" c_origin="886.2,912"><text x="886.2" y="912" stroke="none" text-anchor="middle" fill="#333333" font-size="12pt">420us</text></g><polyline points="960.4000000000001 50 960.4000000000001 895" stroke="#333333" stroke-width="1" stroke-dasharray="2,8" fill="none" id="gge3203" class="px1"/><g c_partid="part_annotation" id="gge3206" c_origin="960.4000000000001,912"><text x="960.4000000000001" y="912" stroke="none" text-anchor="middle" fill="#333333" font-size="12pt">440us</text></g><polyline points="1034.6 50 1034.6 895" stroke="#333333" stroke-width="1" stroke-dasharray="2,8" fill="none" id="gge3209" class="px1"/><g c_partid="part_annotation" id="gge3212" c_origin="1034.6,912"><text x="1034.6" y="912" stroke="none" text-anchor="middle" fill="#333333" font-size="12pt">460us</text></g><polyline points="1108.8 50 1108.8 895" stroke="#333333" stroke-width="1" stroke-dasharray="2,8" fill="none" id="gge3215" class="px1"/><g c_partid="part_annotation" id="gge3218" c_origin="1108.8,912"><text x="1108.8" y="912" stroke="none" text-anchor="middle" fill="#333333" font-size="12pt">480us</text></g><polyline points="1183 50 1183 895" stroke="#333333" stroke-width="1" stroke-dasharray="2,8" fill="none" id="gge3221" class="px1"/><g c_partid="part_annotation" id="gge3224" c_origin="1183,912"><text x="1183" y="912" stroke="none" text-anchor="middle" fill="#333333" font-size="12pt">500us</text></g><polyline points="1257.2 50 1257.2 895" stroke="#333333" stroke-width="1" stroke-dasharray="2,8" fill="none" id="gge3227" class="px1"/><g c_partid="part_annotation" id="gge3230" c_origin="1257.2,912"><text x="1257.2" y="912" stroke="none" text-anchor="middle" fill="#333333" font-size="12pt">520us</text></g><polyline points="1331.4 50 1331.4 895" stroke="#333333" stroke-width="1" stroke-dasharray="2,8" fill="none" id="gge3233" class="px1"/><g c_partid="part_annotation" id="gge3236" c_origin="1331.4,912"><text x="1331.4" y="912" stroke="none" text-anchor="middle" fill="#333333" font-size="12pt">540us</text></g><polyline points="1405.6000000000001 50 1405.6000000000001 895" stroke="#333333" stroke-width="1" stroke-dasharray="2,8" fill="none" id="gge3239" class="px1"/><g c_partid="part_annotation" id="gge3242" c_origin="1405.6000000000001,912"><text x="1405.6000000000001" y="912" stroke="none" text-anchor="middle" fill="#333333" font-size="12pt">560us</text></g><polyline points="1479.8 50 1479.8 895" stroke="#333333" stroke-width="1" stroke-dasharray="2,8" fill="none" id="gge3245" class="px1"/><g c_partid="part_annotation" id="gge3248" c_origin="1479.8,912"><text x="1479.8" y="912" stroke="none" text-anchor="middle" fill="#333333" font-size="12pt">580us</text></g><polyline points="1554 50 1554 895" stroke="#333333" stroke-width="1" stroke-dasharray="2,8" fill="none" id="gge3251" class="px1"/><g c_partid="part_annotation" id="gge3254" c_origin="1554,912"><text x="1554" y="912" stroke="none" text-anchor="middle" fill="#333333" font-size="12pt">600us</text></g><g c_partid="part_annotation" id="gge3257" c_origin="65,50"><text x="65" y="50" stroke="none" text-anchor="end" fill="#333333" font-size="12pt">600mV</text></g><polyline points="70 143.88888888888889 1554 143.88888888888889" stroke="#333333" stroke-width="1" stroke-dasharray="2,8" fill="none" id="gge3260" class="px1"/><g c_partid="part_annotation" id="gge3263" c_origin="65,143.88888888888889"><text x="65" y="143.88888888888889" stroke="none" text-anchor="end" fill="#333333" font-size="12pt">500mV</text></g><polyline points="70 237.77777777777777 1554 237.77777777777777" stroke="#333333" stroke-width="1" stroke-dasharray="2,8" fill="none" id="gge3266" class="px1"/><g c_partid="part_annotation" id="gge3269" c_origin="65,237.77777777777777"><text x="65" y="237.77777777777777" stroke="none" text-anchor="end" fill="#333333" font-size="12pt">400mV</text></g><polyline points="70 331.66666666666663 1554 331.66666666666663" stroke="#333333" stroke-width="1" stroke-dasharray="2,8" fill="none" id="gge3272" class="px1"/><g c_partid="part_annotation" id="gge3275" c_origin="65,331.66666666666663"><text x="65" y="331.66666666666663" stroke="none" text-anchor="end" fill="#333333" font-size="12pt">300mV</text></g><polyline points="70 425.55555555555554 1554 425.55555555555554" stroke="#333333" stroke-width="1" stroke-dasharray="2,8" fill="none" id="gge3278" class="px1"/><g c_partid="part_annotation" id="gge3281" c_origin="65,425.55555555555554"><text x="65" y="425.55555555555554" stroke="none" text-anchor="end" fill="#333333" font-size="12pt">200mV</text></g><polyline points="70 519.4444444444445 1554 519.4444444444445" stroke="#333333" stroke-width="1" stroke-dasharray="2,8" fill="none" id="gge3284" class="px1"/><g c_partid="part_annotation" id="gge3287" c_origin="65,519.4444444444445"><text x="65" y="519.4444444444445" stroke="none" text-anchor="end" fill="#333333" font-size="12pt">100mV</text></g><polyline points="70 613.3333333333333 1554 613.3333333333333" stroke="#333333" stroke-width="1" stroke-dasharray="2,8" fill="none" id="gge3290" class="px1"/><g c_partid="part_annotation" id="gge3293" c_origin="65,613.3333333333333"><text x="65" y="613.3333333333333" stroke="none" text-anchor="end" fill="#333333" font-size="12pt">0V</text></g><polyline points="70 707.2222222222222 1554 707.2222222222222" stroke="#333333" stroke-width="1" stroke-dasharray="2,8" fill="none" id="gge3296" class="px1"/><g c_partid="part_annotation" id="gge3299" c_origin="65,707.2222222222222"><text x="65" y="707.2222222222222" stroke="none" text-anchor="end" fill="#333333" font-size="12pt">-100mV</text></g><polyline points="70 801.1111111111111 1554 801.1111111111111" stroke="#333333" stroke-width="1" stroke-dasharray="2,8" fill="none" id="gge3302" class="px1"/><g c_partid="part_annotation" id="gge3305" c_origin="65,801.1111111111111"><text x="65" y="801.1111111111111" stroke="none" text-anchor="end" fill="#333333" font-size="12pt">-200mV</text></g><polyline points="70 895 1554 895" stroke="#333333" stroke-width="1" stroke-dasharray="2,8" fill="none" id="gge3308" class="px1"/><g c_partid="part_annotation" id="gge3311" c_origin="65,895"><text x="65" y="895" stroke="none" text-anchor="end" fill="#333333" font-size="12pt">-300mV</text></g><polyline points="149.06277118 613.28437718 152.77277118 613.28855063 156.48277118 613.29174342 160.19277118 613.29348282 163.90277118 613.29335039 167.61277118 613.29103106 171.32277118 613.28636106 175.03277118 613.27936999 178.74277118 613.27031179 182.45277118 613.25967997 186.16277118 613.24820263 189.87277118 613.23681442 193.58277118 613.22660421 197.29277118 613.21873912 201.00277118 613.21436837 204.71277118 613.21451231 208.42277118 613.21994463 211.87920111 613.23013596 215.58920111 613.24655023 219.29920111 613.26808296 223.00920111 613.29360553 226.71920111 613.32141625 230.42920111 613.34929807 234.09705959 613.37437747 237.80705959 613.39440753 241.51705959 613.40625035 245.22705959 613.40734373 248.93705959 613.39569305 252.64705959 613.37016458 256.35705959 613.33074803 260.06705959 613.2787557 263.77705959 613.2169263 267.48705959 613.14940654 271.19705959 613.08159235 274.90705959 613.01982422 278.61705959 612.97094552 282.32705959 612.94174727 286.03705959 612.93833512 289.74705959 612.96546369 293.45705959 613.02588846 297.16705959 613.1197872 300.87705959 613.24430373 304.58705959 613.3932663 308.29705959 613.55713445 312.00705959 613.72322803 315.71705959 613.87628877 319.42705959 613.99941226 323.13705959 614.07536055 326.84705959 614.08821974 330.55705959 614.02530325 334.26705959 613.87912717 337.97705959 613.64921513 341.68705959 613.3434452 345.39705959 612.97865611 349.10705959 612.58029708 352.81705959 612.18103836 356.52705959 611.81843826 360.23705959 611.53191806 363.94705959 611.35937003 367.65705959 611.33400055 371.36705959 611.48115863 375.07705959 611.81584708 378.78705959 612.34098404 382.49705959 613.04482882 386.20705959 613.89928254 389.91705959 614.8578857 393.62705959 615.85405658 397.33705959 616.80129113 401.04705959 617.5959265 404.75705959 618.12358441 408.46705959 618.27077407 412.17705959 617.94254512 415.88705959 617.08007202 419.59705959 615.6803368 423.30705959 613.81100032 427.01705959 611.61443151 430.72705959 609.29146598 434.43705959 607.07405824 438.14705959 605.19071464 441.85705959 603.8342036 445.56705959 603.14462351 449.27705959 603.20456811 452.98705959 604.04829229 456.69705959 605.67958725 460.40705959 608.09633971 464.11705959 611.30783598 467.82705959 615.32478199 471.53705959 620.10704681 475.24705959 625.48599494 478.95705959 631.09487256 482.66705959 636.35017844 486.37705959 640.46209054 490.08705959 642.51598208 493.79705959 641.62259327 496.8523793 638.20532562 500.16935822 631.64159783 503.24353935 623.32198841 504.64958068 619.01445659 505.62745891 615.93116944 506.82726618 612.11999263 508.84205984 605.80984656 511.37004982 598.32274905 513.98000998 591.39400327 516.68568209 585.33911471 519.90114202 579.92103662 523.43987574 576.42719493 527.14987574 575.64936387 530.73530594 577.62153802 534.34032646 582.0357556 538.05032646 588.66588593 541.76032646 596.80598789 545.47032646 605.75278508 549.03379154 614.43836138 552.1958868 621.73786317 554.36140356 626.33269379 556.92205583 631.25055077 559.19725112 635.18963208 560.48318508 637.27643261 561.93047693 639.54424416 563.45510471 641.85900662 566.50436025 646.21551041 569.44174702 649.86251296 572.177916 652.4003468 575.14514647 653.6720597 578.63775057 652.42147037 581.43718635 648.80985349 584.21883079 642.71984025 587.11555987 633.99756581 588.49257119 629.18244421 589.38112543 625.93493991 590.50000947 621.7592982 592.07847454 615.81429564 593.87617182 609.11520314 595.83506444 602.07557051 597.91288458 595.07899912 601.06044746 585.76605613 604.74611877 577.31088223 608.45611877 571.86492653 612.16611877 569.61154522 615.52008216 570.25401645 618.56183799 572.99912993 621.06895441 576.79074696 623.89615583 582.59120468 626.72968941 589.73130589 628.52213927 594.75500468 630.89922023 601.75562581 633.67378491 610.09312973 637.29788009 620.62942235 640.67675282 629.51283644 644.38675282 637.59630805 648.09675282 643.5408858 651.80675282 647.27169933 653.75881341 648.39505742 656.0714552 648.99856138 658.27818193 648.79392047 660.96549153 647.4029789 663.26894222 645.12291956 666.0382716 640.99308237 669.5083939 633.85759798 671.70197052 628.43381943 673.04714556 624.87608208 674.99965752 619.55836522 677.45873621 612.82170099 680.58604651 604.59707025 684.20347502 596.11844197 687.60822028 589.62537877 691.31822028 584.61822907 695.02822028 582.015923 698.73822028 581.88668004 702.31789989 584.0077202 705.91250494 588.11499593 709.62250494 594.03089404 713.33250494 601.11899421 717.04250494 608.76918314 720.67394518 616.20710937 724.17485574 622.81889366 727.88485574 628.75293475 731.59485574 633.23270331 735.30485574 636.06348552 739.01485574 637.20452867 742.72485574 636.682641 746.43485574 634.5226628 750.14485574 630.79106659 753.52972166 626.18918579 757.23972166 620.22958686 760.2441927 615.05343965 763.51501438 609.47652712 766.7453407 604.37273451 770.4553407 599.39863631 774.1653407 595.6893311 777.30431261 593.70633408 780.22353514 592.88066203 782.83025673 592.97655467 785.4080755 593.81315145 789.1180755 596.17719211 792.8280755 599.68468266 796.5380755 604.00982627 800.2480755 608.78251556 803.9580755 613.62296734 807.5486429 618.04349976 811.2586429 622.0697703 814.9686429 625.39895695 818.6786429 628.00559045 822.03619604 629.7570208 825.08153819 630.81441362 828.79153819 631.26780211 832.16581696 630.70065467 835.49942073 629.04427473 838.98951206 626.04931024 842.69951206 621.54589338 846.40951206 616.04012238 848.86090729 612.11282685 851.865441 607.34567314 854.71888279 603.13222298 858.42888279 598.50174563 862.13888279 595.13452749 865.84888279 593.24436461 869.55888279 592.90778488 873.02776744 593.95795525 876.73776744 596.38628688 880.44776744 599.92069765 884.15776744 604.25405916 887.86776744 609.07155662 890.84233918 613.12068752 893.96850169 617.51090824 896.10208244 620.62593284 897.96042548 623.46529516 900.17318371 627.03564665 903.42599471 632.63268574 906.94020709 638.89409497 910.21438494 644.43426677 913.59012639 649.08718829 917.30012639 651.87139317 921.01012639 651.0523707 924.01606961 647.08233551 926.64523445 640.98106645 929.48700649 631.9394702 930.82721888 626.99082228 931.68403759 623.69159039 932.72349539 619.61662892 934.12981647 614.07088345 935.63452025 608.20332698 937.59157434 600.84130105 939.36577773 594.55673183 942.17356836 585.65524837 945.50377557 577.13768641 949.21377557 570.67714097 952.92377557 567.58758611 955.82414206 567.48283177 958.89338087 569.52542185 961.36344832 572.76840098 964.21771516 578.20739692 967.92771516 587.52311708 969.7714478 592.88028823 972.01823328 599.77081552 974.34317167 607.08916974 977.6158736 617.23181524 980.90923496 626.72788562 984.61923496 635.91419596 987.48945546 641.62430266 990.55257161 646.29598125 991.98215736 648.01056915 993.76205128 649.78200551 995.60519347 651.2012011 997.76543938 652.28699016 1000.28512502 652.62997872 1003.04024077 651.6237735 1006.13022184 648.45591494 1009.03255629 643.34479109 1011.89069898 636.40154113 1013.6138636 631.46220205 1014.74783638 627.99646129 1016.37374147 622.85448474 1018.13324088 617.1901477 1021.0628445 607.91522171 1024.08377394 598.98313973 1027.33874245 590.59060351 1030.75037396 583.62439629 1034.46037396 578.56675884 1038.17037396 576.32353765 1041.77280881 576.83526639 1045.38968701 579.88543857 1049.09968701 585.39172162 1052.80968701 592.83425114 1055.51375123 599.11387254 1058.644285 606.81023277 1062.354285 615.91287547 1065.72662805 623.63013391 1069.43662805 630.92337169 1073.14662805 636.52118781 1076.85662805 640.15285451 1080.56662805 641.75089101 1084.27662805 641.35323947 1087.94723262 639.02586248 1091.00349833 635.65288413 1094.27193943 630.75012824 1097.98193943 623.97023172 1100.64080667 618.63412169 1103.63595452 612.54006756 1106.7971312 606.37721919 1110.5071312 599.96738005 1114.2171312 594.86356724 1117.60910071 591.61872226 1121.31910071 589.80521789 1125.02910071 589.84426495 1128.61657025 591.55629822 1132.32657025 594.83994339 1136.03657025 599.33795443 1139.74657025 604.64467404 1143.45657025 610.31323386 1147.16657025 615.89361585 1150.72776738 620.78410987 1154.43776738 625.05905795 1158.14776738 628.27126167 1161.85776738 630.31300313 1165.56776738 631.16799388 1169.27776738 630.84086558 1172.98776738 629.32153905 1176.69776738 626.62422082 1180.40776738 622.86297157 1184.11776738 618.30205183 1187.82776738 613.34095168 1191.29658369 608.74226406 1194.78124131 604.53288858 1198.49124131 600.83741728 1202.20124131 598.20394358 1205.91124131 596.78853444 1209.62124131 596.64112406 1213.13174546 597.62538429 1216.84174546 599.71747649 1220.55174546 602.68386831 1224.26174546 606.26634934 1227.97174546 610.19542561 1231.68174546 614.24221946 1235.39174546 618.28704057 1238.65771276 621.86136471 1241.03323183 624.50966435 1243.81757858 627.68077886 1247.47619555 631.83362612 1251.18619555 635.68780116 1254.89619555 638.59548173 1258.60619555 639.83094599 1262.31619555 638.67779254 1265.51661346 635.36232551 1268.91569262 629.41060255 1272.14939246 621.81802679 1273.66302462 617.81677651 1274.89511244 614.46789747 1276.34966298 610.49742395 1278.97432323 603.54330231 1282.33165238 595.49756025 1285.97765251 588.39371501 1289.40737172 583.65554589 1292.56498248 581.16555598 1296.1476179 580.59222892 1299.62365788 582.24995979 1303.26070924 586.08052311 1306.97070924 591.79814447 1310.68070924 598.81778458 1314.39070924 606.538319 1318.10070924 614.34833598 1320.74092184 619.66819891 1323.11581792 624.14040501 1325.6459088 628.55853691 1327.04160427 630.86815807 1328.32687979 632.94579413 1329.99826802 635.61023184 1332.26186902 639.17883583 1335.25127306 643.74841077 1338.06790263 647.67136854 1341.11374776 651.0131676 1344.26403459 652.83513664 1347.97403459 651.87439831 1350.93523249 648.1259558 1353.65157055 642.1354353 1356.53378658 633.3794246 1357.91816897 628.48332737 1358.8123344 625.17566315 1359.92569553 620.97159432 1361.46995345 615.09255753 1363.1107242 608.91203174 1364.98463892 602.09183734 1366.97680382 595.27395803 1369.89463494 586.39980191 1373.4091096 577.89916446 1377.1191096 571.93134786 1380.8291096 569.2147163 1383.86084468 569.36654207 1386.99977814 571.71735212 1389.55238477 575.25361373 1392.45397448 580.92395143 1396.16397448 590.22445504 1398.04238627 595.58307701 1400.51364459 602.95966586 1403.24040203 611.2126552 1406.69845823 621.28745529 1410.10898335 630.23058187 1413.81898335 638.24345652 1417.52898335 644.12200055 1420.09272878 646.92004615 1421.80946787 648.25998593 1423.90903158 649.34122435 1426.60393439 649.77751638 1429.07866117 649.12663972 1431.46351624 647.41048671 1434.31430767 643.8182494 1437.38935351 638.06565594 1440.62170685 630.25110112 1442.08038927 626.283153 1443.65071644 621.8509242 1445.36659942 616.92824484 1448.42056887 608.31433359 1451.48677695 600.24959702 1455.19677695 591.88226605 1458.56028017 586.0342958 1462.27028017 581.8668756 1465.98028017 580.2606221 1469.55815554 581.12899111 1473.14623639 584.22186413 1476.85623639 589.43617597 1480.56623639 596.22002385 1484.27623639 603.96852946 1487.98623639 612.02679195 1491.44266569 619.25712401 1495.00201733 625.91155628 1498.71201733 631.55350152 1502.42201733 635.57237791" stroke="#0000FF" stroke-width="1" fill="none" id="gge3314" class="px1"/><polyline points="149.06277118 613.20686745 152.77277118 613.18894347 156.48277118 613.16653592 160.19277118 613.14097289 163.90277118 613.11411246 167.61277118 613.08826031 171.32277118 613.06603043 175.03277118 613.05015225 178.74277118 613.04323313 182.45277118 613.04749076 186.16277118 613.06447579 189.87277118 613.09480923 193.58277118 613.137962 197.29277118 613.1921048 201.00277118 613.25405438 204.71277118 613.31933776 208.42277118 613.38238846 211.87920111 613.43363134 215.58920111 613.4741761 219.29920111 613.49358245 223.00920111 613.48632264 226.71920111 613.44840879 230.42920111 613.37803846 234.09705959 613.27746179 237.80705959 613.14840175 241.51705959 612.99918234 245.22705959 612.84035066 248.93705959 612.68521979 252.64705959 612.54909255 256.35705959 612.44815513 260.06705959 612.39808941 263.77705959 612.41249025 267.48705959 612.50120934 271.19705959 612.66877542 274.90705959 612.91305642 278.61705959 613.22433043 282.32705959 613.58491601 286.03705959 613.96948038 289.74705959 614.34609853 293.45705959 614.67808187 297.16705959 614.92653547 300.87705959 615.05354215 304.58705959 615.0258104 308.29705959 614.81856115 312.00705959 614.41936619 315.71705959 613.83158944 319.42705959 613.07702865 323.13705959 612.19732182 326.84705959 611.25368879 330.55705959 610.32464459 334.26705959 609.50146596 337.97705959 608.88142159 341.68705959 608.55907656 345.39705959 608.61631485 349.10705959 609.11202724 352.81705959 610.07261165 356.52705959 611.48446051 360.23705959 613.28944011 363.94705959 615.3840356 367.65705959 617.62237084 371.36705959 619.82291556 375.07705959 621.77860231 378.78705959 623.26961646 382.49705959 624.07847236 386.20705959 624.00776633 389.91705959 622.90008335 393.62705959 620.6600162 397.33705959 617.2775888 401.04705959 612.85036334 404.75705959 607.60091675 408.46705959 601.88476942 412.17705959 596.18252273 415.88705959 591.07139528 419.59705959 587.1753721 423.30705959 585.09453681 427.01705959 585.32103978 430.72705959 588.15837755 434.43705959 593.66361697 438.14705959 601.62476452 441.85705959 611.57700361 445.56705959 622.85115282 449.27705959 634.63697669 452.98705959 646.04657591 456.69705959 656.16402417 460.40705959 664.07120934 464.11705959 668.84851315 467.82705959 669.56555129 471.53705959 665.30005156 475.24705959 655.22705444 478.95705959 638.79546745 482.66705959 615.96623567 486.37705959 587.46029823 490.08705959 554.9656953 493.79705959 521.22550679 496.8523793 494.98740416 500.16935822 471.14622846 503.24353935 455.8004907 504.64958068 451.47290327 505.62745891 449.58280714 506.82726618 448.55965531 508.84205984 450.06601733 511.37004982 457.52451396 513.98000998 471.29511201 516.68568209 491.30997855 519.90114202 521.23665367 523.43987574 559.60459437 527.14987574 602.87783179 530.73530594 644.55317659 534.34032646 683.30988283 538.05032646 717.159959 541.76032646 742.6878175 545.47032646 758.40394616 549.03379154 763.63653595 552.1958868 760.2520025 554.36140356 753.8049519 556.92205583 742.24991952 559.19725112 728.73023028 560.48318508 719.84387558 561.93047693 708.83757412 563.45510471 696.1325852 566.50436025 667.47926235 569.44174702 636.08510613 572.177916 604.0230143 575.14514647 567.19563735 578.63775057 523.30658316 581.43718635 489.75898653 584.21883079 460.17401566 587.11555987 435.63767945 588.49257119 426.7710677 589.38112543 422.14860813 590.50000947 417.61798883 592.07847454 413.7289876 593.87617182 412.88910172 595.83506444 416.25677953 597.91288458 424.50519647 601.06044746 445.31752442 604.74611877 480.45216359 608.45611877 524.51423071 612.16611877 573.68094684 615.52008216 619.49433114 618.56183799 659.84156347 621.06895441 690.8197673 623.89615583 721.78925249 626.72968941 747.32376024 628.52213927 760.14750624 630.89922023 772.72465814 633.67378491 780.74480066 637.29788009 780.39586371 640.67675282 769.57159283 644.38675282 747.46773175 648.09675282 716.76881733 651.80675282 680.00027576 653.75881341 659.00428763 656.0714552 633.3650422 658.27818193 608.61249502 660.96549153 578.92399363 663.26894222 554.59482323 666.0382716 527.86412868 669.5083939 500.1300285 671.70197052 486.7499876 673.04714556 480.39928506 674.99965752 473.87690687 677.45873621 470.31631969 680.58604651 473.21215554 684.20347502 486.26220362 687.60822028 506.8455483 691.31822028 536.38005958 695.02822028 570.81621814 698.73822028 607.32337123 702.31789989 641.8622142 705.91250494 673.40922913 709.62250494 700.44823683 713.33250494 720.12889962 717.04250494 731.32031394 720.67394518 733.64902048 724.17485574 728.05164983 727.88485574 714.59422503 731.59485574 694.78133611 735.30485574 670.38582772 739.01485574 643.34822404 742.72485574 615.62998677 746.43485574 589.16060405 750.14485574 565.82339149 753.52972166 548.73349956 757.23972166 535.98451816 760.2441927 530.85273182 763.51501438 530.80770729 766.7453407 536.26645944 770.4553407 548.5859601 774.1653407 566.21467578 777.30431261 584.16231461 780.22353514 602.3392631 782.83025673 619.0304779 785.4080755 635.30213123 789.1180755 657.07776127 792.8280755 675.64953155 796.5380755 689.81012986 800.2480755 698.74962838 803.9580755 702.09375846 807.5486429 700.04995515 811.2586429 692.90522419 814.9686429 681.33430861 818.6786429 666.1617635 822.03619604 650.0147995 825.08153819 633.92443707 828.79153819 613.2827738 832.16581696 594.38216744 835.49942073 576.66357564 838.98951206 560.42088463 842.69951206 547.27113691 846.40951206 539.76331332 848.86090729 538.38137482 851.865441 540.80373547 854.71888279 547.19404408 858.42888279 560.82519455 862.13888279 579.36521014 865.84888279 601.25691733 869.55888279 624.74753582 873.02776744 646.58610437 876.73776744 668.16596228 880.44776744 686.4813033 884.15776744 700.36101498 887.86776744 708.99486011 890.84233918 711.80434374 893.96850169 710.63240158 896.10208244 707.33702367 897.96042548 702.75186788 900.17318371 695.10072719 903.42599471 679.23759495 906.94020709 655.59912039 910.21438494 627.45416328 913.59012639 592.83262837 917.30012639 550.00441664 921.01012639 505.33551761 924.01606961 470.76151941 926.64523445 444.16557641 929.48700649 421.6972452 930.82721888 413.91176765 931.68403759 410.01891948 932.72349539 406.48838547 934.12981647 403.8342597 935.63452025 403.70884435 937.59157434 407.66986396 939.36577773 415.1428333 942.17356836 433.87289647 945.50377557 465.59731164 949.21377557 510.25507986 952.92377557 561.13054105 955.82414206 602.80455147 958.89338087 646.38571538 961.36344832 679.71854524 964.21771516 714.6727263 967.92771516 751.94238847 969.7714478 766.35328674 972.01823328 779.65731604 974.34317167 788.2656766 977.6158736 791.36603224 980.90923496 784.17845128 984.61923496 764.89235082 987.48945546 742.97952635 990.55257161 714.31934348 991.98215736 699.41881956 993.76205128 679.82406441 995.60519347 658.53125044 997.76543938 632.61646271 1000.28512502 601.64917206 1003.04024077 567.81061126 1006.13022184 531.49086439 1009.03255629 500.73543927 1011.89069898 475.48738318 1013.6138636 463.33540554 1014.74783638 456.79480651 1016.37374147 449.58435384 1018.13324088 444.75249153 1021.0628445 443.62078232 1024.08377394 451.22493771 1027.33874245 468.52124219 1030.75037396 495.2392813 1034.46037396 531.79071399 1038.17037396 573.142453 1041.77280881 614.79530548 1045.38968701 655.08141593 1049.09968701 691.87720726 1052.80968701 721.4979765 1055.51375123 737.41943534 1058.644285 749.05449872 1062.354285 753.03910194 1065.72662805 747.63402066 1069.43662805 732.70071311 1073.14662805 709.92095978 1076.85662805 681.37844103 1080.56662805 649.3938508 1084.27662805 616.32560268 1087.94723262 584.80854745 1091.00349833 561.02714987 1094.27193943 539.59500384 1097.98193943 521.84527474 1100.64080667 514.09703227 1103.63595452 510.73625322 1106.7971312 513.33385784 1110.5071312 523.87562883 1114.2171312 541.38545625 1117.60910071 562.12070362 1121.31910071 588.0855621 1125.02910071 615.44338629 1128.61657025 641.23402444 1132.32657025 665.28456662 1136.03657025 685.03092508 1139.74657025 699.21402941 1143.45657025 707.06421558 1147.16657025 708.33470218 1150.72776738 703.6005009 1154.43776738 693.16306813 1158.14776738 678.152504 1161.85776738 659.85125971 1165.56776738 639.63219105 1169.27776738 618.8785763 1172.98776738 598.97291756 1176.69776738 581.29941045 1180.40776738 567.18689014 1184.11776738 557.7732252 1187.82776738 553.83601586 1191.29658369 555.37638386 1194.78124131 561.82905705 1198.49124131 573.46191673 1202.20124131 588.99158335 1205.91124131 607.11816197 1209.62124131 626.40124653 1213.13174546 644.40263963 1216.84174546 661.8357308 1220.55174546 676.48681527 1224.26174546 687.43625456 1227.97174546 694.06996175 1231.68174546 696.07224532 1235.39174546 693.35213183 1238.65771276 687.04705592 1241.03323183 680.14719358 1243.81757858 669.52771993 1247.47619555 651.36343142 1251.18619555 628.21191527 1254.89619555 600.94044292 1258.60619555 570.93412239 1262.31619555 540.41936779 1265.51661346 515.89280496 1268.91569262 494.31939784 1272.14939246 480.30023808 1273.66302462 476.40848236 1274.89511244 474.64687585 1276.34966298 474.23836081 1278.97432323 478.05086977 1282.33165238 491.01053973 1285.97765251 514.08329601 1289.40737172 542.54637693 1292.56498248 572.70008172 1296.1476179 609.07281448 1299.62365788 644.19968978 1303.26070924 678.22262564 1306.97070924 707.71023899 1310.68070924 730.02033451 1314.39070924 743.86702991 1318.10070924 748.67007655 1320.74092184 746.59006783 1323.11581792 741.00031949 1325.6459088 731.43959386 1327.04160427 724.66393427 1328.32687979 717.52866739 1329.99826802 706.99809174 1332.26186902 690.51405009 1335.25127306 664.90013189 1338.06790263 636.94106026 1341.11374776 603.06295894 1344.26403459 565.1569041 1347.97403459 519.41555395 1350.93523249 484.51726987 1353.65157055 456.16064573 1356.53378658 432.27739921 1357.91816897 423.63930898 1358.8123344 419.18485875 1359.92569553 414.93773847 1361.46995345 411.48724921 1363.1107242 410.94637098 1364.98463892 414.20629359 1366.97680382 422.02726064 1369.89463494 440.89389186 1373.4091096 473.63682629 1377.1191096 517.21587684 1380.8291096 566.48519017 1383.86084468 608.42602396 1386.99977814 651.03877477 1389.55238477 683.64649094 1392.45397448 716.83672544 1396.16397448 750.94451576 1398.04238627 764.01121451 1400.51364459 776.3158493 1403.24040203 783.21275467 1406.69845823 781.91717683 1410.10898335 770.24907982 1413.81898335 747.33517311 1417.52898335 715.90639729 1420.09272878 690.44724555 1421.80946787 672.18105855 1423.90903158 648.93771088 1426.60393439 618.28028811 1429.07866117 590.01030344 1431.46351624 563.44423261 1434.31430767 533.76659234 1437.38935351 505.90367975 1440.62170685 483.16153489 1442.08038927 475.51397669 1443.65071644 469.32445769 1445.36659942 465.07025763 1448.42056887 464.02825859 1451.48677695 471.13661565 1455.19677695 489.59030101 1458.56028017 514.17177634 1462.27028017 547.56648143 1465.98028017 584.8225962 1469.55815554 621.6345155 1473.14623639 656.74795897 1476.85623639 688.60110194 1480.56623639 713.76068025 1484.27623639 730.62974155 1487.98623639 738.33714447 1491.44266569 737.1544897 1495.00201733 728.01282264 1498.71201733 711.06144974 1502.42201733 688.16141181" stroke="#00FF00" stroke-width="1" fill="none" id="gge3317" class="px1"/><polyline points="149.06277118 271.2221938 152.77277118 271.21006224 156.48277118 271.20700619 160.19277118 271.21490112 163.90277118 271.23491822 167.61277118 271.26729062 171.32277118 271.31112726 175.03277118 271.36430029 178.74277118 271.4234295 182.45277118 271.48398239 186.16277118 271.54050037 189.87277118 271.58695202 193.58277118 271.61720179 197.29277118 271.62557025 201.00277118 271.60744862 204.71277118 271.55991948 208.42277118 271.48232617 211.87920111 271.38468542 215.58920111 271.25745457 219.29920111 271.11473483 223.00920111 270.96726793 226.71920111 270.82812349 230.42920111 270.7118774 234.09705959 270.63410311 237.80705959 270.60697891 241.51705959 270.64324824 245.22705959 270.75060681 248.93705959 270.93138955 252.64705959 271.1814066 256.35705959 271.48919409 260.06705959 271.83582587 263.77705959 272.19540338 267.48705959 272.53629511 271.19705959 272.82313571 274.90705959 273.01952254 278.61705959 273.09127001 282.32705959 273.01000665 286.03705959 272.75683508 289.74705959 272.32572698 293.45705959 271.72629999 297.16705959 270.98562459 300.87705959 270.14873818 304.58705959 269.2776007 308.29705959 268.44831254 312.00705959 267.74652983 315.71705959 267.26115614 319.42705959 267.07655991 323.13705959 267.26375981 326.84705959 267.87122179 330.55705959 268.91610129 334.26705959 270.3769102 337.97705959 272.18865439 341.68705959 274.24143514 345.39705959 276.38331087 349.10705959 278.4278668 352.81705959 280.16646634 356.52705959 281.38461936 360.23705959 281.88135399 363.94705959 281.49017615 367.65705959 280.09962671 371.36705959 277.67207532 375.07705959 274.25864361 378.78705959 270.00883519 382.49705959 265.17439683 386.20705959 260.10487823 389.91705959 255.23543195 393.62705959 251.06447239 397.33705959 248.12110145 401.04705959 246.92182747 404.75705959 247.91765479 408.46705959 251.43496136 412.17705959 257.61387751 415.88705959 266.35591391 419.59705959 277.28538784 423.30705959 289.74001692 427.01705959 302.79356661 430.72705959 315.32122738 434.43705959 326.09527471 438.14705959 333.9052033 441.85705959 337.68108015 445.56705959 336.60273512 449.27705959 330.18646967 452.98705959 318.33863762 456.69705959 301.38546136 460.40705959 280.07942008 464.11705959 255.59987051 467.82705959 229.55295853 471.53705959 203.97542365 475.24705959 181.31655721 478.95705959 164.36989348 482.66705959 156.09999034 486.37705959 159.37362481 490.08705959 176.56382861 493.79705959 209.09160393 496.8523793 247.50623818 500.16935822 300.00096864 503.24353935 356.7436387 504.64958068 384.6293645 505.62745891 404.48349712 506.82726618 429.15574127 508.84205984 470.75235418 511.37004982 521.91470114 513.98000998 571.68769189 516.68568209 617.9503855 519.90114202 663.27293361 523.43987574 698.34529885 527.14987574 716.29131921 530.73530594 714.48252294 534.34032646 694.22308976 538.05032646 656.02779846 541.76032646 603.4101475 545.47032646 540.48970585 549.03379154 474.66785727 552.1958868 415.3271436 554.36140356 375.74113382 556.92205583 331.5617491 559.19725112 295.66998616 560.48318508 277.10404003 561.93047693 257.94260835 563.45510471 239.94528523 566.50436025 211.62729527 569.44174702 195.13828012 572.177916 190.47137069 575.14514647 198.08946038 578.63775057 224.71118742 581.43718635 259.78236415 584.21883079 305.94507576 587.11555987 364.34968174 588.49257119 395.20810236 589.38112543 415.94851851 590.50000947 442.79944239 592.07847454 481.68988431 593.87617182 526.76933173 595.83506444 575.88675664 597.91288458 626.80615576 601.06044746 698.79177852 604.74611877 770.89394749 608.45611877 825.61547881 612.16611877 858.95856062 615.52008216 869.19080715 618.56183799 861.92241444 621.06895441 844.53382641 623.89615583 813.63915002 626.72968941 772.22700726 628.52213927 741.47857061 630.89922023 696.59626948 633.67378491 640.14837774 637.29788009 563.90014149 640.67675282 494.43377481 644.38675282 425.11171232 648.09675282 367.50143778 651.80675282 325.19624944 653.75881341 309.89657058 656.0714552 298.48886073 658.27818193 294.56313509 660.96549153 299.00001119 663.26894222 310.69956911 666.0382716 333.83061708 669.5083939 375.11220157 671.70197052 407.17368855 673.04714556 428.63266233 674.99965752 461.54999325 677.45873621 504.89418424 680.58604651 560.6735476 684.20347502 622.26111277 687.60822028 673.62118794 691.31822028 718.40376943 695.02822028 748.61508022 698.73822028 762.43048426 702.31789989 759.7294007 705.91250494 741.86903444 709.62250494 709.39029289 713.33250494 665.50407744 717.04250494 613.82348204 720.67394518 559.54242314 724.17485574 507.37607701 727.88485574 456.00383674 731.59485574 411.94151124 735.30485574 377.86472792 739.01485574 355.59017573 742.72485574 346.02673225 746.43485574 349.17989152 750.14485574 364.16615858 753.52972166 386.7384358 757.23972166 418.8611638 760.2441927 448.61867013 763.51501438 482.47010262 766.7453407 515.19237179 770.4553407 549.05623079 774.1653407 576.31225269 777.30431261 592.56849366 780.22353514 601.16363192 782.83025673 603.15878046 785.4080755 599.7752844 789.1180755 585.92000546 792.8280755 562.43352374 796.5380755 531.00643514 800.2480755 493.82708449 803.9580755 453.39047382 807.5486429 413.59179533 811.2586429 374.26058451 814.9686429 338.9850775 818.6786429 309.68950578 822.03619604 289.60737183 825.08153819 277.45189639 828.79153819 271.12330209 832.16581696 273.7348053 835.49942073 284.05020536 838.98951206 302.46303773 842.69951206 329.18805618 846.40951206 361.13864272 848.86090729 383.87571094 851.865441 411.83932558 854.71888279 437.10552106 858.42888279 465.66407458 862.13888279 487.06784642 865.84888279 499.28052332 869.55888279 501.02467113 873.02776744 492.76529768 876.73776744 473.68541377 880.44776744 445.07688104 884.15776744 408.6539054 887.86776744 366.6201667 890.84233918 330.50067412 893.96850169 291.93898854 896.10208244 266.04722702 897.96042548 244.29217922 900.17318371 219.93069006 903.42599471 188.58216482 906.94020709 162.9520419 910.21438494 149.26809307 913.59012639 148.05012811 917.30012639 164.39845293 921.01012639 200.98658294 924.01606961 245.7087261 926.64523445 295.20775291 929.48700649 357.95958919 930.82721888 390.31024331 931.68403759 411.6950404 932.72349539 438.20617051 934.12981647 474.76950655 935.63452025 514.34481887 937.59157434 565.64172781 939.36577773 611.15106469 942.17356836 679.0476344 945.50377557 749.69958686 949.21377557 811.25540258 952.92377557 850.96939832 955.82414206 865.28996811 958.89338087 863.97151223 961.36344832 850.85116519 964.21771516 823.19049274 967.92771516 769.82434151 969.7714478 737.03077153 972.01823328 692.85739857 974.34317167 643.58322055 977.6158736 571.17416415 980.90923496 498.41703773 984.61923496 421.83220276 987.48945546 369.52823004 990.55257161 323.08118769 991.98215736 305.20575823 993.76205128 286.72980314 995.60519347 272.25437296 997.76543938 261.61863845 1000.28512502 258.15555482 1003.04024077 265.57806418 1006.13022184 287.63413058 1009.03255629 320.82823802 1011.89069898 363.9491058 1013.6138636 394.21921057 1014.74783638 415.57312622 1016.37374147 447.7479258 1018.13324088 484.10650731 1021.0628445 546.23174568 1024.08377394 609.69101584 1027.33874245 673.62469458 1030.75037396 731.81099082 1034.46037396 780.86274501 1038.17037396 812.08722525 1041.77280881 823.72232239 1045.38968701 816.6748719 1049.09968701 791.15675477 1052.80968701 749.65108318 1055.51375123 711.26438879 1058.644285 660.92451666 1062.354285 596.93203805 1065.72662805 538.4236245 1069.43662805 478.16000927 1073.14662805 426.13522412 1076.85662805 385.67240025 1080.56662805 359.07681757 1084.27662805 347.56303037 1087.94723262 351.14758076 1091.00349833 364.92637145 1094.27193943 389.23360417 1097.98193943 426.42767739 1100.64080667 457.69532585 1103.63595452 495.38766112 1106.7971312 535.75572062 1110.5071312 580.5993223 1114.2171312 619.39590333 1117.60910071 647.04738209 1121.31910071 666.63401616 1125.02910071 673.88534628 1128.61657025 668.86803075 1132.32657025 651.87510801 1136.03657025 624.36973429 1139.74657025 588.56355031 1143.45657025 547.17485996 1147.16657025 503.19578511 1150.72776738 461.33570225 1154.43776738 420.87640233 1158.14776738 386.02960585 1161.85776738 358.71757671 1165.56776738 340.24726391 1169.27776738 331.28567604 1172.98776738 331.858602 1176.69776738 341.34920545 1180.40776738 358.50446341 1184.11776738 381.48058494 1187.82776738 407.95901437 1191.29658369 433.60844275 1194.78124131 457.97135807 1198.49124131 480.02919173 1202.20124131 496.02870714 1205.91124131 504.36395031 1209.62124131 504.05845586 1213.13174546 495.52710711 1216.84174546 478.13836324 1220.55174546 453.07507649 1224.26174546 421.78492054 1227.97174546 386.09526484 1231.68174546 348.07314736 1235.39174546 309.89501674 1238.65771276 277.86607076 1241.03323183 256.37411743 1243.81757858 234.06334278 1247.47619555 211.05121151 1251.18619555 196.99193253 1254.89619555 194.37549801 1258.60619555 204.89954046 1262.31619555 229.48495461 1265.51661346 261.89176874 1268.91569262 306.49286136 1272.14939246 356.64761437 1273.66302462 382.02103199 1274.89511244 403.21150623 1276.34966298 428.5455403 1278.97432323 474.01859333 1282.33165238 529.21964414 1285.97765251 581.55031601 1289.40737172 620.1463235 1292.56498248 644.32535264 1296.1476179 656.93074325 1299.62365788 653.52980844 1303.26070924 633.97631323 1306.97070924 598.86092845 1310.68070924 551.16924092 1314.39070924 494.45512748 1318.10070924 432.7576001 1320.74092184 388.01595938 1323.11581792 348.66129489 1325.6459088 308.89999796 1327.04160427 288.29444174 1328.32687979 270.37730802 1329.99826802 248.84062696 1332.26186902 223.34819916 1335.25127306 197.29774145 1338.06790263 181.9427751 1341.11374776 176.8940981 1344.26403459 185.65640349 1347.97403459 215.3732915 1350.93523249 254.20554272 1353.65157055 300.89775026 1356.53378658 360.38000739 1357.91816897 391.98834909 1358.8123344 413.21640859 1359.92569553 440.34802464 1361.46995345 478.89837338 1363.1107242 520.48997159 1364.98463892 567.949245 1366.97680382 617.32988705 1369.89463494 685.29610259 1373.4091096 756.47837711 1377.1191096 814.45916668 1380.8291096 851.1888028 1383.86084468 863.9527094 1386.99977814 860.43880587 1389.55238477 845.37236478 1392.45397448 815.97498826 1396.16397448 762.11217996 1398.04238627 728.98076214 1400.51364459 681.10953049 1403.24040203 624.52734001 1406.69845823 550.83827988 1410.10898335 480.1980161 1413.81898335 410.69428034 1417.52898335 353.27024832 1420.09272878 322.4906513 1421.80946787 306.50461146 1423.90903158 292.36069878 1426.60393439 283.26388971 1429.07866117 284.05563718 1431.46351624 293.07979098 1434.31430767 314.08844334 1437.38935351 348.17202053 1440.62170685 394.75473188 1442.08038927 418.74714263 1443.65071644 446.08492551 1445.36659942 477.25997048 1448.42056887 534.22411935 1451.48677695 590.82776432 1455.19677695 654.05906975 1458.56028017 702.845914 1462.27028017 743.58380167 1465.98028017 768.11956596 1469.55815554 775.18871566 1473.14623639 765.93358157 1476.85623639 740.43932242 1480.56623639 701.18514847 1484.27623639 651.55107949 1487.98623639 595.54181557 1491.44266569 541.35146513 1495.00201733 487.29480681 1498.71201733 436.50928035 1502.42201733 394.59750846" stroke="#FF0000" stroke-width="1" fill="none" id="gge3320" class="px1"/></g></svg>