<svg id="root" width="1624" height="930" style="left:0;top:0" viewBox="0 0 1624 930" preserveAspectRatio="xMinYMin" xmlns="http://www.w3.org/2000/svg" xmlns:xlink="http://www.w3.org/1999/xlink" xmlns:c="http://www.easyeda.com/" class="bw-electron"><g id="g1" c_spicecmd="TRAN`1u`1m`0`{AC`dec`10`1Hz`1Meg`{DC`0``0`0`{TF```" xmlns="http://www.w3.org/2000/svg" c_spiceCmd="null" importFlag="0"><rect x="0" y="0" width="1624" height="930" stroke="#FFFFFF" stroke-width="1" id="gge5399" fill="#FFFFFF"/><g c_partid="part_annotation" id="gge5402" c_origin="20,30"><text x="20" y="30" stroke="none" text-anchor="start" fill="#0000FF" font-size="12pt">V(volprobe3)</text></g><g c_partid="part_annotation" id="gge5405" c_origin="561.3333333333334,30"><text x="561.3333333333334" y="30" stroke="none" text-anchor="start" fill="#00FF00" font-size="12pt">V(volprobe2)</text></g><g c_partid="part_annotation" id="gge5408" c_origin="1102.6666666666667,30"><text x="1102.6666666666667" y="30" stroke="none" text-anchor="start" fill="#FF0000" font-size="12pt">V(volprobe1)</text></g><rect x="70" y="50" width="1484" height="845" id="gge5411" stroke="#333333" stroke-width="1" fill="#FFFFFF"/><g c_partid="part_annotation" id="gge5414" c_origin="70,912"><text x="70" y="912" stroke="none" text-anchor="middle" fill="#333333" font-size="12pt">7.8ms</text></g><polyline points="204.9090909090909 50 204.9090909090909 895" stroke="#333333" stroke-width="1" stroke-dasharray="2,8" fill="none" id="gge5417" class="px1"/><g c_partid="part_annotation" id="gge5420" c_origin="204.9090909090909,912"><text x="204.9090909090909" y="912" stroke="none" text-anchor="middle" fill="#333333" font-size="12pt">7.85ms</text></g><polyline points="339.8181818181818 50 339.8181818181818 895" stroke="#333333" stroke-width="1" stroke-dasharray="2,8" fill="none" id="gge5423" class="px1"/><g c_partid="part_annotation" id="gge5426" c_origin="339.8181818181818,912"><text x="339.8181818181818" y="912" stroke="none" text-anchor="middle" fill="#333333" font-size="12pt">7.9ms</text></g><polyline points="474.72727272727275 50 474.72727272727275 895" stroke="#333333" stroke-width="1" stroke-dasharray="2,8" fill="none" id="gge5429" class="px1"/><g c_partid="part_annotation" id="gge5432" c_origin="474.72727272727275,912"><text x="474.72727272727275" y="912" stroke="none" text-anchor="middle" fill="#333333" font-size="12pt">7.95ms</text></g><polyline points="609.6363636363636 50 609.6363636363636 895" stroke="#333333" stroke-width="1" stroke-dasharray="2,8" fill="none" id="gge5435" class="px1"/><g c_partid="part_annotation" id="gge5438" c_origin="609.6363636363636,912"><text x="609.6363636363636" y="912" stroke="none" text-anchor="middle" fill="#333333" font-size="12pt">8ms</text></g><polyline points="744.5454545454545 50 744.5454545454545 895" stroke="#333333" stroke-width="1" stroke-dasharray="2,8" fill="none" id="gge5441" class="px1"/><g c_partid="part_annotation" id="gge5444" c_origin="744.5454545454545,912"><text x="744.5454545454545" y="912" stroke="none" text-anchor="middle" fill="#333333" font-size="12pt">8.05ms</text></g><polyline points="879.4545454545455 50 879.4545454545455 895" stroke="#333333" stroke-width="1" stroke-dasharray="2,8" fill="none" id="gge5447" class="px1"/><g c_partid="part_annotation" id="gge5450" c_origin="879.4545454545455,912"><text x="879.4545454545455" y="912" stroke="none" text-anchor="middle" fill="#333333" font-size="12pt">8.1ms</text></g><polyline points="1014.3636363636364 50 1014.3636363636364 895" stroke="#333333" stroke-width="1" stroke-dasharray="2,8" fill="none" id="gge5453" class="px1"/><g c_partid="part_annotation" id="gge5456" c_origin="1014.3636363636364,912"><text x="1014.3636363636364" y="912" stroke="none" text-anchor="middle" fill="#333333" font-size="12pt">8.15ms</text></g><polyline points="1149.2727272727273 50 1149.2727272727273 895" stroke="#333333" stroke-width="1" stroke-dasharray="2,8" fill="none" id="gge5459" class="px1"/><g c_partid="part_annotation" id="gge5462" c_origin="1149.2727272727273,912"><text x="1149.2727272727273" y="912" stroke="none" text-anchor="middle" fill="#333333" font-size="12pt">8.2ms</text></g><polyline points="1284.1818181818182 50 1284.1818181818182 895" stroke="#333333" stroke-width="1" stroke-dasharray="2,8" fill="none" id="gge5465" class="px1"/><g c_partid="part_annotation" id="gge5468" c_origin="1284.1818181818182,912"><text x="1284.1818181818182" y="912" stroke="none" text-anchor="middle" fill="#333333" font-size="12pt">8.25ms</text></g><polyline points="1419.090909090909 50 1419.090909090909 895" stroke="#333333" stroke-width="1" stroke-dasharray="2,8" fill="none" id="gge5471" class="px1"/><g c_partid="part_annotation" id="gge5474" c_origin="1419.090909090909,912"><text x="1419.090909090909" y="912" stroke="none" text-anchor="middle" fill="#333333" font-size="12pt">8.3ms</text></g><polyline points="1554 50 1554 895" stroke="#333333" stroke-width="1" stroke-dasharray="2,8" fill="none" id="gge5477" class="px1"/><g c_partid="part_annotation" id="gge5480" c_origin="1554,912"><text x="1554" y="912" stroke="none" text-anchor="middle" fill="#333333" font-size="12pt">8.35ms</text></g><g c_partid="part_annotation" id="gge5483" c_origin="65,50"><text x="65" y="50" stroke="none" text-anchor="end" fill="#333333" font-size="12pt">500mV</text></g><polyline points="70 155.625 1554 155.625" stroke="#333333" stroke-width="1" stroke-dasharray="2,8" fill="none" id="gge5486" class="px1"/><g c_partid="part_annotation" id="gge5489" c_origin="65,155.625"><text x="65" y="155.625" stroke="none" text-anchor="end" fill="#333333" font-size="12pt">400mV</text></g><polyline points="70 261.25 1554 261.25" stroke="#333333" stroke-width="1" stroke-dasharray="2,8" fill="none" id="gge5492" class="px1"/><g c_partid="part_annotation" id="gge5495" c_origin="65,261.25"><text x="65" y="261.25" stroke="none" text-anchor="end" fill="#333333" font-size="12pt">300mV</text></g><polyline points="70 366.875 1554 366.875" stroke="#333333" stroke-width="1" stroke-dasharray="2,8" fill="none" id="gge5498" class="px1"/><g c_partid="part_annotation" id="gge5501" c_origin="65,366.875"><text x="65" y="366.875" stroke="none" text-anchor="end" fill="#333333" font-size="12pt">200mV</text></g><polyline points="70 472.5 1554 472.5" stroke="#333333" stroke-width="1" stroke-dasharray="2,8" fill="none" id="gge5504" class="px1"/><g c_partid="part_annotation" id="gge5507" c_origin="65,472.5"><text x="65" y="472.5" stroke="none" text-anchor="end" fill="#333333" font-size="12pt">100mV</text></g><polyline points="70 578.125 1554 578.125" stroke="#333333" stroke-width="1" stroke-dasharray="2,8" fill="none" id="gge5510" class="px1"/><g c_partid="part_annotation" id="gge5513" c_origin="65,578.125"><text x="65" y="578.125" stroke="none" text-anchor="end" fill="#333333" font-size="12pt">0V</text></g><polyline points="70 683.75 1554 683.75" stroke="#333333" stroke-width="1" stroke-dasharray="2,8" fill="none" id="gge5516" class="px1"/><g c_partid="part_annotation" id="gge5519" c_origin="65,683.75"><text x="65" y="683.75" stroke="none" text-anchor="end" fill="#333333" font-size="12pt">-100mV</text></g><polyline points="70 789.375 1554 789.375" stroke="#333333" stroke-width="1" stroke-dasharray="2,8" fill="none" id="gge5522" class="px1"/><g c_partid="part_annotation" id="gge5525" c_origin="65,789.375"><text x="65" y="789.375" stroke="none" text-anchor="end" fill="#333333" font-size="12pt">-200mV</text></g><polyline points="70 895 1554 895" stroke="#333333" stroke-width="1" stroke-dasharray="2,8" fill="none" id="gge5528" class="px1"/><g c_partid="part_annotation" id="gge5531" c_origin="65,895"><text x="65" y="895" stroke="none" text-anchor="end" fill="#333333" font-size="12pt">-300mV</text></g><polyline points="157.7060286 584.6724544 159.37474131 588.43608125 160.6023708 591.25495451 162.26275477 595.19316039 163.82964271 599.05416349 166.52782453 605.83688031 169.08249734 611.93588077 171.78067916 617.0624124 174.4724079 619.61900253 177.17058971 618.35727502 179.29284745 614.03483409 181.31523773 606.99450709 183.44012352 596.92178353 184.40832015 591.64351537 185.02960879 588.12861522 185.82227583 583.57441996 186.84909883 577.65558607 188.13829823 570.34867351 189.68120801 562.0016945 191.151221 554.63975541 193.4848432 544.55030051 195.98399454 536.35392532 198.68217636 530.94265426 201.38035818 529.23781592 203.98964425 531.03297544 206.63981065 536.1274771 209.33799247 544.3113923 211.68908385 553.36519944 213.3988974 560.69615447 215.39470853 569.61866219 218.09289035 581.59626538 220.57375244 591.84923882 223.27193426 601.42929062 225.41235403 607.53730308 227.66633065 612.46064889 228.75496978 614.32257916 230.36188662 616.52396995 231.81714874 617.95730371 233.45576495 618.86944546 235.17649127 618.88800385 237.23598528 617.38773958 239.28934965 613.99232184 241.48186234 608.1423794 243.67104779 600.20813179 244.84422069 595.26542253 245.6816227 591.54322319 246.85725471 586.16637442 248.84860178 576.99295659 250.94435353 567.6912336 253.29879681 558.24915055 255.68194982 550.2774515 258.26220623 543.91137125 260.96038804 540.09940741 263.65856986 539.31510729 266.30858047 541.40599868 268.92150214 545.98926685 271.61968396 552.89890975 274.31786578 561.39378522 277.01604759 570.72920548 279.71422941 580.13575886 282.27199924 588.46469271 284.97018106 596.02154878 287.66836287 601.86894529 290.36654469 605.77294115 292.49805354 607.46448017 294.85288474 607.93451312 297.35754182 606.79743043 299.56919119 604.33332328 302.01216514 600.01186452 304.2907474 594.61061426 306.4054979 588.697691 308.05066564 583.73319455 310.0353206 577.63558824 312.24997486 571.0477549 314.88243958 564.01174639 317.5806214 558.17019721 319.98836562 554.43785104 322.08471912 552.4699941 324.1861033 551.74740387 326.72327323 552.51052893 329.28155004 554.95432808 331.97973186 559.07415709 334.67791368 564.38954628 337.3760955 570.43416753 340.07427732 576.71307243 342.71913573 582.63762529 345.36813148 587.96099045 348.0663133 592.50543878 350.76449512 596.09485299 352.55232887 597.96917843 354.62595383 599.64728781 356.85571272 600.78691345 359.28902468 601.06442591 361.59265063 600.18046137 364.03929523 597.80255174 366.69886509 593.44394362 369.23471136 587.73449139 371.26026108 582.38023157 372.76406063 578.16971108 374.63953318 572.91969997 376.84449918 567.08915136 379.542681 560.94919735 382.24086282 556.32658291 384.93904464 553.51867179 387.63722645 552.6541237 390.16703783 553.58575863 392.86521964 556.27043689 395.56340146 560.41358158 398.26158328 565.63087917 400.9597651 571.49251409 403.33883069 576.87443652 405.46562836 581.68108562 407.6697348 586.63495017 408.99239788 589.63592169 410.30106501 592.67679091 411.81369702 596.31326541 414.32336244 602.57790579 417.02154426 609.26913263 419.71972608 615.10056823 422.28766238 618.8022303 424.9858442 619.49040826 427.68402602 615.78418414 429.70417782 609.72798516 431.87310438 600.26602854 433.2863797 592.80212899 434.03021636 588.61786482 434.77237347 584.36152884 435.54572193 579.89849251 436.51199994 574.36096206 437.90745283 566.59064255 439.42300943 558.64112036 441.22191195 550.12875374 443.62083532 540.76058956 446.31901713 533.40374849 449.01719895 529.70912509 451.71538077 529.69974788 454.3429158 533.09022159 457.01202646 539.70268744 459.46054312 548.14169535 461.16660602 555.03341158 463.26369551 564.16786291 465.50351219 574.22455485 467.93512086 584.85164876 470.45308886 594.87341894 473.15127068 603.85890125 475.63497073 610.20717466 477.32608628 613.47691822 478.40229055 615.15946333 479.76705376 616.87983799 481.46606626 618.35174175 483.4426896 618.99430758 485.30735293 618.33539011 487.47725832 615.70760385 489.67062284 610.79667458 491.82196372 603.80937886 493.88067741 595.48912037 494.8416751 591.21882919 495.98602603 585.97956972 497.17921741 580.45655112 499.19471419 571.32323609 501.4037195 562.02013762 503.80263772 553.28764417 506.21777667 546.39055218 508.91595849 541.33617239 511.61414031 539.28435098 514.20561954 540.14079284 516.81610036 543.62478039 519.51428218 549.62361518 522.21246399 557.50511373 524.91064581 566.56257903 527.60882763 576.02830053 530.1804475 584.74577025 532.76506055 592.59888897 535.46324237 599.30510305 538.16142419 604.14985944 540.85960601 607.02209723 542.86408991 607.89972742 545.04066511 607.64742187 547.34039708 605.9685436 549.83690509 602.45054036 552.25725396 597.41714261 554.67169864 591.0812143 556.42018892 585.92696244 558.24526352 580.32981388 560.2080408 574.35163743 562.53014411 567.71560861 565.22832593 561.07777546 567.92650775 556.02072235 570.4739675 552.97836594 572.83583756 551.78150291 575.11329378 552.11313697 577.69116815 554.13853255 580.38934997 557.89158187 583.08753178 562.9491261 585.7857136 568.85873979 588.48389542 575.12820176 591.18207724 581.27187252 593.80826652 586.72773227 596.50644834 591.50263812 599.20463016 595.32490749 601.03366422 597.38759953 603.18393714 599.28736579 605.53110795 600.65552611 607.97872739 601.12713554 610.38068625 600.40254259 612.79691775 598.25726102 615.46054128 594.11986014 617.97847634 588.62455739 620.20699793 582.80621606 621.71290849 578.59282583 623.64817905 573.16108671 625.66890666 567.76262083 628.36708848 561.48209204 631.06527029 556.681386 633.76345211 553.67636807 636.46163393 552.61234193 638.98633893 553.36553015 641.68452075 555.88575 644.38270257 559.9019252 647.08088439 565.03651604 649.77906621 570.86038583 652.47724802 576.96220102 654.50330224 581.54768131 656.64069458 586.353873 657.95338516 589.32876515 659.35693995 592.58518205 660.95062003 596.41646057 662.8668664 601.1973143 665.56504822 607.95376863 668.23341803 613.99437457 670.93159984 618.35528646 673.62978166 619.68253359 676.32796348 616.78104025 678.34380457 611.37989909 680.57343158 602.23150115 682.61710604 591.5794912 683.44142188 586.89921506 684.14071942 582.86957757 684.88187134 578.59088269 685.55546231 574.73007029 686.90264423 567.20286061 688.48700285 558.85769279 690.20766958 550.65904726 692.69535484 540.86021819 695.39353666 533.45296859 698.09171848 529.70673889 700.7899003 529.64694462 703.41886135 532.99405809 706.07866454 539.54144436 708.52516948 547.94275679 710.23474894 554.83706378 712.33609239 563.98737508 714.54443296 573.91231272 717.02830819 584.78502877 719.56944458 594.90993913 722.2676264 603.89882777 724.76699541 610.28068166 726.46047547 613.54387688 727.53914941 615.22157308 728.90610857 616.93148468 730.60420102 618.38301634 732.5747022 618.99859735 734.45061602 618.30541336 736.61198982 615.64896152 738.81031488 610.68929295 740.95889302 603.67961806 742.948241 595.6385602 743.90143018 591.41217236 745.05835077 586.12309458 746.25999573 580.56506093 748.42533424 570.77912105 750.62654935 561.56862249 753.32473117 551.97989186 755.79414372 545.32869524 758.49232554 540.78787789 761.19050736 539.26268303 763.80374076 540.62517938 766.41544423 544.56851535 769.11362605 550.95188484 771.81180787 559.09723337 774.50998969 568.28100158 777.20817151 577.7327971 779.73791723 586.18380266 782.39631687 594.01739994 785.09449869 600.37901534 787.79268051 604.8402072 790.49086233 607.32948427 792.64200866 607.9301554 794.8601664 607.25717891 797.0349193 605.27152037 799.44520722 601.50509049 801.95125773 595.96003855 804.61996397 588.64916906 806.35218116 583.4223462 808.46575381 576.94237141 810.51529935 570.87055413 813.21348117 563.7098669 815.91166299 557.95023328 818.30279559 554.32204011 820.40322969 552.4193992 822.5503022 551.76614556 825.0884144 552.63990075 827.65710527 555.19425316 830.35528709 559.39983932 833.0534689 564.77173495 835.75165072 570.84085463 838.44983254 577.11246435 841.0396234 582.88618615 843.69712449 588.18632159 846.39530631 592.68259657 849.09348812 596.22576899 850.89029465 598.08000785 852.94796738 599.71150943 855.16748059 600.8080523 857.59207226 601.03758974 859.8809494 600.11199277 862.3332728 597.67482984 864.99007178 593.26325078 867.53929819 587.47869224 869.52131413 582.22134653 871.02769952 578.0019065 872.89036654 572.79271566 875.14434939 566.85446421 877.84253121 560.76307353 880.54071303 556.20197825 883.23889485 553.46226973 885.93707666 552.66685289 888.46859065 553.66054666 891.16677247 556.40236773 893.86495428 560.58976032 896.5631361 565.83602116 899.26131792 571.71105486 901.61256714 577.03138871 903.757887 581.87780403 905.9717614 586.8550206 907.27248019 589.81048088 908.59128715 592.88194346 910.09455684 596.50534977 912.79273866 603.2502942 915.37985198 609.64777053 918.0780338 615.4012133 920.52318194 618.85721477 923.22136376 619.49868815 925.62185712 616.39339213 927.69250824 610.52131386 929.66285159 602.26231508 931.6624296 591.84940156 932.44118962 587.43565846 933.19027019 583.12210483 933.97599577 578.58497709 934.77806924 573.99248361 936.38221616 565.10883407 937.88177582 557.34299086 939.92191229 547.96308025 942.28137912 539.22849408 944.97956093 532.47459619 947.67774275 529.40757317 950.2811191 529.92853941 952.92165946 533.79332542 955.33251713 540.03158223 957.81822309 548.71646529 959.52376357 555.67217778 961.62513314 564.8746577 963.91735748 575.177052 966.35474358 585.78448758 968.92300343 595.88344258 971.35109532 603.89177068 973.87656966 610.33485536 975.49446566 613.46089075 976.57583168 615.15875998 977.96075752 616.90785979 979.64484949 618.36899977 981.61284325 619.01838477 983.46367538 618.38331996 985.64841593 615.7625231 987.83081114 610.9013903 989.98324924 603.93804861 992.08916228 595.43491977 993.05791978 591.12663737 994.19141262 585.93471933 995.37770546 580.44314721 997.29447415 571.74380647 999.50958091 562.37519643 1001.91583114 553.55728028 1004.33884075 546.57050743 1007.03702257 541.43571184 1009.73520439 539.30029884 1012.32244063 540.0755204 1014.93284521 543.48420804 1017.63102703 549.41890984 1020.32920885 557.25536644 1023.02739067 566.28993481 1025.72557248 575.75530764 1028.2997179 584.5002187 1030.88308089 592.38465629 1033.58126271 599.14027491 1036.27944452 604.03997363 1038.97762634 606.96529767 1040.97949702 607.87897275 1043.16044988 607.66536785 1045.484843 606.00241976 1047.9970975 602.48679768 1050.40751493 597.49568518 1052.81491023 591.20117024 1054.57396707 586.02838619 1056.39955132 580.43725369 1058.36713215 574.4480689 1060.68755714 567.81537596 1063.38573895 561.16854256 1066.08392077 556.09600017 1068.64139734 553.0260075 1071.00806367 551.81450971 1073.28777645 552.13557192 1075.86535933 554.14829134 1078.56354115 557.88821717 1081.26172297 562.93362855 1083.95990479 568.83297094 1086.65808661 575.09466486 1089.35626842 581.23336054 1091.98175916 586.68541337 1094.67994097 591.45914378 1097.37812279 595.27910936 1099.2178875 597.34946971 1101.3773976 599.24786062 1103.71197298 600.59835596 1106.16661903 601.06238612 1108.56836127 600.3312731 1110.99499211 598.17274053 1113.64954839 594.05332835 1116.1701434 588.56743653 1118.40961127 582.73888634 1119.92417339 578.51579885 1121.86666782 573.08594318 1123.8927229 567.70065623 1126.59090472 561.46018729 1129.28908654 556.69938046 1131.98726836 553.73078427 1134.68545018 552.69705361 1137.21048341 553.47146488 1139.90866522 556.00527819 1142.60684704 560.02519941 1145.30502886 565.15413546 1148.00321068 570.96459564 1150.7013925 577.04880246 1152.73662296 581.64245609 1154.8760315 586.44528426 1156.1746017 589.38722817 1157.59769995 592.69160764 1159.19277534 596.53232154 1161.17170734 601.47754011 1163.86988915 608.22715839 1166.56118631 614.26201547 1169.25936813 618.49559379 1171.95754995 619.62575919 1174.65573177 616.47194369 1176.66270975 610.89806122 1178.87061148 601.66801562 1180.93311107 590.82580401 1181.72782068 586.29835118 1182.44646175 582.1537138 1183.09770717 578.39487837 1183.78387155 574.46511499 1185.15620032 566.81265573 1186.74553894 558.47285769 1188.54426065 549.97744121 1191.02688842 540.35988196 1193.72507024 533.15115918 1196.42325206 529.61210334 1199.12143387 529.75450246 1201.74989371 533.2870172 1204.17004939 539.2870029 1206.67253286 547.82671162 1208.4279962 554.89908906 1210.56406886 564.20489161 1212.76292829 574.08670106 1215.24844869 584.95406821 1217.78735178 595.04739876 1220.4855336 604.0053632 1222.98783154 610.36390421 1224.64145443 613.54069647 1225.71975099 615.2184992 1227.07754815 616.91993614 1228.77514422 618.37770973 1230.74722997 619.00251759 1232.61924921 618.32126751 1234.78997364 615.66330078 1236.98040751 610.73018844 1239.13238189 603.71795842 1241.14041899 595.60005576 1242.09636247 591.35804527 1243.24599479 586.099194 1244.44238472 580.5632364 1246.54107504 571.06437642 1248.74450293 561.8124528 1251.44268474 552.16947208 1253.91849847 545.44392493 1256.61668028 540.83864308 1259.3148621 539.24862818 1261.92421722 540.54829424 1264.53589406 544.43635055 1267.23407587 550.77482451 1269.93225769 558.89121988 1272.63043951 568.06372396 1275.32862133 577.52167273 1277.85731344 585.98953565 1280.48544444 593.77638118 1283.18362626 600.20135765 1285.88180808 604.73161124 1288.57998989 607.28899147 1290.6932533 607.941872 1292.89594807 607.35634086 1295.08947095 605.43756796 1297.51308858 601.73097144 1300.00371138 596.29088887 1302.59712409 589.24831787 1304.30189119 584.12834711 1306.44759396 577.54499564 1308.41927193 571.6589516 1311.11745375 564.37864716 1313.81563557 558.45264659 1316.21339519 554.64249264 1318.3240439 552.57368244 1320.43362239 551.76579256 1322.95620478 552.42757615 1325.51422394 554.77821221 1328.21240576 558.81804661 1330.91058758 564.07707552 1333.6087694 570.09198001 1336.30695121 576.36841921 1339.00513303 582.42856378 1341.64697897 587.76428899 1344.34516079 592.34357079 1347.0433426 595.96798787 1348.83429458 597.86735614 1350.91791213 599.57833616 1353.15593301 600.7507779 1355.59588575 601.06533216 1357.92383293 600.20625631 1360.36545741 597.86871897 1363.02302311 593.55458481 1365.55547915 587.88647656 1367.61635691 582.45378651 1369.11962376 578.24792699 1371.00555075 572.96930552 1373.17510392 567.22440899 1375.87328574 561.06071855 1378.57146755 556.40623806 1381.26964937 553.56176427 1383.96783119 552.65911805 1386.49656523 553.55562069 1389.19474705 556.20697728 1391.89292887 560.32327243 1394.59111068 565.5217688 1397.2892925 571.37316361 1399.68224058 576.78363724 1401.80085557 581.57188507 1404.00109235 586.51657542 1405.33521548 589.54214657 1406.63956432 592.57076583 1408.1575214 596.217293 1410.55346234 602.19650833 1413.25164416 608.9111885 1415.94982598 614.82272668 1418.55819492 618.70343637 1421.25637674 619.55247961 1423.95455855 616.04536475 1425.97600643 610.14032802 1428.16074929 600.74046108 1429.73655723 592.43780642 1430.49687011 588.14805344 1431.22393153 583.97160014 1431.98577882 579.5734184 1432.83944725 574.67810259 1434.27579617 566.67053852 1435.82499846 558.543904 1437.63803537 549.97871567 1440.03557645 540.64576994 1442.73375826 533.32783387 1445.43194008 529.67461375 1448.1301219 529.70595515 1450.75720617 533.13353652 1453.44140457 539.82616851 1455.87526219 548.24816096 1457.56644719 555.09153478 1459.65064751 564.17635459 1461.91313206 574.33758847 1464.34186101 584.95037547 1466.8643828 594.98094678 1469.56256462 603.94909748 1472.03859088 610.26195578 1473.70605739 613.48258826 1474.78329137 615.16772852 1476.14509237 616.88550862 1477.8414601 618.3575195 1479.81885533 619.00383231 1481.67914805 618.35180919 1483.85488632 615.72316497 1486.04304656 610.83028861 1488.19534051 603.84753396 1490.26691455 595.47707215 1491.23003377 591.19618232 1492.37066122 585.9730549 1493.56141946 580.46083267 1495.54690295 571.45842444 1497.75750903 562.13506758 1500.15974469 553.37116576 1502.57830061 546.4431704 1505.27648243 541.36412684 1507.97466425 539.28684382 1510.56476315 540.1185906 1513.17523663 543.57987384 1515.87341845 549.55956635" stroke="#0000FF" stroke-width="1" fill="none" id="gge5534" class="px1"/><polyline points="157.7060286 692.56072974 159.37474131 687.14617881 160.6023708 681.4257234 162.26275477 671.28966738 163.82964271 659.11353281 166.52782453 631.97326798 169.08249734 599.11288517 171.78067916 557.61847688 174.4724079 511.26820976 177.17058971 463.31422799 179.29284745 427.50797863 181.31523773 397.77838718 183.44012352 373.87095376 184.40832015 366.05298369 185.02960879 362.19244351 185.82227583 358.63735314 186.84909883 356.35452278 188.13829823 357.20018262 189.68120801 363.51187316 191.151221 374.63134663 193.4848432 401.39275177 195.98399454 440.42992797 198.68217636 491.17187146 201.38035818 546.77811776 203.98964425 601.16737122 206.63981065 653.09845121 209.33799247 698.81291952 211.68908385 730.26208036 213.3988974 747.22165322 215.39470853 760.07482929 218.09289035 765.24150415 220.57375244 757.9207392 223.27193426 738.08611668 225.41235403 714.80376544 227.66633065 684.61915178 228.75496978 668.34483779 230.36188662 642.80913584 231.81714874 618.43530854 233.45576495 590.02804659 235.17649127 559.67265146 237.23598528 523.70774304 239.28934965 489.65391722 241.48186234 457.2381568 243.67104779 430.98196995 244.84422069 420.04063666 245.6816227 413.76160425 246.85725471 407.23035208 248.84860178 402.42016456 250.94435353 405.79851752 253.29879681 419.3295413 255.68194982 442.30170184 258.26220623 475.60642867 260.96038804 516.91718148 263.65856986 561.4931667 266.30858047 605.07898468 268.92150214 644.7749485 271.61968396 679.4862064 274.31786578 705.51966596 277.01604759 721.31425727 279.71422941 726.18850617 282.27199924 720.88725429 284.97018106 705.79058777 287.66836287 682.54472409 290.36654469 653.23557263 292.49805354 627.2357683 294.85288474 597.14399756 297.35754182 565.18505603 299.56919119 538.40513245 302.01216514 512.09712648 304.2907474 492.08133368 306.4054979 478.50146972 308.05066564 471.73492533 310.0353206 468.29784352 312.24997486 470.57850006 314.88243958 481.19692116 317.5806214 499.85647603 319.98836562 521.77630119 322.08471912 543.69182846 324.1861033 567.12355176 326.72327323 595.70862555 329.28155004 623.08198432 331.97973186 648.4222756 334.67791368 668.48996622 337.3760955 682.07150804 340.07427732 688.50872281 342.71913573 687.79514918 345.36813148 680.51959595 348.0663133 667.18184152 350.76449512 648.91468092 352.55232887 634.60285653 354.62595383 616.31763436 356.85571272 595.17207185 359.28902468 571.16746339 361.59265063 548.52455709 364.03929523 525.92315676 366.69886509 504.88306816 369.23471136 490.03720423 371.26026108 482.86772172 372.76406063 480.60837807 374.63953318 481.62676449 376.84449918 488.17229914 379.542681 503.35688934 382.24086282 525.11206755 384.93904464 551.55149889 387.63722645 580.5083255 390.16703783 607.95832252 392.86521964 635.45304759 395.56340146 659.24714651 398.26158328 677.78844886 400.9597651 689.99062059 403.33883069 695.00612564 405.46562836 694.80175547 407.6697348 689.93104816 408.99239788 684.73844085 410.30106501 677.90618783 411.81369702 667.85118312 414.32336244 645.84860577 417.02154426 614.64046162 419.71972608 575.97632274 422.28766238 533.54069606 424.9858442 485.77953583 427.68402602 438.92518175 429.70417782 407.46400997 431.87310438 380.37450386 433.2863797 367.63524841 434.03021636 362.75264738 434.77237347 359.22050339 435.54572193 356.99346991 436.51199994 356.30833278 437.90745283 359.3788249 439.42300943 367.95917043 441.22191195 384.72269523 443.62083532 416.72937967 446.31901713 463.0923022 449.01719895 516.60464435 451.71538077 572.98845427 454.3429158 626.63466944 457.01202646 675.9772298 459.46054312 713.74046713 461.16660602 734.59617879 463.26369551 753.09419845 465.50351219 763.61519481 467.93512086 764.10585354 470.45308886 753.18288338 473.15127068 730.05210035 475.63497073 700.15455718 477.32608628 676.07844496 478.40229055 659.52923083 479.76705376 637.46197854 481.46606626 608.69231403 483.4426896 574.11659574 485.30735293 541.26423612 487.47725832 504.21549788 489.67062284 469.90034123 491.82196372 441.3487184 493.88067741 420.51622748 494.8416751 413.33148913 495.98602603 407.09942926 497.17921741 403.36672712 499.19471419 403.48704214 501.4037195 412.5611571 503.80263772 432.03263098 506.21777667 460.15982472 508.91595849 499.06397545 511.61414031 542.69162732 514.20561954 585.81037678 516.81610036 627.30461196 519.51428218 665.12824297 522.21246399 695.2216581 524.91064581 715.66178946 527.60882763 725.37458628 530.1804475 724.46256579 532.76506055 714.11057305 535.46324237 694.52261434 538.16142419 667.83725711 540.85960601 636.27037791 542.86408991 610.95362222 545.04066511 582.93873173 547.34039708 554.02721711 549.83690509 525.11873381 552.25725396 501.25060515 554.67169864 483.11820504 556.42018892 474.22009882 558.24526352 469.13248051 560.2080408 468.58135661 562.53014411 474.34676006 565.22832593 488.99619847 567.92650775 510.77221457 570.4739675 536.12636495 572.83583756 562.11135369 575.11329378 587.88082199 577.69116815 616.05535257 580.38934997 642.49032149 583.08753178 664.0382673 585.7857136 679.35311498 588.48389542 687.63226229 591.18207724 688.64503949 593.80826652 682.94252009 596.50644834 670.95392541 599.20463016 653.7656593 601.03366422 639.68590761 603.18393714 621.19244924 605.53110795 599.21456353 607.97872739 575.14185981 610.38068625 551.42246833 612.79691775 528.78788262 615.46054128 507.1091477 617.97847634 491.54984588 620.20699793 483.04215412 621.71290849 480.50380611 623.64817905 481.27385791 625.66890666 486.86215278 628.36708848 501.31591139 631.06527029 522.51893426 633.76345211 548.62139563 636.46163393 577.47205476 638.98633893 604.97549237 641.68452075 632.79124253 644.38270257 657.0836453 647.08088439 676.2542039 649.77906621 689.16466857 652.47724802 695.17021754 654.50330224 694.99683744 656.64069458 690.46549627 657.95338516 685.47833823 659.35693995 678.2706498 660.95062003 667.67283162 662.8668664 651.40070687 665.56504822 621.7747832 668.23341803 584.98452995 670.93159984 541.39166184 673.62978166 493.9021991 676.32796348 446.51149953 678.34380457 414.08986279 680.57343158 384.61387633 682.61710604 365.89248938 683.44142188 360.9970973 684.14071942 358.15093852 684.88187134 356.46540882 685.55546231 356.1244214 686.90264423 358.79783342 688.48700285 367.47710908 690.20766958 383.22295333 692.69535484 416.05907969 695.39353666 462.32549407 698.09171848 515.80057951 700.7899003 572.20678859 703.41886135 625.95792509 706.07866454 675.26812929 708.52516948 713.18478413 710.23474894 734.22732482 712.33609239 752.93356874 714.54443296 763.54385503 717.02830819 764.25186723 719.56944458 753.24705797 722.2676264 730.07237199 724.76699541 699.92372211 726.46047547 675.76042807 727.53914941 659.14150121 728.90610857 637.00263272 730.60420102 608.21439019 732.5747022 573.72581095 734.45061602 540.67977379 736.61198982 503.81048308 738.81031488 469.48919164 740.95889302 441.07815466 742.948241 420.93885636 743.90143018 413.74366101 745.05835077 407.36037508 746.25999573 403.53652469 748.42533424 403.87483308 750.62654935 413.40231126 753.32473117 436.3737747 755.79414372 466.47499709 758.49232554 506.41718792 761.19050736 550.47900542 763.80374076 593.79502115 766.41544423 634.59141195 769.11362605 671.16466408 771.81180787 699.60577166 774.50998969 718.13905511 777.20817151 725.8522387 779.73791723 723.2121324 782.39631687 710.87578445 785.09449869 689.76739217 787.79268051 661.97888347 790.49086233 629.75647155 792.64200866 602.36502182 794.8601664 573.90770033 797.0349193 547.0017335 799.44520722 519.8755667 801.95125773 496.39879533 804.61996397 478.54063145 806.35218116 471.55068116 808.46575381 468.351813 810.51529935 470.85299697 813.21348117 482.02576774 815.91166299 501.00553379 818.30279559 522.96281059 820.40322969 545.00989523 822.5503022 568.9822945 825.0884144 597.51807374 827.65710527 624.81726786 830.35528709 649.84422705 833.0534689 669.50990435 835.75165072 682.63595499 838.44983254 688.60147952 841.0396234 687.53459849 843.69712449 679.95556159 846.39530631 666.37366719 849.09348812 647.91791657 850.89029465 633.43479501 852.94796738 615.20604534 855.16748059 594.10954129 857.59207226 570.18498696 859.8809494 547.72510801 862.3332728 525.16483787 864.99007178 504.31258492 867.53929819 489.6201111 869.52131413 482.77883164 871.02769952 480.62166414 872.89036654 481.75277129 875.14434939 488.62429117 877.84253121 504.06371941 880.54071303 526.01201215 883.23889485 552.57018265 885.93707666 581.56584321 888.46859065 608.99830152 891.16677247 636.38350206 893.86495428 660.00642712 896.5631361 678.33086756 899.26131792 690.28842314 901.61256714 695.05458501 903.757887 694.68389001 905.9717614 689.5923024 907.27248019 684.37570685 908.59128715 677.38371292 910.09455684 667.26382535 912.79273866 643.10692708 915.37985198 612.59317579 918.0780338 573.51861405 920.52318194 532.91119338 923.22136376 485.10421381 925.62185712 443.13654146 927.69250824 410.32730014 929.66285159 384.59713921 931.6624296 366.1513236 932.44118962 361.392442 933.19027019 358.21642645 933.97599577 356.38723658 934.77806924 356.11108417 936.38221616 360.29195717 937.88177582 369.70216148 939.92191229 390.2937092 942.28137912 423.75160343 944.97956093 471.66564357 947.67774275 526.01666752 950.2811191 580.56267606 952.92165946 634.0315022 955.33251713 678.11405123 957.81822309 715.98825477 959.52376357 736.40293218 961.62513314 754.33695191 963.91735748 764.28370306 966.35474358 763.77328121 968.92300343 751.5296589 971.35109532 730.15180561 973.87656966 699.66144968 975.49446566 676.58836261 976.57583168 659.96503423 977.96075752 637.5641644 979.64484949 609.03108394 981.61284325 574.59053983 983.46367538 541.95669637 985.64841593 504.6109316 987.83081114 470.39702646 989.98324924 441.72767229 992.08916228 420.38523631 993.05791978 413.17245466 994.19141262 407.03266114 995.37770546 403.33640281 997.29447415 403.27948559 999.50958091 411.99953074 1001.91583114 431.19427087 1004.33884075 459.16473541 1007.03702257 497.89039486 1009.73520439 541.43455613 1012.32244063 584.49483424 1014.93284521 626.08939972 1017.63102703 664.10194571 1020.32920885 694.45170551 1023.02739067 715.19216107 1025.72557248 725.22322256 1028.2997179 724.60256687 1030.88308089 714.51917225 1033.58126271 695.16188342 1036.27944452 668.64739844 1038.97762634 637.18796551 1040.97949702 611.94487359 1043.16044988 583.88243654 1045.484843 554.64134909 1047.9970975 525.51716669 1050.40751493 501.69134484 1052.81491023 483.51303101 1054.57396707 474.47941378 1056.39955132 469.3094017 1058.36713215 468.67090229 1060.68755714 474.33343163 1063.38573895 488.86999745 1066.08392077 510.54618373 1068.64139734 535.92905629 1071.00806367 561.92320574 1073.28777645 587.68878523 1075.86535933 615.83979155 1078.56354115 642.2684983 1081.26172297 663.82510707 1083.95990479 679.16204927 1086.65808661 687.47430138 1089.35626842 688.52816063 1091.98175916 682.87260507 1094.67994097 670.93387132 1097.37812279 653.79726757 1099.2178875 639.66743161 1101.3773976 621.12890611 1103.71197298 599.31570778 1106.16661903 575.23678725 1108.56836127 551.58879964 1110.99499211 528.93766299 1113.64954839 507.42008538 1116.1701434 491.914632 1118.40961127 483.42895095 1119.92417339 480.92609287 1121.86666782 481.76721162 1123.8927229 487.43559462 1126.59090472 501.94601078 1129.28908654 523.15901956 1131.98726836 549.22628546 1134.68545018 578.00165958 1137.21048341 605.40870122 1139.90866522 633.09557294 1142.60684704 657.24706414 1145.30502886 676.27599019 1148.00321068 689.05442454 1150.7013925 694.94519669 1152.73662296 694.68871746 1154.8760315 690.06540713 1156.1746017 685.08965112 1157.59769995 677.7314623 1159.19277534 667.04902942 1161.17170734 650.077015 1163.86988915 620.12751261 1166.56118631 582.69596469 1169.25936813 538.84112646 1171.95754995 491.26501807 1174.65573177 444.03849396 1176.66270975 412.06383443 1178.87061148 383.33998646 1180.93311107 365.01513004 1181.72782068 360.52537433 1182.44646175 357.80452533 1183.09770717 356.45212959 1183.78387155 356.17381709 1185.15620032 359.0944763 1186.74553894 368.07342175 1188.54426065 384.96260602 1191.02688842 418.39712314 1193.72507024 465.16945289 1196.42325206 518.91566215 1199.12143387 575.35343454 1201.74989371 628.90297138 1204.17004939 673.75851785 1206.67253286 712.73260998 1208.4279962 734.35901924 1210.56406886 753.24617074 1212.76292829 763.6244542 1215.24844869 764.14594439 1217.78735178 752.97819263 1220.4855336 729.65518427 1222.98783154 699.36259205 1224.64145443 675.73751636 1225.71975099 659.12601297 1227.07754815 637.14038799 1228.77514422 608.36801683 1230.74722997 573.85398349 1232.61924921 540.87059041 1234.78997364 503.82958921 1236.98040751 469.6070821 1239.13238189 441.11597533 1241.14041899 420.78731153 1242.09636247 413.58980071 1243.24599479 407.2655232 1244.44238472 403.4646231 1246.54107504 403.66117096 1248.74450293 412.93997485 1251.44268474 435.64819872 1253.91849847 465.65333578 1256.61668028 505.48628217 1259.3148621 549.51415543 1261.92421722 592.80538306 1264.53589406 633.70862972 1267.23407587 670.45350575 1269.93225769 699.11244768 1272.63043951 717.89049283 1275.32862133 725.85479604 1277.85731344 723.44136718 1280.48544444 711.50100342 1283.18362626 690.64907033 1285.88180808 663.04086735 1288.57998989 630.9184972 1290.6932533 604.03458366 1292.89594807 575.73873507 1295.08947095 548.4910165 1297.51308858 521.02517803 1300.00371138 497.40701307 1302.59712409 479.54338067 1304.30189119 472.18782497 1306.44759396 468.33226593 1308.41927193 470.13676046 1311.11745375 480.43641353 1313.81563557 498.70092517 1316.21339519 520.25937342 1318.3240439 542.16677066 1320.43362239 565.61825431 1322.95620478 594.05543106 1325.51422394 621.55130882 1328.21240576 647.12824479 1330.91058758 667.51671928 1333.6087694 681.47443849 1336.30695121 688.31188997 1339.00513303 687.91010455 1341.64697897 680.89115565 1344.34516079 667.76933461 1347.0433426 649.67732643 1348.83429458 635.43319024 1350.91791213 617.14142322 1353.15593301 595.97374689 1355.59588575 571.9291186 1357.92383293 549.04029122 1360.36545741 526.44360009 1363.02302311 505.32581486 1365.55547915 490.36262401 1367.61635691 482.97054409 1369.11962376 480.66329183 1371.00555075 481.63536473 1373.17510392 487.98752078 1375.87328574 503.02357857 1378.57146755 524.66109648 1381.26964937 551.02187651 1383.96783119 579.94329226 1386.49656523 607.38862611 1389.19474705 634.93149923 1391.89292887 658.81010181 1394.59111068 677.46410706 1397.2892925 689.79759417 1399.68224058 694.95057505 1401.80085557 694.83866394 1404.00109235 690.08470536 1405.33521548 684.90802361 1406.63956432 678.15418334 1408.1575214 668.12946628 1410.55346234 647.37051401 1413.25164416 616.59736487 1415.94982598 578.31875858 1418.55819492 535.45023341 1421.25637674 487.74152204 1423.95455855 440.73754477 1425.97600643 408.99248721 1428.16074929 381.31276433 1429.73655723 367.07492197 1430.49687011 362.21872332 1431.22393153 358.89234336 1431.98577882 356.8160301 1432.83944725 356.21160632 1434.27579617 359.24690472 1435.82499846 368.023406 1437.63803537 385.01824504 1440.03557645 417.14944587 1442.73375826 463.63105912 1445.43194008 517.2157717 1448.1301219 573.62394151 1450.75720617 627.24014052 1453.44140457 676.77320304 1455.87526219 714.19592807 1457.56644719 734.81187634 1459.65064751 753.16744573 1461.91313206 763.7360035 1464.34186101 764.11454687 1466.8643828 753.05754356 1469.56256462 729.80808438 1472.03859088 699.92226294 1473.70605739 676.16039753 1474.78329137 659.59230081 1476.14509237 637.56905152 1477.8414601 608.84042002 1479.81885533 574.24532229 1481.67914805 541.46056043 1483.85488632 504.29839849 1486.04304656 470.04265866 1488.19534051 441.44650283 1490.26691455 420.47254182 1491.23003377 413.27893651 1492.37066122 407.07417048 1493.56141946 403.34956928 1495.54690295 403.40723276 1497.75750903 412.36577694 1500.15974469 431.75740213 1502.57830061 459.84915268 1505.27648243 498.70156175 1507.97466425 542.30653998 1510.56476315 585.40866151 1513.17523663 626.93623793 1515.87341845 664.81969495" stroke="#00FF00" stroke-width="1" fill="none" id="gge5537" class="px1"/><polyline points="157.7060286 233.74378167 159.37474131 201.12946802 160.6023708 178.19249895 162.26275477 149.26973288 163.82964271 124.80261623 166.52782453 91.37491765 169.08249734 72.42896862 171.78067916 69.23934568 174.4724079 86.10253664 177.17058971 124.85867392 179.29284745 170.83408854 181.31523773 226.43023333 183.44012352 295.25834707 184.40832015 329.49871551 185.02960879 352.17646581 185.82227583 381.71426725 186.84909883 420.65842445 188.13829823 469.97611358 189.68120801 528.42502048 191.151221 582.26575837 193.4848432 660.75368196 195.98399454 731.33903913 198.68217636 787.21573489 201.38035818 818.63673288 203.98964425 824.27157829 206.63981065 805.41868049 209.33799247 762.95687201 211.68908385 709.69787179 213.3988974 663.40244655 215.39470853 603.73402871 218.09289035 518.00084981 220.57375244 438.77485494 223.27193426 358.09777969 225.41235403 301.54899742 227.66633065 252.02152232 228.75496978 232.34682388 230.36188662 208.9966688 231.81714874 194.02698847 233.45576495 184.56522702 235.17649127 183.31844862 237.23598528 193.64241054 239.28934965 216.4823464 241.48186234 253.74945743 243.67104779 302.51054716 244.84422069 332.63790638 245.6816227 355.49583746 246.85725471 389.04875965 248.84860178 448.27449436 250.94435353 511.46261177 253.29879681 579.70581347 255.68194982 641.92515445 258.26220623 697.34088656 260.96038804 738.34770839 263.65856986 759.55772212 266.30858047 760.18729474 268.92150214 741.77512519 271.61968396 704.97595406 274.31786578 653.40826171 277.01604759 591.3701294 279.71422941 523.74197397 282.27199924 459.02419581 284.97018106 394.83564636 287.66836287 339.01403539 290.36654469 295.02163121 292.49805354 270.25101569 294.85288474 254.19343849 297.35754182 250.53611036 299.56919119 258.62883108 302.01216514 279.00694247 304.2907474 307.4596485 306.4054979 340.36299393 308.05066564 369.1215216 310.0353206 405.8987804 312.24997486 447.59158658 314.88243958 494.77560697 317.5806214 536.86131714 319.98836562 566.34573678 322.08471912 584.27524425 324.1861033 594.11588546 326.72327323 594.61336938 329.28155004 582.64312945 331.97973186 557.48137814 334.67791368 521.36388686 337.3760955 476.9461918 340.07427732 427.35878955 342.71913573 376.94934295 345.36813148 327.83068624 348.0663133 282.19438531 350.76449512 243.58118966 352.55232887 222.86784498 354.62595383 204.55811619 356.85571272 192.35088269 359.28902468 188.44495872 361.59265063 194.03003886 364.03929523 209.62556152 366.69886509 236.86204201 369.23471136 271.07589562 371.26026108 302.59798442 372.76406063 327.44420587 374.63953318 358.90507873 376.84449918 394.82998869 379.542681 434.23123294 382.24086282 465.483463 384.93904464 485.82845039 387.63722645 493.43429933 390.16703783 488.25596222 392.86521964 469.79860238 395.56340146 439.12547985 398.26158328 398.21579491 400.9597651 349.69665812 403.33883069 302.97987662 405.46562836 260.01403138 407.6697348 216.13637253 408.99239788 190.79699684 410.30106501 166.9627911 411.81369702 141.46255238 414.32336244 105.70958128 417.02154426 79.10815857 419.71972608 68.23393907 422.28766238 75.44700387 424.9858442 103.79826973 427.68402602 154.25397661 429.70417782 205.97099604 431.87310438 272.98464628 433.2863797 321.88485089 434.03021636 348.88064001 434.77237347 376.44750238 435.54572193 405.66119782 436.51199994 442.55304683 437.90745283 495.83261223 439.42300943 552.54880923 441.22191195 616.40289304 443.62083532 692.13788777 446.31901713 759.78170644 449.01719895 804.63746764 451.71538077 824.07494594 454.3429158 817.93978556 457.01202646 787.59408256 459.46054312 740.80300161 461.16660602 699.18016504 463.26369551 640.3872601 465.50351219 571.32656873 467.93512086 493.26222532 470.45308886 413.88018895 473.15127068 335.94992246 475.63497073 275.00224475 477.32608628 241.12945809 478.40229055 223.25845127 479.76705376 205.06766975 481.46606626 189.78082615 483.4426896 182.72118132 485.30735293 186.89674127 487.47725832 204.9363052 489.67062284 236.92005285 491.82196372 280.35453012 493.88067741 331.17753509 494.8416751 357.40690335 495.98602603 390.13081045 497.17921741 425.47398904 499.19471419 486.25797326 501.4037195 551.76004666 503.80263772 617.66267022 506.21777667 674.68352609 508.91595849 723.2857852 511.61414031 752.97592962 514.20561954 762.15120975 516.81610036 752.1718814 519.51428218 723.01051571 522.21246399 677.47497476 524.91064581 619.48220779 527.60882763 553.70387664 530.1804475 488.33547669 532.76506055 424.48303886 535.46324237 364.18531927 538.16142419 314.17967702 540.85960601 277.41123638 542.86408991 259.80952405 545.04066511 250.6825615 547.34039708 252.39220342 549.83690509 266.89322834 552.25725396 292.28779002 554.67169864 326.79017327 556.42018892 356.16140332 558.24526352 389.32148693 560.2080408 426.28790908 562.53014411 469.42926522 565.22832593 515.36072836 567.92650775 553.30300716 570.4739675 579.08866623 572.83583756 592.69163113 575.11329378 595.67287849 577.69116815 586.96123485 580.38934997 564.89729149 583.08753178 531.30440909 585.7857136 488.68011998 588.48389542 440.06048169 591.18207724 388.76322837 593.80826652 339.43019851 596.50644834 292.44314639 599.20463016 251.89613605 601.03366422 229.17711392 603.18393714 208.37597664 605.53110795 193.73976184 607.97872739 188.12231395 610.38068625 192.51262901 612.79691775 206.68892093 615.46054128 232.75097216 617.97847634 265.85003379 620.20699793 300.16125774 621.71290849 325.01366806 623.64817905 357.53425402 625.66890666 390.71873229 628.36708848 430.84974558 631.06527029 463.14349043 633.76345211 484.75258797 636.46163393 493.74209179 638.98633893 489.894919 641.68452075 472.77600664 644.38270257 443.26262674 647.08088439 403.25891017 649.77906621 355.33944751 652.47724802 302.53190587 654.50330224 261.54041547 656.64069458 218.86908546 657.95338516 193.58810517 659.35693995 167.90085166 660.95062003 141.00822816 662.8668664 112.85879387 665.56504822 83.41980947 668.23341803 69.05318944 670.93159984 72.7790842 673.62978166 97.43032031 676.32796348 144.18675151 678.34380457 193.23974412 680.57343158 259.90903071 682.61710604 330.15859001 683.44142188 360.35898009 684.14071942 386.53702958 684.88187134 414.66893682 685.55546231 440.43706437 686.90264423 491.94175086 688.48700285 551.35735784 690.20766958 612.70816573 692.69535484 691.68652598 695.39353666 759.6585826 698.09171848 804.8779388 700.7899003 824.6866361 703.41886135 818.88486503 706.07866454 788.97339004 708.52516948 742.50102051 710.23474894 700.938984 712.33609239 642.13494867 714.54443296 574.10586586 717.02830819 494.36222027 719.56944458 414.20490563 722.2676264 336.25177478 724.76699541 274.96052198 726.46047547 241.11678495 727.53914941 223.26819482 728.90610857 205.14548778 730.60420102 190.00185753 732.5747022 183.11045653 734.45061602 187.46957154 736.61198982 205.62548792 738.81031488 237.84198458 740.95889302 281.35507529 742.948241 330.43898423 743.90143018 356.38164737 745.05835077 389.39195492 746.25999573 424.93622548 748.42533424 490.14989554 750.62654935 555.22180947 753.32473117 628.21396062 755.79414372 684.3373273 758.49232554 729.82538008 761.19050736 756.01573956 763.80374076 761.69498048 766.41544423 748.21440155 769.11362605 715.85944309 771.81180787 667.77907864 774.50998969 608.05249251 777.20817151 541.44392309 779.73791723 477.18520062 782.39631687 412.42041988 785.09449869 353.87884871 787.79268051 306.27057815 790.49086233 272.33913763 792.64200866 256.23875478 794.8601664 250.31857294 797.0349193 254.98208335 799.44520722 271.5933601 801.95125773 300.16196671 804.61996397 340.62812942 806.35218116 370.93976946 808.46575381 410.16219148 810.51529935 448.71625405 813.21348117 496.84131724 815.91166299 538.48860091 818.30279559 567.30022868 820.40322969 584.81633058 822.5503022 594.28365548 825.0884144 593.97261292 827.65710527 581.15385603 830.35528709 555.23408655 833.0534689 518.51909786 835.75165072 473.70000164 838.44983254 423.92617462 841.0396234 374.57800459 843.69712449 325.4714669 846.39530631 280.13817918 849.09348812 241.93231142 850.89029465 221.44366422 852.94796738 203.67359778 855.16748059 191.93545507 857.59207226 188.47107689 859.8809494 194.37528463 862.3332728 210.34371796 864.99007178 237.86894501 867.53929819 272.49772486 869.52131413 303.44150717 871.02769952 328.34783823 872.89036654 359.57995107 875.14434939 396.20368451 877.84253121 435.35272683 880.54071303 466.24395176 883.23889485 486.14994051 885.93707666 493.27443957 888.46859065 487.63128936 891.16677247 468.7068917 893.86495428 437.6278873 896.5631361 396.39959365 899.26131792 347.66758522 901.61256714 301.41367226 903.757887 258.07536522 905.9717614 214.0769839 907.27248019 189.22892711 908.59128715 165.30311372 910.09455684 140.09545986 912.79273866 102.39549871 915.37985198 77.91479461 918.0780338 68.06000691 920.52318194 75.56485318 923.22136376 104.21663424 925.62185712 148.35243563 927.69250824 200.05236327 929.66285159 259.63896086 931.6624296 328.3197525 932.44118962 356.7980852 933.19027019 384.80191117 933.97599577 414.62318271 934.77806924 445.32193919 936.38221616 506.51719893 937.88177582 562.35669316 939.92191229 633.59788706 942.28137912 705.66063701 944.97956093 769.77666518 947.67774275 810.49766597 950.2811191 825.44227202 952.92165946 815.83027372 955.33251713 786.40047862 957.81822309 737.92519412 959.52376357 695.68724823 961.62513314 636.17854597 963.91735748 565.0653937 966.35474358 486.67340401 968.92300343 406.06813662 971.35109532 336.225499 973.87656966 274.33179028 975.49446566 241.92052782 976.57583168 223.8760944 977.96075752 205.35164386 979.64484949 190.13388078 981.61284325 182.96594024 983.46367538 186.9224374 985.64841593 204.87700249 987.83081114 236.52759042 989.98324924 279.81378144 992.08916228 331.75453511 993.05791978 358.2220643 994.19141262 390.65985761 995.37770546 425.80970493 997.29447415 483.64333496 999.50958091 549.44652715 1001.91583114 615.81767231 1004.33884075 673.39062145 1007.03702257 722.48596751 1009.73520439 752.73698616 1012.32244063 762.47324437 1014.93284521 753.07215014 1017.63102703 724.44658043 1020.32920885 679.3477002 1023.02739067 621.66499657 1025.72557248 556.05390109 1028.2997179 490.6445354 1030.88308089 426.71916964 1033.58126271 366.19329148 1036.27944452 315.86153824 1038.97762634 278.6979351 1040.97949702 260.79215081 1043.16044988 251.28314216 1045.484843 252.69710977 1047.9970975 267.06755923 1050.40751493 292.17924105 1052.81491023 326.40002928 1054.57396707 355.84355085 1056.39955132 388.93835854 1058.36713215 425.94386132 1060.68755714 469.03177385 1063.38573895 514.98777262 1066.08392077 553.00512684 1068.64139734 578.98072191 1071.00806367 592.68706803 1073.28777645 595.74408155 1075.86535933 587.12275996 1078.56354115 565.16031943 1081.26172297 531.66942142 1083.95990479 489.14088726 1086.65808661 440.60491079 1089.35626842 389.37457311 1091.98175916 340.10014193 1094.67994097 293.13740264 1097.37812279 252.59119978 1099.2178875 229.73909386 1101.3773976 208.86633891 1103.71197298 194.30446764 1106.16661903 188.63395456 1108.56836127 192.97475825 1110.99499211 207.15175709 1113.64954839 233.02586952 1116.1701434 266.01782 1118.40961127 300.35671175 1119.92417339 325.24957741 1121.86666782 357.74270119 1123.8927229 390.83254354 1126.59090472 430.6869646 1129.28908654 462.68527092 1131.98726836 484.00160789 1134.68545018 492.72130463 1137.21048341 488.65653944 1139.90866522 471.35663967 1142.60684704 441.72433262 1145.30502886 401.66751744 1148.00321068 353.75949346 1150.7013925 301.022323 1152.73662296 259.93347867 1154.8760315 217.34686669 1156.1746017 192.4232244 1157.59769995 166.48861904 1159.19277534 139.72698451 1161.17170734 110.97698682 1163.86988915 82.2059742 1166.56118631 68.60633972 1169.25936813 73.43986994 1171.95754995 99.29277525 1174.65573177 147.25167118 1176.66270975 196.89223814 1178.87061148 263.57752012 1180.93311107 334.8983882 1181.72782068 364.12240463 1182.44646175 391.08960037 1183.09770717 415.83832516 1183.78387155 442.09035217 1185.15620032 494.52954844 1186.74553894 554.02887935 1188.54426065 617.83061222 1191.02688842 695.82111135 1193.72507024 762.6204134 1196.42325206 806.46932413 1199.12143387 824.82072218 1201.74989371 817.6232217 1204.17004939 790.10547352 1206.67253286 743.00751017 1208.4279962 700.3797459 1210.56406886 640.51284925 1212.76292829 572.68800228 1215.24844869 492.88359011 1217.78735178 412.86673651 1220.4855336 335.06320023 1222.98783154 273.90433695 1224.64145443 240.93831215 1225.71975099 223.09970531 1227.07754815 205.08449311 1228.77514422 189.90310541 1230.74722997 182.95835818 1232.61924921 187.25638714 1234.78997364 205.45056911 1236.98040751 237.52365958 1239.13238189 281.07391088 1241.14041899 330.63864625 1242.09636247 356.6827945 1243.24599479 389.5111347 1244.44238472 424.91764835 1246.54107504 488.166437 1248.74450293 553.41405515 1251.44268474 626.66439863 1253.91849847 683.25194574 1256.61668028 729.140972 1259.3148621 755.770977 1261.92421722 761.88525859 1264.53589406 748.83488504 1267.23407587 716.86355232 1269.93225769 669.07925067 1272.63043951 609.54284685 1275.32862133 543.00940816 1277.85731344 478.74282088 1280.48544444 414.53953007 1283.18362626 355.66461586 1285.88180808 307.61579203 1288.57998989 273.1731724 1290.6932533 256.84144101 1292.89594807 250.29413681 1295.08947095 254.36102875 1297.51308858 270.49799141 1300.00371138 298.40578836 1302.59712409 337.24329632 1304.30189119 366.79936714 1306.44759396 406.46055985 1308.41927193 443.63261051 1311.11745375 492.23344839 1313.81563557 534.73806091 1316.21339519 564.63482205 1318.3240439 583.23039 1320.43362239 593.65677897 1322.95620478 594.84107138 1325.51422394 583.58454039 1328.21240576 559.09791224 1330.91058758 523.53148789 1333.6087694 479.50632784 1336.30695121 430.13217912 1339.00513303 378.74839693 1341.64697897 329.66778849 1344.34516079 283.82286127 1347.0433426 244.90735522 1348.83429458 223.91823618 1350.91791213 205.22864086 1353.15593301 192.66625501 1355.59588575 188.42224469 1357.92383293 193.80903776 1360.36545741 209.15102873 1363.02302311 236.13897513 1365.55547915 270.12897292 1367.61635691 302.11755663 1369.11962376 326.93102049 1371.00555075 358.55323783 1373.17510392 393.92795668 1375.87328574 433.43952172 1378.57146755 464.86631406 1381.26964937 485.43440773 1383.96783119 493.29299825 1386.49656523 488.36529593 1389.19474705 470.16571369 1391.89292887 439.72196863 1394.59111068 398.99766216 1397.2892925 350.6082778 1399.68224058 303.67771257 1401.80085557 260.88684469 1404.00109235 217.05742114 1405.33521548 191.46560881 1406.63956432 167.66706017 1408.1575214 142.01286634 1410.55346234 107.52573348 1413.25164416 80.14619598 1415.94982598 68.29879126 1418.55819492 74.68544477 1421.25637674 102.13894155 1423.95455855 151.70421351 1425.97600643 202.85070304 1428.16074929 269.85690799 1429.73655723 324.32697021 1430.49687011 352.00168343 1431.22393153 379.07098981 1431.98577882 407.89189947 1432.83944725 440.50456822 1434.27579617 495.36504276 1435.82499846 553.3497958 1437.63803537 617.6563735 1440.03557645 693.20967132 1442.73375826 760.63822071 1445.43194008 805.23093203 1448.1301219 824.37955375 1450.75720617 817.96238771 1453.44140457 787.11394979 1455.87526219 740.33186788 1457.56644719 698.96993705 1459.65064751 640.48436261 1461.91313206 570.68263757 1464.34186101 492.6756475 1466.8643828 413.16733968 1469.56256462 335.31488085 1472.03859088 274.65184673 1473.70605739 241.27276133 1474.78329137 223.37098778 1476.14509237 205.19943247 1477.8414601 189.89876046 1479.81885533 182.78872987 1481.67914805 186.90163285 1483.85488632 204.9362587 1486.04304656 236.79997381 1488.19534051 280.20669796 1490.26691455 331.33668289 1491.23003377 357.63245383 1492.37066122 390.25802067 1493.56141946 425.53352946 1495.54690295 485.42463681 1497.75750903 551.01803055 1500.15974469 617.10185785 1502.57830061 674.32050065 1505.27648243 723.07605475 1507.97466425 752.93889601 1510.56476315 762.28583191 1513.17523663 752.48258115 1515.87341845 723.4832183" stroke="#FF0000" stroke-width="1" fill="none" id="gge5540" class="px1"/></g></svg>