<svg id="root" width="1624" height="930" style="left:0;top:0" viewBox="0 0 1624 930" preserveAspectRatio="xMinYMin" xmlns="http://www.w3.org/2000/svg" xmlns:xlink="http://www.w3.org/1999/xlink" xmlns:c="http://www.easyeda.com/" class="bw-electron"><g id="g1" c_spicecmd="TRAN`1u`1m`0`{AC`dec`10`1Hz`1Meg`{DC`0``0`0`{TF```" xmlns="http://www.w3.org/2000/svg" c_spiceCmd="null" importFlag="0"><rect x="0" y="0" width="1624" height="930" stroke="#FFFFFF" stroke-width="1" id="gge3899" fill="#FFFFFF"/><g c_partid="part_annotation" id="gge3902" c_origin="20,30"><text x="20" y="30" stroke="none" text-anchor="start" fill="#0000FF" font-size="12pt">V(volprobe3)</text></g><g c_partid="part_annotation" id="gge3905" c_origin="561.3333333333334,30"><text x="561.3333333333334" y="30" stroke="none" text-anchor="start" fill="#00FF00" font-size="12pt">V(volprobe2)</text></g><g c_partid="part_annotation" id="gge3908" c_origin="1102.6666666666667,30"><text x="1102.6666666666667" y="30" stroke="none" text-anchor="start" fill="#FF0000" font-size="12pt">V(volprobe1)</text></g><rect x="70" y="50" width="1484" height="845" id="gge3911" stroke="#333333" stroke-width="1" fill="#FFFFFF"/><g c_partid="part_annotation" id="gge3914" c_origin="70,912"><text x="70" y="912" stroke="none" text-anchor="middle" fill="#333333" font-size="12pt">1.55ms</text></g><polyline points="157.29411764705884 50 157.29411764705884 895" stroke="#333333" stroke-width="1" stroke-dasharray="2,8" fill="none" id="gge3917" class="px1"/><g c_partid="part_annotation" id="gge3920" c_origin="157.29411764705884,912"><text x="157.29411764705884" y="912" stroke="none" text-anchor="middle" fill="#333333" font-size="12pt">1.6ms</text></g><polyline points="244.58823529411765 50 244.58823529411765 895" stroke="#333333" stroke-width="1" stroke-dasharray="2,8" fill="none" id="gge3923" class="px1"/><g c_partid="part_annotation" id="gge3926" c_origin="244.58823529411765,912"><text x="244.58823529411765" y="912" stroke="none" text-anchor="middle" fill="#333333" font-size="12pt">1.65ms</text></g><polyline points="331.88235294117646 50 331.88235294117646 895" stroke="#333333" stroke-width="1" stroke-dasharray="2,8" fill="none" id="gge3929" class="px1"/><g c_partid="part_annotation" id="gge3932" c_origin="331.88235294117646,912"><text x="331.88235294117646" y="912" stroke="none" text-anchor="middle" fill="#333333" font-size="12pt">1.7ms</text></g><polyline points="419.1764705882353 50 419.1764705882353 895" stroke="#333333" stroke-width="1" stroke-dasharray="2,8" fill="none" id="gge3935" class="px1"/><g c_partid="part_annotation" id="gge3938" c_origin="419.1764705882353,912"><text x="419.1764705882353" y="912" stroke="none" text-anchor="middle" fill="#333333" font-size="12pt">1.75ms</text></g><polyline points="506.47058823529414 50 506.47058823529414 895" stroke="#333333" stroke-width="1" stroke-dasharray="2,8" fill="none" id="gge3941" class="px1"/><g c_partid="part_annotation" id="gge3944" c_origin="506.47058823529414,912"><text x="506.47058823529414" y="912" stroke="none" text-anchor="middle" fill="#333333" font-size="12pt">1.8ms</text></g><polyline points="593.7647058823529 50 593.7647058823529 895" stroke="#333333" stroke-width="1" stroke-dasharray="2,8" fill="none" id="gge3947" class="px1"/><g c_partid="part_annotation" id="gge3950" c_origin="593.7647058823529,912"><text x="593.7647058823529" y="912" stroke="none" text-anchor="middle" fill="#333333" font-size="12pt">1.85ms</text></g><polyline points="681.0588235294118 50 681.0588235294118 895" stroke="#333333" stroke-width="1" stroke-dasharray="2,8" fill="none" id="gge3953" class="px1"/><g c_partid="part_annotation" id="gge3956" c_origin="681.0588235294118,912"><text x="681.0588235294118" y="912" stroke="none" text-anchor="middle" fill="#333333" font-size="12pt">1.9ms</text></g><polyline points="768.3529411764706 50 768.3529411764706 895" stroke="#333333" stroke-width="1" stroke-dasharray="2,8" fill="none" id="gge3959" class="px1"/><g c_partid="part_annotation" id="gge3962" c_origin="768.3529411764706,912"><text x="768.3529411764706" y="912" stroke="none" text-anchor="middle" fill="#333333" font-size="12pt">1.95ms</text></g><polyline points="855.6470588235294 50 855.6470588235294 895" stroke="#333333" stroke-width="1" stroke-dasharray="2,8" fill="none" id="gge3965" class="px1"/><g c_partid="part_annotation" id="gge3968" c_origin="855.6470588235294,912"><text x="855.6470588235294" y="912" stroke="none" text-anchor="middle" fill="#333333" font-size="12pt">2ms</text></g><polyline points="942.9411764705883 50 942.9411764705883 895" stroke="#333333" stroke-width="1" stroke-dasharray="2,8" fill="none" id="gge3971" class="px1"/><g c_partid="part_annotation" id="gge3974" c_origin="942.9411764705883,912"><text x="942.9411764705883" y="912" stroke="none" text-anchor="middle" fill="#333333" font-size="12pt">2.05ms</text></g><polyline points="1030.235294117647 50 1030.235294117647 895" stroke="#333333" stroke-width="1" stroke-dasharray="2,8" fill="none" id="gge3977" class="px1"/><g c_partid="part_annotation" id="gge3980" c_origin="1030.235294117647,912"><text x="1030.235294117647" y="912" stroke="none" text-anchor="middle" fill="#333333" font-size="12pt">2.1ms</text></g><polyline points="1117.5294117647059 50 1117.5294117647059 895" stroke="#333333" stroke-width="1" stroke-dasharray="2,8" fill="none" id="gge3983" class="px1"/><g c_partid="part_annotation" id="gge3986" c_origin="1117.5294117647059,912"><text x="1117.5294117647059" y="912" stroke="none" text-anchor="middle" fill="#333333" font-size="12pt">2.15ms</text></g><polyline points="1204.8235294117646 50 1204.8235294117646 895" stroke="#333333" stroke-width="1" stroke-dasharray="2,8" fill="none" id="gge3989" class="px1"/><g c_partid="part_annotation" id="gge3992" c_origin="1204.8235294117646,912"><text x="1204.8235294117646" y="912" stroke="none" text-anchor="middle" fill="#333333" font-size="12pt">2.2ms</text></g><polyline points="1292.1176470588236 50 1292.1176470588236 895" stroke="#333333" stroke-width="1" stroke-dasharray="2,8" fill="none" id="gge3995" class="px1"/><g c_partid="part_annotation" id="gge3998" c_origin="1292.1176470588236,912"><text x="1292.1176470588236" y="912" stroke="none" text-anchor="middle" fill="#333333" font-size="12pt">2.25ms</text></g><polyline points="1379.4117647058824 50 1379.4117647058824 895" stroke="#333333" stroke-width="1" stroke-dasharray="2,8" fill="none" id="gge4001" class="px1"/><g c_partid="part_annotation" id="gge4004" c_origin="1379.4117647058824,912"><text x="1379.4117647058824" y="912" stroke="none" text-anchor="middle" fill="#333333" font-size="12pt">2.3ms</text></g><polyline points="1466.7058823529412 50 1466.7058823529412 895" stroke="#333333" stroke-width="1" stroke-dasharray="2,8" fill="none" id="gge4007" class="px1"/><g c_partid="part_annotation" id="gge4010" c_origin="1466.7058823529412,912"><text x="1466.7058823529412" y="912" stroke="none" text-anchor="middle" fill="#333333" font-size="12pt">2.35ms</text></g><polyline points="1554 50 1554 895" stroke="#333333" stroke-width="1" stroke-dasharray="2,8" fill="none" id="gge4013" class="px1"/><g c_partid="part_annotation" id="gge4016" c_origin="1554,912"><text x="1554" y="912" stroke="none" text-anchor="middle" fill="#333333" font-size="12pt">2.4ms</text></g><g c_partid="part_annotation" id="gge4019" c_origin="65,50"><text x="65" y="50" stroke="none" text-anchor="end" fill="#333333" font-size="12pt">500mV</text></g><polyline points="70 155.625 1554 155.625" stroke="#333333" stroke-width="1" stroke-dasharray="2,8" fill="none" id="gge4022" class="px1"/><g c_partid="part_annotation" id="gge4025" c_origin="65,155.625"><text x="65" y="155.625" stroke="none" text-anchor="end" fill="#333333" font-size="12pt">400mV</text></g><polyline points="70 261.25 1554 261.25" stroke="#333333" stroke-width="1" stroke-dasharray="2,8" fill="none" id="gge4028" class="px1"/><g c_partid="part_annotation" id="gge4031" c_origin="65,261.25"><text x="65" y="261.25" stroke="none" text-anchor="end" fill="#333333" font-size="12pt">300mV</text></g><polyline points="70 366.875 1554 366.875" stroke="#333333" stroke-width="1" stroke-dasharray="2,8" fill="none" id="gge4034" class="px1"/><g c_partid="part_annotation" id="gge4037" c_origin="65,366.875"><text x="65" y="366.875" stroke="none" text-anchor="end" fill="#333333" font-size="12pt">200mV</text></g><polyline points="70 472.5 1554 472.5" stroke="#333333" stroke-width="1" stroke-dasharray="2,8" fill="none" id="gge4040" class="px1"/><g c_partid="part_annotation" id="gge4043" c_origin="65,472.5"><text x="65" y="472.5" stroke="none" text-anchor="end" fill="#333333" font-size="12pt">100mV</text></g><polyline points="70 578.125 1554 578.125" stroke="#333333" stroke-width="1" stroke-dasharray="2,8" fill="none" id="gge4046" class="px1"/><g c_partid="part_annotation" id="gge4049" c_origin="65,578.125"><text x="65" y="578.125" stroke="none" text-anchor="end" fill="#333333" font-size="12pt">0V</text></g><polyline points="70 683.75 1554 683.75" stroke="#333333" stroke-width="1" stroke-dasharray="2,8" fill="none" id="gge4052" class="px1"/><g c_partid="part_annotation" id="gge4055" c_origin="65,683.75"><text x="65" y="683.75" stroke="none" text-anchor="end" fill="#333333" font-size="12pt">-100mV</text></g><polyline points="70 789.375 1554 789.375" stroke="#333333" stroke-width="1" stroke-dasharray="2,8" fill="none" id="gge4058" class="px1"/><g c_partid="part_annotation" id="gge4061" c_origin="65,789.375"><text x="65" y="789.375" stroke="none" text-anchor="end" fill="#333333" font-size="12pt">-200mV</text></g><polyline points="70 895 1554 895" stroke="#333333" stroke-width="1" stroke-dasharray="2,8" fill="none" id="gge4064" class="px1"/><g c_partid="part_annotation" id="gge4067" c_origin="65,895"><text x="65" y="895" stroke="none" text-anchor="end" fill="#333333" font-size="12pt">-300mV</text></g><polyline points="167.3274886 605.01632412 168.85440418 601.45374235 170.26895719 596.77395566 172.01483954 589.53205754 173.09988306 584.47124789 174.20997233 579.13274369 175.41996179 573.38848642 176.91308226 566.77303592 178.65896461 560.17058841 180.40484697 555.21185155 181.81760393 552.6123399 183.23204864 551.37382276 184.65890599 551.5134826 186.01088894 552.87576635 187.75677129 556.20478649 189.50265364 560.98455374 191.248536 566.77651968 192.99441835 573.08929839 194.7403007 579.42603171 196.43662827 585.18563853 198.18251062 590.39596333 199.92839297 594.77327686 200.98268169 597.03674907 202.30249997 599.50539685 203.57643965 601.47437239 205.02342256 603.07637436 206.59157237 603.76998423 208.1419294 603.04482761 209.6700212 600.65441507 211.2836703 596.17089274 212.95814145 589.56662687 214.1008958 584.18551106 214.85362337 580.41742863 215.91147988 575.05322012 217.02801649 569.52919529 218.77389884 561.72994463 220.5197812 555.46436504 222.26566355 551.1671332 224.0115459 549.07364119 225.71441983 549.20470119 227.34873003 551.24497487 229.09461239 555.23136674 230.84049474 560.69391626 232.58637709 567.14476566 234.33225944 574.06085542 235.76593379 579.75551057 237.03983441 584.65567478 238.37263977 589.59886195 239.13866918 592.39104712 239.89912444 595.17349936 240.80240268 598.52817305 242.18100465 603.74727156 243.926887 610.24263369 245.57912794 615.63613159 247.23494088 619.32303014 248.98082323 620.12887828 250.72670558 616.64203132 252.02342066 610.84696314 253.4301543 601.58669046 254.4880944 593.02252076 254.9876479 588.67786428 255.45894834 584.50235984 255.95420903 580.09062892 256.49867262 575.2696206 257.44681742 567.10212358 258.45470309 558.92772207 259.6473468 550.21652016 261.21093256 540.8142897 262.95681492 533.49680394 264.70269727 529.82410912 266.44857962 529.81135386 268.1517147 533.18773512 269.66860136 538.83211947 271.25226158 546.99562604 272.40927683 554.0984444 273.81437211 563.49929758 275.12788557 572.6188777 276.87376793 584.45386239 278.4466088 594.20537372 280.19249115 603.32506143 281.75033979 609.61277049 283.14089139 613.72293511 283.87333954 615.36559401 284.83495958 617.01590108 285.90934113 618.15228658 287.14911145 618.40948464 288.45831736 617.22766393 289.77174453 614.29553021 291.25501221 608.71481957 292.62900073 601.51675473 293.53010627 595.93043196 294.10082476 592.14550163 294.92015091 586.52622299 295.95594765 579.32283474 297.34177495 569.94182623 298.85035009 560.58572366 300.49828321 551.97425495 302.07801215 545.74317997 303.82389451 541.52256501 305.56977686 540.2504049 307.26893509 541.79552538 308.9574379 545.82816738 310.70332025 552.20301957 312.44920261 560.235823 314.19508496 569.21857319 315.94096731 578.40469195 317.59049965 586.62982447 319.336382 594.24283343 321.08226435 600.2654666 322.82814671 604.42701307 324.3426194 606.48429356 325.96352276 607.11966464 327.42290661 606.29585086 328.81027616 604.23575537 330.36501545 600.42564806 331.91015491 595.18228671 333.65603727 587.9345802 334.768327 582.86527502 336.14498135 576.50906227 337.55652785 570.24831288 339.3024102 563.37538382 341.04829256 557.91294556 342.51049716 554.68290679 344.03383647 552.77420378 345.46967496 552.37660459 346.90013173 553.29803894 348.61256058 555.97381113 350.35844293 560.18613306 352.10432529 565.50202217 353.85020764 571.46050018 355.59608999 577.58026043 357.27788327 583.20721046 359.02376562 588.41570457 360.76964797 592.78431083 362.18275917 595.68704613 363.34706218 597.68152766 364.6341847 599.46889238 366.11580589 600.89686524 367.71328144 601.47179022 369.36439852 600.70562278 370.9601213 598.37835566 372.63945232 594.11086489 374.30142268 588.20963439 375.61605372 582.66444454 376.52121279 578.60217436 377.70259761 573.27968996 378.98869082 567.74311116 380.73457318 561.16277137 382.48045553 556.10033631 384.22633788 552.89155396 385.97222023 551.6944712 387.60590192 552.39325158 389.3410727 554.90998984 391.08695505 559.0065544 392.8328374 564.28467303 394.57871975 570.29787378 396.32460211 576.61008806 397.59693243 581.21015727 398.96461001 586.10153503 399.83186719 589.21059391 400.66112339 592.23961774 401.66756988 596.03647603 402.77058785 600.3581536 404.5164702 607.31271252 406.17919983 613.52306091 407.92508219 618.56708319 409.66165328 620.82246035 411.40753563 619.02861865 412.74450245 614.30328286 414.0305692 606.87429706 415.37236282 596.56512408 415.95494488 591.48924933 416.33163559 588.10360699 416.82498193 583.61183319 417.4798729 577.63849565 418.28727286 570.39868557 419.30439784 561.69514062 420.22531825 554.39255652 421.82245197 543.50264201 423.48929492 535.00961837 425.23517727 529.67046591 426.98105962 528.06773337 428.69265058 530.02331767 430.42086809 535.38806633 432.02901453 543.1604161 433.55271279 552.46896752 434.57616344 559.44964177 435.75078714 567.81475126 437.29712585 578.86270719 438.85568005 589.42965894 440.60156241 599.8313582 442.07100701 606.97683922 443.63067476 612.75065387 444.4502735 615.06577157 445.22062215 616.83908143 446.09947106 618.40624807 447.13370588 619.60012997 448.34857892 619.97596214 449.61225425 618.96523252 451.02743172 615.83065203 452.42039921 610.49591392 453.79215174 603.15799348 454.73185014 597.1462013 455.3058092 593.1965668 456.11945929 587.39728039 456.95017946 581.37693445 458.46575297 570.64272707 459.8851934 561.34777306 461.57676532 551.90568038 463.13471222 545.2399653 464.88059457 540.485314 466.62647692 538.77234353 468.31491048 539.98200489 470.00715303 543.82652771 471.75303539 550.17311526 473.49891774 558.35911606 475.24480009 567.65075861 476.89451845 576.74270166 478.53944055 585.45065501 480.19632154 593.27899039 481.94220389 599.9833976 483.68808624 604.75591236 485.43396859 607.46549591 486.85815607 608.16254513 488.36729275 607.43352629 489.88583205 605.15436193 491.51282184 601.00585158 493.1023482 595.40908289 494.58487896 589.14014165 495.74787402 583.79730472 497.11941888 577.38711616 498.58393167 570.79201249 500.32981402 563.78581504 502.07569637 558.17322135 503.55127986 554.78722767 505.03194328 552.79331433 506.54525809 552.25933956 508.20928288 553.37772343 509.88391484 556.1427521 511.62979719 560.47662737 513.37567955 565.89169473 515.1215619 571.91968056 516.86744425 578.07244033 518.54297498 583.66741786 520.28885733 588.79641667 522.03473968 592.96385903 523.78062203 596.07969906 525.10397713 597.75007227 526.55953311 598.89689771 528.30541547 599.22095061 529.9111232 598.35151156 531.36074747 596.46708943 532.92733085 593.18993054 534.6732132 588.13807318 536.41909555 581.99657096 537.62207937 577.43254494 539.06481107 572.00919534 540.48181776 567.06259208 542.22770012 561.92018682 543.97358247 558.16962991 545.71946482 556.04532083 547.46534717 555.63332807 549.10318581 556.76037341 550.84906816 559.40627166 552.59495052 563.27480125 554.34083287 568.02316635 556.08671522 573.29069291 557.58054916 577.9822328 559.14628393 582.9771501 560.36588049 586.95916396 561.2477608 589.93925834 562.38734485 593.96599377 563.58101984 598.38685495 565.32690219 604.96929353 567.07278454 611.08586507 568.8186669 615.72975694 570.56454925 617.69537526 572.3104316 615.80999611 573.66983399 611.13008344 574.99510911 603.76228552 576.36417698 593.73010359 576.95652911 588.84221811 577.37020222 585.33118371 577.8860379 580.90809003 578.77646365 573.32031288 579.61582851 566.38099894 580.57867444 558.87919879 581.6384108 551.38835757 583.22101516 542.10621587 584.93759149 535.05410761 586.68347384 531.42050098 588.4293562 531.41183261 590.11931123 534.70541758 591.8360766 541.05099346 593.58195896 550.031369 594.89610344 558.00573853 596.39527719 567.76927106 598.13988758 579.25178743 599.75284067 589.27654384 601.49872302 598.75552878 602.78547879 604.53707833 604.17580232 609.55012125 604.85194276 611.5568928 605.64724404 613.60330078 606.50458529 615.44721127 607.59362435 617.21776525 608.75324561 618.2800397 609.97986857 618.25285271 611.45292972 616.27431706 612.89486361 611.96442978 614.31996442 605.31632053 615.72786613 596.74993579 616.38586929 592.23713944 616.98272755 587.98797987 617.68165595 582.92444705 619.07951273 572.90718284 620.44038484 563.71998049 621.98700926 554.53804144 623.54255505 547.12536456 625.28843741 541.43187742 627.03431976 538.76919895 628.78020211 539.17628223 630.46152903 542.31392994 632.20741139 548.07132601 633.95329374 555.83646658 635.69917609 564.90834985 637.44505844 574.51212821 639.07124307 583.26655259 640.74433014 591.45623317 642.49021249 598.57698704 644.23609484 603.88224717 645.9819772 607.26209256 647.10344418 608.44385833 648.38559578 608.85895761 649.81790642 608.07833163 651.41363985 605.53635893 652.74204126 602.01415265 654.16141452 596.90920252 655.90729687 589.15343454 656.93369525 584.09331027 658.0301994 578.56747037 659.19217217 572.81562464 660.77087335 565.58104852 662.5167557 558.83781205 664.02250254 554.41698247 665.54291993 551.48877498 667.01468248 550.22126499 668.72393962 550.68091742 670.37770329 552.97585813 672.12358564 557.09491325 673.869468 562.5605212 675.61535035 568.88691295 677.3612327 575.54989561 679.10711505 582.03699964 680.81074441 587.77805476 682.55662677 592.77313918 684.30250912 596.79325995 685.34620457 598.75757195 686.62056131 600.73198102 688.24006718 602.48031071 689.75625857 603.15239536 691.27193048 602.60915624 692.74355007 600.66866131 694.48943243 596.37687672 696.08019036 590.67518758 697.44988591 584.70315416 698.30141578 580.68407618 699.47947915 575.03389133 700.61198391 569.7408311 702.35786626 562.38916073 704.10374862 556.49815093 705.84963097 552.47588625 707.59551332 550.54231122 709.34139568 550.74147724 711.00508548 552.80703872 712.75096783 556.68175994 714.49685018 561.9271654 716.24273254 568.07922864 717.98861489 574.64789557 719.41314937 580.016802 720.9549239 585.64675146 722.34348442 590.57198716 723.07494254 593.15594652 723.95762448 596.31709034 724.89010535 599.72458501 726.6359877 606.14965748 728.22488515 611.66960412 729.77860914 616.07061735 731.39735221 618.68636441 733.14323457 618.13481324 734.57874074 614.37713588 735.91946772 607.89623182 737.33341738 598.24071797 738.05346376 592.45096651 738.49894684 588.69100462 739.04952296 583.95149889 739.71000636 578.23220822 740.55744405 571.00390414 741.62680502 562.30608152 742.59269009 555.05445203 744.10635852 545.26518523 745.66223012 537.60231296 747.40811247 532.30015046 749.15399483 530.63320542 750.84935634 532.4219351 752.55437518 537.38665017 754.30025754 545.33471413 756.04613989 555.4644173 757.36146983 563.99993875 758.79251432 573.59041524 760.34552715 583.76759027 762.00383862 593.70874876 763.74972097 602.50914975 765.269924 608.47891318 766.44764492 612.01227068 767.16180981 613.73464514 768.0750525 615.51122364 769.17699013 616.99880514 770.49082248 617.70026963 771.68402404 617.12858486 773.12222153 614.58985531 774.53481184 609.91117774 775.94349748 603.10860817 777.49922393 593.62932484 778.1531272 589.21718351 778.90304422 584.03008426 779.69005913 578.55960069 780.76106799 571.28137225 782.33692624 561.38134173 784.03762524 552.36058433 785.66032971 545.86782621 787.40621207 541.57261408 789.15209442 540.22867339 790.84235227 541.69757999 792.53038111 545.66316111 794.27626346 551.97899377 796.02214582 559.96490385 797.76802817 568.9176905 799.51391052 578.09440566 801.14934876 586.26440669 802.89523111 593.92228665 804.64111347 600.02284132 806.38699582 604.31472556 807.70284611 606.33328442 809.04864732 607.34771116 810.4227917 607.27470884 812.01091681 605.7000933 813.43463024 602.84263735 814.92848407 598.37171579 816.57955038 591.91292355 817.76299021 586.56203266 818.77435199 581.74253595 819.96364431 576.04235421 821.38782311 569.50654836 823.13370546 562.42638542 824.87958782 556.83708386 826.33738406 553.57531047 827.81724381 551.71739152 829.24233453 551.34966215 830.66836591 552.33901351 832.40306419 555.20273273 834.14894655 559.62923961 835.8948289 565.18931869 837.64071125 571.40212738 839.38659361 577.76802711 841.07184178 583.62430924 842.81772414 589.04156283 844.56360649 593.63352143 845.73548213 596.26055012 846.83532033 598.4294941 848.02619905 600.4547145 849.51974953 602.42172424 851.12659943 603.57742795 852.66310178 603.41669454 854.34529392 601.42437819 855.96473537 597.47961888 857.57679274 591.6267357 859.32267509 583.65365773 860.17570872 579.38273834 861.12422412 574.59032019 862.13419016 569.61750876 863.88007251 561.83932467 865.62595487 555.58418525 867.37183722 551.28736833 869.11771957 549.18476641 870.85032614 549.31897269 872.51195621 551.41722604 874.25783856 555.43026175 876.00372091 560.90280417 877.74960327 567.34740355 879.49548562 574.24355833 880.913482 579.8545712 882.19929637 584.78233669 883.53581993 589.72745005 884.29179121 592.48183754 885.06043697 595.29743857 885.95947673 598.64373622 887.46653993 604.36065735 889.14439164 610.59464468 890.67996032 615.60990147 892.28408173 619.25853573 894.02996409 620.21790903 895.77584644 616.91424506 897.09557439 611.13288781 898.51632211 601.84546195 899.67168325 592.47568365 900.17513765 588.07439111 900.64735912 583.87756931 901.14214847 579.46370557 901.63754609 575.07407855 902.62834133 566.54614575 903.69821603 557.92362846 904.91590918 549.15860913 906.4964246 539.90081851 908.24230695 532.91574433 909.98818931 529.59210066 911.69858091 529.87936201 913.40673269 533.52297912 914.89979954 539.2750962 916.46588053 547.49515117 917.59135954 554.46988571 918.97096596 563.74256363 920.31532937 573.09560808 922.04434464 584.81759048 923.63017256 594.62197494 925.37605492 603.68165084 927.12193727 610.53647016 928.37663354 614.08792708 929.11208457 615.68431962 930.04074658 617.21917122 931.12358883 618.29640881 932.33808577 618.46564502 933.7047462 617.09267291 934.99877952 614.02897013 936.48131164 608.25970112 937.87152066 600.81165666 938.70571167 595.57607819 939.26375577 591.8553894 940.06204712 586.36350155 941.2801854 577.89474239 942.65344019 568.65992987 944.33075639 558.50363729 945.87356699 550.77220103 947.54041441 544.63276284 949.28629676 540.98238016 951.03217912 540.29027357 952.74326981 542.3944718 954.4329483 546.91803722 956.17883066 553.69538846 957.92471301 561.99612926 959.67059536 571.09648204 961.41647771 580.24987877 963.05349452 588.25940599 964.79937687 595.60310068 966.54525922 601.28003687 968.29114158 605.06379323 969.69318299 606.71198767 971.22908585 607.12355221 972.90621909 605.88194807 974.36527376 603.31324697 975.95780229 598.934776 977.46187377 593.45438761 978.81785657 587.67968828 979.92599041 582.6238103 981.22286897 576.63733207 982.67244799 570.21472253 984.41833035 563.35713148 986.1642127 557.91115886 987.64774652 554.65787941 989.14068483 552.8057467 990.55054421 552.40567048 991.97510153 553.29840592 993.67005121 555.90857495 995.41593357 560.0801 997.16181592 565.36561437 998.90769827 571.30580974 1000.65358063 577.41973964 1002.33412918 583.04748583 1004.08001153 588.26769364 1005.82589389 592.64630947 1007.29239542 595.64901053 1008.45563073 597.61972742 1009.75281822 599.38979017 1011.23395637 600.77534118 1012.83128737 601.3049733 1014.49234744 600.48957413 1016.07220141 598.16123304 1017.76527298 593.85899965 1019.42981848 587.97145375 1020.74093322 582.48090767 1021.65804866 578.40232069 1022.84153286 573.12632657 1024.1774262 567.45674704 1025.92330856 561.00716203 1027.66919091 556.08214439 1029.41507326 553.00515157 1031.16095562 551.92423602 1032.79517986 552.71078924 1034.54106221 555.31321766 1036.28694456 559.45096506 1038.03282691 564.73480423 1039.77870927 570.72196178 1041.52459162 576.98688637 1042.79862986 581.55596433 1044.15074745 586.36598417 1044.98200024 589.3409332 1045.86214327 592.5609182 1046.87739848 596.40768228 1048.03205281 600.95407167 1049.77793516 607.90838928 1051.46726764 614.12219794 1053.21314999 618.92583874 1054.95903235 620.78980293 1056.7049147 618.44876418 1058.01476708 613.38960281 1059.30323816 605.57535752 1060.63266138 595.09237854 1061.18722572 590.2057028 1061.58139786 586.64375586 1062.05715735 582.30382833 1062.68949437 576.54616947 1063.53824036 568.98076416 1064.50717069 560.76528645 1065.51338605 552.91309962 1067.09761248 542.40885515 1068.84349484 533.97380644 1070.58937719 529.20543889 1072.33525954 528.16674259 1074.08114189 530.73936003 1075.5443374 535.56484196 1077.11721074 543.19834536 1078.43337895 551.1640874 1079.43540118 557.90422991 1080.63293945 566.37507948 1082.30581786 578.32020256 1083.85559179 588.8649238 1085.60147414 599.34707744 1087.07503181 606.5988561 1088.63860173 612.47913016 1089.48339509 614.90427599 1090.24193643 616.68052117 1091.12651109 618.29598355 1092.16480921 619.54082599 1093.38830878 619.97749698 1094.62701324 619.06819604 1096.04725898 616.04162146 1097.43826757 610.83090863 1098.81127856 603.58486822 1099.83327009 597.072698 1100.41814896 593.04149494 1101.24589498 587.13289023 1102.04023663 581.3709994 1103.57033413 570.5321542 1104.98149851 561.29304604 1106.68316385 551.80462629 1108.24708282 545.13745181 1109.99296517 540.4194847 1111.73884752 538.74600905 1113.42798624 539.99505284 1115.12033028 543.87716718 1116.86621263 550.25719776 1118.61209498 558.46848269 1120.35797734 567.775389 1122.00704027 576.86848226 1123.64026048 585.51365261 1125.29819242 593.3426654 1127.04407477 600.03820168 1128.78995713 604.79954289 1130.53583948 607.49793703 1131.95616012 608.18663232 1133.46164937 607.45647118 1134.97425325 605.18716651 1136.59766954 601.05128767 1138.18832809 595.45122082 1139.67336906 589.16714266 1140.83249792 583.83609422 1142.20270581 577.42337418 1143.66550445 570.82426617 1145.4113868 563.80206332 1147.15726915 558.17291532 1148.65316458 554.73645687 1150.15374341 552.73326363 1151.66885559 552.22915057 1153.33489773 553.38469775 1155.00832351 556.18199278 1156.75420586 560.54624095 1158.50008821 565.98480045 1160.24597057 572.02797565 1161.99185292 578.187 1163.66782841 583.78130084 1165.41371077 588.9010783 1167.15959312 593.05524971 1168.90547547 596.15721032 1170.22487676 597.81355097 1171.67575452 598.94846208 1173.42163687 599.26092985 1175.03301868 598.37052069 1176.48142626 596.46515145 1178.04704295 593.16236687 1179.7929253 588.07876192 1181.53880765 581.90952345 1182.73488824 577.3575956 1184.17165804 571.94486674 1185.59530776 566.96938559 1187.34119012 561.82878743 1189.08707247 558.08748232 1190.83295482 555.97849772 1192.57883718 555.58630552 1194.21720605 556.73500072 1195.9630884 559.40459447 1197.70897076 563.29579828 1199.45485311 568.06415444 1201.20073546 573.3477648 1202.69120486 578.03896381 1204.25431978 583.03321504 1205.46712708 586.99701249 1206.34796198 589.97532069 1207.48533928 593.99536652 1208.67796168 598.41243463 1210.42384403 604.99405437 1212.16972638 611.10901007 1213.91560873 615.75031259 1215.66149109 617.71203496 1217.40737344 615.82127492 1218.76630903 611.13837445 1220.09160871 603.76608389 1221.46055511 593.73069602 1222.05258881 588.84403207 1222.46637951 585.33116074 1222.98194475 580.90943631 1223.8671175 573.36427603 1224.70924868 566.39962497 1225.6746427 558.87604725 1226.73509393 551.37923714 1228.30944581 542.13819005 1230.02942279 535.05986762 1231.77530515 531.41694378 1233.5211875 531.39940885 1235.21108467 534.68514103 1236.92571565 541.01511687 1238.671598 549.98923636 1239.98637738 557.96556579 1241.4861997 567.73392339 1243.23208205 579.22802448 1244.83518566 589.19971194 1246.58106801 598.69400188 1247.86785861 604.48823606 1249.26120694 609.52286078 1249.9411534 611.54361159 1250.73233678 613.5816901 1251.58876486 615.42658284 1252.67751125 617.20080089 1253.83585835 618.26825556 1255.06228418 618.25108551 1256.5310573 616.29812157 1257.97435808 612.009715 1259.40072676 605.37969955 1260.80642853 596.84679077 1261.46579709 592.33184152 1262.06019398 588.10492605 1262.76007172 583.03815864 1264.15982719 573.00897298 1265.51915564 563.82765674 1267.05535314 554.6900989 1268.60088664 547.28791517 1270.34676899 541.53680867 1272.09265134 538.81183608 1273.8385337 539.15670215 1275.51957626 542.23752984 1277.26545861 547.94414874 1279.01134096 555.67049032 1280.75722332 564.71841975 1282.50310567 574.31418657 1284.14151369 583.13812651 1285.81344757 591.33421538 1287.55932992 598.47551509 1289.30521227 603.80578047 1291.05109462 607.21145698 1292.17129011 608.40864721 1293.45501743 608.84406436 1294.89412873 608.0801346 1296.49642557 605.54572827 1297.82496635 602.03610613 1299.24410485 596.94548911 1300.9899872 589.20325621 1302.01399173 584.16045834 1303.10423033 578.66933005 1304.26372217 572.92881941 1305.82811377 565.74685765 1307.57399612 558.97436029 1309.09872169 554.47423498 1310.63085091 551.51186008 1312.08445987 550.24415668 1313.81017099 550.68763202 1315.45838458 552.96216551 1317.20426693 557.06636882 1318.95014928 562.52000963 1320.69603164 568.83808938 1322.44191399 575.49684071 1324.18779634 581.98382178 1325.89114904 587.72741729 1327.6370314 592.72877652 1329.38291375 596.75677329 1330.4268689 598.72684565 1331.70240765 600.71026402 1333.30836159 602.45947954 1334.83229668 603.15477519 1336.33742794 602.64108117 1337.81938005 600.7146639 1339.5652624 596.44889919 1341.15061313 590.78737281 1342.53931588 584.74077714 1343.39285586 580.71125187 1344.57804455 575.0242021 1345.69676135 569.79082767 1347.4426437 562.42685915 1349.18852605 556.52087578 1350.93440841 552.48258523 1352.68029076 550.53325848 1354.42617311 550.71816412 1356.08980887 552.77235923 1357.83569123 556.63838851 1359.58157358 561.87883682 1361.32745593 568.02979277 1363.07333829 574.60082136 1364.50019905 579.98214354 1365.88442639 585.04847874 1367.28975251 590.04479835 1368.04630534 592.71614975 1368.90495723 595.78447049 1369.84039789 599.1940893 1371.58628025 605.62741644 1373.16802851 611.18519529 1374.68294995 615.63179386 1376.27308405 618.51300261 1378.0189664 618.46311047 1379.49856801 615.0440931 1380.84846522 608.88392381 1382.28185838 599.38541635 1383.18030841 592.21638354 1383.65056177 588.23514448 1384.22712711 583.26078821 1384.7879178 578.39888463 1385.50324367 572.27256578 1386.41119405 564.77234134 1387.41257657 557.04742181 1388.75197268 547.93705622 1390.32073552 539.4654454 1392.06661788 533.26310438 1393.81250023 530.68132602 1395.4478379 531.52914383 1397.15402019 535.60278644 1398.89990254 542.78890351 1400.64578489 552.39375249 1401.82373745 559.82697521 1403.21958645 569.10651877 1404.9654688 580.70625643 1406.56144935 590.63213332 1408.3073317 600.02199501 1409.69729314 606.0734717 1411.16984941 611.0098788 1411.90074067 612.9316431 1412.81625751 614.89749547 1413.75946651 616.41693004 1414.80433011 617.45302679 1416.01212899 617.65701793 1417.35443523 616.37842863 1418.85381984 612.75649316 1420.23845948 607.2141356 1421.64038159 599.62655467 1422.43251785 594.631426 1423.01096283 590.7698875 1423.82710058 585.15681563 1424.8211874 578.25600826 1426.20856111 568.92838327 1427.78914082 559.28840089 1429.40069358 551.10554469 1430.99437785 545.09188063 1432.7402602 541.2102401 1434.48614255 540.28545055 1436.19051701 542.16344695 1437.87887052 546.48505435 1439.62475287 553.09059067 1441.37063523 561.26596481 1443.11651758 570.29742212 1444.83051993 579.28092893 1446.47519172 587.38735672 1448.22107407 594.85407387 1449.96695643 600.71443443 1451.71283878 604.75140241 1452.95633877 606.50851 1454.39440804 607.41169978 1455.88069326 607.04269222 1457.39652575 605.20518979 1458.77000069 602.19002768 1460.22645591 597.61425125 1461.97233827 590.57455809 1463.10477892 585.36427324 1464.14325918 580.39133683 1465.32417938 574.75812372 1466.77161035 568.22467788 1468.5174927 561.36844114 1470.26337506 556.07508255 1471.72375991 553.09176034 1473.18697729 551.54635353 1474.58446614 551.44124853 1475.96544248 552.60543508 1477.71132483 555.69636884 1479.45720718 560.28900141 1481.20308954 565.95642088 1482.94897189 572.21304278 1484.69485424 578.56082353 1486.38503461 584.36536281 1488.13091696 589.67791687 1489.87679931 594.15976694 1490.98790404 596.59550031 1492.15006328 598.83313181 1493.36501033 600.82360473 1494.842882 602.65027442 1496.43697982 603.62734819 1498.0228962 603.21738464 1499.72678289 600.84527906 1501.31927893 596.62372474 1502.94174507 590.44348306 1504.21096311 584.58279535 1504.98917656 580.71782545 1505.96909741 575.76836183 1506.9907857 570.69531912 1508.73666805 562.76835916 1510.48255041 556.29245991 1512.22843276 551.72982765 1513.97431511 549.34046702 1515.72019747 549.19950445 1517.37731367 551.05623406 1519.12319602 554.85776048 1520.86907837 560.17300968 1522.61496072 566.52299771" stroke="#0000FF" stroke-width="1" fill="none" id="gge4070" class="px1"/><polyline points="167.3274886 545.12681809 168.85440418 518.7506608 170.26895719 497.94189809 172.01483954 478.92645728 173.09988306 471.45920783 174.20997233 467.64572055 175.41996179 467.98446752 176.91308226 474.66022777 178.65896461 490.39520569 180.40484697 513.19084128 181.81760393 535.4769106 183.23204864 559.86663395 184.65890599 585.2626925 186.01088894 608.88568299 187.75677129 636.95874154 189.50265364 660.58263467 191.248536 678.23524242 192.99441835 688.92672304 194.7403007 692.24284128 196.43662827 688.53077464 198.18251062 678.17074308 199.92839297 662.05584839 200.98268169 649.91253956 202.30249997 632.55645057 203.57643965 613.83824977 205.02342256 590.73283779 206.59157237 564.29250922 208.1419294 537.89819054 209.6700212 513.14951814 211.2836703 490.33929107 212.95814145 472.48964767 214.1008958 464.71188681 214.85362337 461.84576738 215.91147988 461.03248284 217.02801649 464.26284254 218.77389884 477.24820676 220.5197812 498.733625 222.26566355 526.7595563 224.0115459 558.93822982 225.71441983 591.86062059 227.34873003 622.64247711 229.09461239 652.36043992 230.84049474 676.852515 232.58637709 694.58588395 234.33225944 704.61061719 235.76593379 706.80303483 237.03983441 704.20838146 238.37263977 697.07233928 239.13866918 690.98109222 239.89912444 683.52061644 240.80240268 672.81843519 242.18100465 652.56045976 243.926887 620.06293668 245.57912794 582.6140623 247.23494088 539.74058425 248.98082323 491.32541328 250.72670558 443.64098622 252.02342066 411.61656064 253.4301543 383.36098609 254.4880944 368.0925403 254.9876479 362.97765045 255.45894834 359.47996234 255.95420903 357.22194722 256.49867262 356.4253234 257.44681742 359.19807734 258.45470309 367.74722373 259.6473468 384.7763315 261.21093256 416.94975845 262.95681492 463.23495145 264.70269727 516.63054659 266.44857962 572.88173558 268.1517147 626.49859415 269.66860136 670.19579628 271.25226158 708.95670364 272.40927683 731.59653099 273.81437211 751.49284775 275.12788557 762.0274804 276.87376793 763.74916893 278.4466088 753.77962802 280.19249115 731.37616424 281.75033979 703.00859782 283.14089139 672.56695576 283.87333954 655.02531228 284.83495958 630.84293825 285.90934113 602.69160724 287.14911145 569.42988824 288.45831736 534.43109698 289.77174453 500.78591257 291.25501221 466.56456887 292.62900073 440.3307171 293.53010627 426.8035298 294.10082476 419.97464747 294.92015091 412.71000003 295.95594765 407.94524441 297.34177495 409.30062484 298.85035009 420.38621477 300.49828321 442.69793364 302.07801215 472.30868133 303.82389451 511.64286591 305.56977686 554.74963719 307.26893509 597.08654537 308.9574379 636.49642195 310.70332025 671.60390145 312.44920261 698.62929681 314.19508496 715.91247429 315.94096731 722.63529138 317.59049965 719.30231839 319.336382 706.32429932 321.08226435 685.08496306 322.82814671 657.5455997 324.3426194 630.21092861 325.96352276 599.1972408 327.42290661 571.09861395 328.81027616 545.47732928 330.36501545 519.5231596 331.91015491 498.11910804 333.65603727 480.96199438 334.768327 474.52073522 336.14498135 471.78844695 337.55652785 474.98739969 339.3024102 486.77375713 341.04829256 506.0276645 342.51049716 526.65897454 344.03383647 551.04925768 345.46967496 575.4156307 346.90013173 599.69515208 348.61256058 627.00701473 350.35844293 651.12179946 352.10432529 669.89180452 353.85020764 682.20877373 355.59608999 687.51033065 357.27788327 685.96361531 359.02376562 677.91359422 360.76964797 664.11332967 362.18275917 649.3880788 363.34706218 635.27528791 364.6341847 617.96939969 366.11580589 596.33869424 367.71328144 571.76508335 369.36439852 546.21142686 370.9601213 522.85783226 372.63945232 501.62698493 374.30142268 485.93357938 375.61605372 478.37510906 376.52121279 476.02845839 377.70259761 476.66610119 378.98869082 482.0763544 380.73457318 496.66978747 382.48045553 518.34736351 384.22633788 545.20698089 385.97222023 575.0248261 387.60590192 603.55002081 389.3410727 632.3266547 391.08695505 657.72601131 392.8328374 677.88525801 394.57871975 691.59917167 396.32460211 698.17913939 397.59693243 698.33318612 398.96461001 694.14844592 399.83186719 689.1773259 400.66112339 682.73476081 401.66756988 672.64568548 402.77058785 658.631499 404.5164702 629.90476531 406.17919983 595.16704057 407.92508219 551.8563875 409.66165328 504.01769789 411.40753563 454.86891197 412.74450245 419.48830662 414.0305692 390.10732904 415.37236282 366.8954745 415.95494488 359.6918831 416.33163559 356.07919367 416.82498193 352.63618926 417.4798729 350.3547919 418.28727286 351.13216005 419.30439784 357.61125896 420.22531825 368.51358589 421.82245197 397.46789926 423.48929492 439.02846501 425.23517727 491.30941253 426.98105962 548.35856435 428.69265058 604.76669475 430.42086809 658.15619657 432.02901453 701.32431565 433.55271279 733.91187131 434.57616344 750.37210033 435.75078714 763.30868436 437.29712585 770.31455205 438.85568005 766.00884407 440.60156241 748.67677052 442.07100701 725.16343354 443.63067476 693.12420628 444.4502735 673.93452187 445.22062215 654.77002641 446.09947106 631.84041832 447.13370588 603.78084171 448.34857892 569.98920349 449.61225425 534.83958926 451.02743172 497.04741597 452.42039921 463.34949234 453.79215174 435.56144096 454.73185014 420.52202649 455.3058092 413.19182564 456.11945929 405.41248188 456.95017946 400.73208849 458.46575297 400.72741075 459.8851934 410.36944112 461.57676532 432.76389467 463.13471222 462.16331864 464.88059457 502.29242571 466.62647692 546.78027611 468.31491048 590.64255267 470.00715303 632.25736262 471.75303539 669.71028511 473.49891774 699.04419587 475.24480009 718.39680605 476.89451845 726.60963994 478.53944055 724.94564948 480.19632154 713.93253138 481.94220389 693.55233965 483.68808624 666.104591 485.43396859 633.89486648 486.85815607 605.70864471 488.36729275 575.57596485 489.88583205 546.4838284 491.51282184 518.4771148 493.1023482 495.98980636 494.58487896 480.68884998 495.74787402 473.11527376 497.11941888 469.54878399 498.58393167 472.15310653 500.32981402 483.35745241 502.07569637 502.19146727 503.55127986 522.80766683 505.03194328 546.42708031 506.54525809 572.13592382 508.20928288 600.41007482 509.88391484 627.00904679 511.62979719 650.87970481 513.37567955 669.27250011 515.1215619 681.10811628 516.86744425 685.86152593 518.54297498 683.78586532 520.28885733 675.23095528 522.03473968 661.06639942 523.78062203 642.45013068 525.10397713 626.09081526 526.55953311 606.59633332 528.30541547 582.15560346 529.9111232 559.74664011 531.36074747 540.63784112 532.92733085 522.44821572 534.6732132 506.76235574 536.41909555 497.39235731 537.62207937 495.17377039 539.06481107 497.33698914 540.48181776 504.44467922 542.22770012 519.27106721 543.97358247 539.55338915 545.71946482 563.57639137 547.46534717 589.40953824 549.10318581 613.54524838 550.84906816 637.35163072 552.59495052 657.59422839 554.34083287 672.9798384 556.08671522 682.62185169 557.58054916 685.93476213 559.14628393 684.35196832 560.36588049 679.47753184 561.2477608 673.92139157 562.38734485 664.11010502 563.58101984 650.50716179 565.32690219 624.22512462 567.07278454 590.45872768 568.8186669 550.14383191 570.56454925 505.4643341 572.3104316 459.99387582 573.66983399 426.94320651 574.99510911 399.50289037 576.36417698 378.63310929 576.95652911 372.44693488 577.37020222 369.26907109 577.8860379 366.66620537 578.77646365 365.75707793 579.61582851 369.01671639 580.57867444 377.49061487 581.6384108 392.27241774 583.22101516 423.58025055 584.93759149 467.48295937 586.68347384 519.04772903 588.4293562 573.43696449 590.11931123 624.8702184 591.8360766 672.17656865 593.58195896 711.84030451 594.89610344 734.48806701 596.39527719 751.56806842 598.13988758 759.08159072 599.75284067 754.32186207 601.49872302 737.52720241 602.78547879 718.35482908 604.17580232 692.38577839 604.85194276 678.0880358 605.64724404 660.13492725 606.50458529 639.5998901 607.59362435 612.09416213 608.75324561 581.55403621 609.97986857 548.60620209 611.45292972 509.65072538 612.89486361 474.08542678 614.31996442 443.68301053 615.72786613 420.40885088 616.38586929 412.30608429 616.98272755 406.67365356 617.68165595 402.23644584 619.07951273 400.42830074 620.44038484 407.51068105 621.98700926 425.29449175 623.54255505 452.15490222 625.28843741 490.45107179 627.03431976 534.20476077 628.78020211 579.86746076 630.46152903 622.38330593 632.20741139 661.82953823 633.95329374 693.77887469 635.69917609 716.16002877 637.44505844 727.74894723 639.07124307 728.53053309 640.74433014 719.70412944 642.49021249 701.28713547 644.23609484 675.27092862 645.9819772 643.81745054 647.10344418 621.71488997 648.38559578 595.58340676 649.81790642 566.32817555 651.41363985 535.18428051 652.74204126 511.67629705 654.16141452 490.38744012 655.90729687 471.41427901 656.93369525 464.55716991 658.0301994 461.08718481 659.19217217 461.80898073 660.77087335 469.75207467 662.5167557 486.93266672 664.02250254 507.63537191 665.54291993 532.56896931 667.01468248 559.07018296 668.72393962 590.68266382 670.37770329 620.10502892 672.12358564 647.753524 673.869468 670.07169306 675.61535035 685.67729596 677.3612327 693.76996105 679.10711505 694.15659269 680.81074441 687.45825016 682.55662677 674.15784401 684.30250912 655.40974482 685.34620457 642.03150951 686.62056131 623.94050885 688.24006718 598.79273585 689.75625857 573.84106509 691.27193048 548.60044828 692.74355007 525.04188398 694.48943243 500.34137643 696.08019036 482.79631595 697.44988591 472.82267262 698.30141578 469.40452639 699.47947915 468.46413571 700.61198391 471.72789585 702.35786626 484.29183281 704.10374862 504.86218573 705.84963097 531.57520145 707.59551332 562.16517617 709.34139568 594.17900272 711.00508548 623.78989097 712.75096783 651.72922063 714.49685018 674.61384813 716.24273254 691.0247894 717.98861489 700.09454509 719.41314937 701.81294672 720.9549239 697.96891289 722.34348442 689.57950325 723.07494254 683.32293557 723.95762448 674.08862524 724.89010535 662.30254297 726.6359877 634.51806359 728.22488515 602.83983276 729.77860914 566.53154117 731.39735221 524.53715692 733.14323457 477.3919866 734.57874074 440.05147971 735.91946772 409.1780378 737.33341738 383.68143637 738.05346376 374.23879657 738.49894684 369.78312806 739.04952296 365.82291029 739.71000636 363.37490443 740.55744405 363.92269083 741.62680502 370.38724839 742.59269009 381.48980847 744.10635852 407.8081408 745.66223012 444.39068112 747.40811247 493.63508214 749.15399483 547.64455652 750.84935634 600.68162494 752.55437518 650.7901398 754.30025754 695.12851134 756.04613989 729.34859769 757.36146983 747.10202614 758.79251432 757.80828583 760.34552715 759.12388517 762.00383862 749.20193914 763.74972097 727.50170638 765.269924 700.77678725 766.44764492 676.12262428 767.16180981 659.83874227 768.0750525 637.86877372 769.17699013 610.03485926 770.49082248 575.68572661 771.68402404 544.20792774 773.12222153 507.40366277 774.53481184 474.23444762 775.94349748 446.1399366 777.49922393 423.18738894 778.1531272 416.49080703 778.90304422 411.19237158 779.69005913 408.42984975 780.76106799 409.26540707 782.33692624 419.69658864 784.03762524 442.02531392 785.66032971 472.14670556 787.40621207 511.36443668 789.15209442 554.44063776 790.84235227 596.6100489 792.53038111 636.14426939 794.27626346 671.46709444 796.02214582 698.77194645 797.76802817 716.38272152 799.51391052 723.46007632 801.14934876 720.52755324 802.89523111 707.95804113 804.64111347 687.06175418 806.38699582 659.75389248 807.70284611 636.1640562 809.04864732 610.47313871 810.4227917 583.59737761 812.01091681 553.1247977 813.43463024 527.6356369 814.92848407 504.26166514 816.57955038 484.16040692 817.76299021 474.28076515 818.77435199 469.22648698 819.96364431 467.45719763 821.38782311 471.21739278 823.13370546 483.94983782 824.87958782 504.36010408 826.33738406 525.98434645 827.81724381 550.74754796 829.24233453 575.92851208 830.66836591 601.09251003 832.40306419 629.79162396 834.14894655 654.72228458 835.8948289 674.04662608 837.64071125 686.62907234 839.38659361 691.90250929 841.07184178 690.05377581 842.81772414 681.43508494 844.56360649 666.81671342 845.73548213 654.09022951 846.83532033 640.32813694 848.02619905 623.69826511 849.51974953 600.74318227 851.12659943 574.18958904 852.66310178 548.04625857 854.34529392 520.28381313 855.96473537 496.37531359 857.57679274 477.47569046 859.32267509 464.75035712 860.17570872 461.94855675 861.12422412 461.69731479 862.13419016 464.75044648 863.88007251 477.62449719 865.62595487 498.97827736 867.37183722 526.86428524 869.11771957 558.90627493 870.85032614 592.27323401 872.51195621 623.41523072 874.25783856 652.92187808 876.00372091 677.17799931 877.74960327 694.67007128 879.49548562 704.46609394 880.913482 706.49682329 882.19929637 703.77729369 883.53581993 696.50498375 884.29179121 690.43809458 885.06043697 682.84282565 885.95947673 672.12049867 887.46653993 649.61075874 889.14439164 617.8379608 890.67996032 582.86735647 892.28408173 541.39563119 894.02996409 492.99590156 895.77584644 445.13664845 897.09557439 412.32087149 898.51632211 383.5383581 899.67168325 366.97181147 900.17513765 362.00602377 900.64735912 358.69287087 901.14214847 356.64288304 901.63754609 356.05364948 902.62834133 359.20129076 903.69821603 368.84440163 904.91590918 387.09473488 906.4964246 420.70446205 908.24230695 467.92501714 909.98818931 521.86200031 911.69858091 577.12121905 913.40673269 630.71582718 914.89979954 673.37708155 916.46588053 711.24337934 917.59135954 732.95135454 918.97096596 752.21158541 920.31532937 762.67391354 922.04434464 763.89365094 923.63017256 753.42300351 925.37605492 730.55696897 927.12193727 697.98165082 928.37663354 669.94382475 929.11208457 652.15237444 930.04074658 628.62589454 931.12358883 600.11443135 932.33808577 567.43381002 933.7047462 530.90824284 934.99877952 497.89945131 936.48131164 464.01498284 937.87152066 437.97779004 938.70571167 425.73775922 939.26375577 419.17685172 940.06204712 412.21625884 941.2801854 407.26086105 942.65344019 409.85937614 944.33075639 424.11758621 945.87356699 446.76234417 947.54041441 479.37748632 949.28629676 519.78424891 951.03217912 563.29495012 952.74326981 605.67029579 954.4329483 644.24915748 956.17883066 677.92868561 957.92471301 703.10861132 959.67059536 718.29205462 961.41647771 722.83650037 963.05349452 717.59855144 964.79937687 702.82444331 966.54525922 680.13308402 968.29114158 651.5576631 969.69318299 625.79817296 971.22908585 596.25561155 972.90621909 564.13739438 974.36527376 537.76587448 975.95780229 512.37233192 977.46187377 493.08108749 978.81785657 480.62544253 979.92599041 474.39101476 981.22286897 471.86639359 982.67244799 475.10698656 984.41833035 486.92658329 986.1642127 506.19536315 987.64774652 527.14554049 989.14068483 551.04940864 990.55054421 574.94450657 991.97510153 599.1050908 993.67005121 626.16751315 995.41593357 650.37433123 997.16181592 669.27991153 998.90769827 681.76319461 1000.65358063 687.24754972 1002.33412918 685.88282476 1004.08001153 678.01467926 1005.82589389 664.38328988 1007.29239542 649.18610499 1008.45563073 635.12079883 1009.75281822 617.73456365 1011.23395637 596.20197199 1012.83128737 571.77554011 1014.49234744 546.27160817 1016.07220141 523.37396312 1017.76527298 502.23448313 1019.42981848 486.79354589 1020.74093322 479.44768546 1021.65804866 477.19475023 1022.84153286 477.98402497 1024.1774262 483.8157748 1025.92330856 498.69227196 1027.66919091 520.49775627 1029.41507326 547.32719399 1031.16095562 576.96730034 1032.79517986 605.22013195 1034.54106221 633.7675568 1036.28694456 658.68045203 1038.03282691 678.318925 1039.77870927 691.51772007 1041.52459162 697.62112741 1042.79862986 697.46033608 1044.15074745 693.04233205 1044.98200024 688.1670003 1045.86214327 681.19748121 1046.87739848 670.78881404 1048.03205281 655.75054552 1049.77793516 626.33018563 1051.46726764 590.34538603 1053.21314999 546.43098129 1054.95903235 498.06818648 1056.7049147 449.17013626 1058.01476708 415.07612599 1059.30323816 386.51887618 1060.63266138 364.69838975 1061.18722572 358.34107584 1061.58139786 354.91852988 1062.05715735 352.03699566 1062.68949437 350.343487 1063.53824036 351.88144448 1064.50717069 358.82824102 1065.51338605 371.57455541 1067.09761248 401.71368753 1068.84349484 446.57527302 1070.58937719 499.84130344 1072.33525954 557.21274607 1074.08114189 614.38771166 1075.5443374 659.20894025 1077.11721074 701.32369257 1078.43337895 730.0152298 1079.43540118 747.06687183 1080.63293945 761.43927152 1082.30581786 770.12514998 1083.85559179 766.42427733 1085.60147414 749.71968057 1087.07503181 726.5817408 1088.63860173 694.81932034 1089.48339509 675.16936543 1090.24193643 656.38534511 1091.12651109 633.39292176 1092.16480921 605.29066157 1093.38830878 571.29379216 1094.62701324 536.8112676 1096.04725898 498.75804495 1097.43826757 464.87672941 1098.81127856 436.73322508 1099.83327009 420.26128623 1100.41814896 412.83502488 1101.24589498 405.03522158 1102.04023663 400.63055467 1103.57033413 400.68504778 1104.98149851 410.34911694 1106.68316385 432.96766929 1108.24708282 462.59075971 1109.99296517 502.82509514 1111.73884752 547.37430817 1113.42798624 591.26991264 1115.12033028 632.85846038 1116.86621263 670.23929943 1118.61209498 699.46526998 1120.35797734 718.68431949 1122.00704027 726.7568177 1123.64026048 725.00147574 1125.29819242 713.91036917 1127.04407477 693.45934922 1128.78995713 665.95201802 1130.53583948 633.69576657 1131.95616012 605.55802895 1133.46164937 575.47399821 1134.97425325 546.46761902 1136.59766954 518.4807041 1138.18832809 495.93100057 1139.67336906 480.56896528 1140.83249792 472.99392773 1142.20270581 469.39485434 1143.66550445 471.96037397 1145.4113868 483.13333315 1147.15726915 501.95484921 1148.65316458 522.87961325 1150.15374341 546.87565285 1151.66885559 572.66659538 1153.33489773 600.99486613 1155.00832351 627.55546591 1156.75420586 651.36849863 1158.50008821 669.67090862 1160.24597057 681.39196128 1161.99185292 686.01656228 1163.66782841 683.81198802 1165.41371077 675.12778475 1167.15959312 660.846277 1168.90547547 642.12881199 1170.22487676 625.75452165 1171.67575452 606.26541054 1173.42163687 581.76912777 1175.03301868 559.24583112 1176.48142626 540.14049382 1178.04704295 521.97218856 1179.7929253 506.33084434 1181.53880765 497.04082487 1182.73488824 494.89697342 1184.17165804 497.11583529 1185.59530776 504.33068151 1187.34119012 519.26510112 1189.08707247 539.65043575 1190.83295482 563.76328559 1192.57883718 589.66666137 1194.21720605 613.8539264 1195.9630884 637.68067036 1197.70897076 657.9163835 1199.45485311 673.26969883 1201.20073546 682.85761042 1202.69120486 686.10834669 1204.25431978 684.47075821 1205.46712708 679.58615249 1206.34796198 674.01517693 1207.48533928 664.19822674 1208.67796168 650.58539292 1210.42384403 624.27382732 1212.16972638 590.47918227 1213.91560873 550.13831193 1215.66149109 505.43636977 1217.40737344 459.9485831 1218.76630903 426.89948601 1220.09160871 399.45245402 1221.46055511 378.58170952 1222.05258881 372.3981089 1222.46637951 369.21893304 1222.98194475 366.61702309 1223.8671175 365.6994427 1224.70924868 368.95173437 1225.6746427 377.44269469 1226.73509393 392.23864064 1228.30944581 423.36979889 1230.02942279 467.33544876 1231.77530515 518.89713303 1233.5211875 573.2939654 1235.21108467 624.74240078 1236.92571565 672.02058336 1238.671598 711.72859595 1239.98637738 734.42309024 1241.4861997 751.54844872 1243.23208205 759.10255833 1244.83518566 754.42735572 1246.58106801 737.71637234 1247.86785861 718.59337305 1249.26120694 692.60533142 1249.9411534 678.23682716 1250.73233678 660.38630697 1251.58876486 639.88575306 1252.67751125 612.40182734 1253.83585835 581.90754737 1255.06228418 548.97244927 1256.5310573 510.12336774 1257.97435808 474.49601752 1259.40072676 444.01948509 1260.80642853 420.71039305 1261.46579709 412.55002221 1262.06019398 406.89969284 1262.76007172 402.40321024 1264.15982719 400.49212655 1265.51915564 407.4704596 1267.05535314 424.99771275 1268.60088664 451.51565356 1270.34676899 489.64474423 1272.09265134 533.30035753 1273.8385337 578.93757545 1275.51957626 621.48920863 1277.26545861 661.04430816 1279.01134096 693.1571088 1280.75722332 715.74124804 1282.50310567 727.55490331 1284.14151369 728.52176111 1285.81344757 719.84367845 1287.55932992 701.56101992 1289.30521227 675.65343542 1291.05109462 644.27905307 1292.17129011 622.23686603 1293.45501743 596.09852041 1294.89412873 566.71457912 1296.49642557 535.44007659 1297.82496635 511.91823753 1299.24410485 490.60791573 1300.9899872 471.58716511 1302.01399173 464.70709864 1303.10423033 461.19597481 1304.26372217 461.83272457 1305.82811377 469.55548012 1307.57399612 486.55406137 1309.09872169 507.41444141 1310.63085091 532.49674297 1312.08445987 558.6456897 1313.81017099 590.54143299 1315.45838458 619.86643932 1317.20426693 647.5366943 1318.95014928 669.89282993 1320.69603164 685.54894003 1322.44191399 693.70022136 1324.18779634 694.14880424 1325.89114904 687.51130981 1327.6370314 674.26753528 1329.38291375 655.56810558 1330.4268689 642.21098252 1331.70240765 624.12690862 1333.30836159 599.21535005 1334.83229668 574.14941853 1336.33742794 549.07205908 1337.81938005 525.31488627 1339.5652624 500.5506278 1341.15061313 482.97172871 1342.53931588 472.79182404 1343.39285586 469.34694481 1344.57804455 468.39341773 1345.69676135 471.60145646 1347.4426437 484.11186256 1349.18852605 504.64407878 1350.93440841 531.33683928 1352.68029076 561.92513937 1354.42617311 593.95508256 1356.08980887 623.59505144 1357.83569123 651.57822374 1359.58157358 674.51538491 1361.32745593 690.98314728 1363.07333829 700.10967109 1364.50019905 701.87056633 1365.88442639 698.71445218 1367.28975251 690.75456661 1368.04630534 684.52748068 1368.90495723 675.82189087 1369.84039789 664.32850559 1371.58628025 637.15861477 1373.16802851 606.1658894 1374.68294995 571.26063492 1376.27308405 530.39306802 1378.0189664 483.2546277 1379.49856801 444.36398706 1380.84846522 412.60530335 1382.28185838 385.79465716 1383.18030841 373.75041218 1383.65056177 369.15302173 1384.22712711 365.22468752 1384.7879178 363.24337977 1385.50324367 363.35780575 1386.41119405 367.69121298 1387.41257657 377.67015008 1388.75197268 398.78525499 1390.32073552 433.15151319 1392.06661788 480.57464405 1393.81250023 533.81785629 1395.4478379 585.26837937 1397.15402019 636.76223738 1398.89990254 683.47672646 1400.64578489 720.87059855 1401.82373745 739.58014336 1403.21958645 754.04649193 1404.9654688 759.95807907 1406.56144935 753.75143743 1408.3073317 735.41061743 1409.69729314 713.36227762 1411.16984941 684.31254356 1411.90074067 668.11803778 1412.81625751 646.56111939 1413.75946651 623.15937701 1414.80433011 596.22213891 1416.01212899 564.3955767 1417.35443523 529.21744732 1418.85381984 491.95174608 1420.23845948 461.34679216 1421.64038159 436.11981381 1422.43251785 425.05592432 1423.01096283 418.64654853 1423.82710058 412.1556241 1424.8211874 408.39438486 1426.20856111 410.72786237 1427.78914082 423.59405135 1429.40069358 446.62513499 1430.99437785 477.35897098 1432.7402602 517.32032669 1434.48614255 560.6558013 1436.19051701 602.9567751 1437.87887052 641.84131264 1439.62475287 676.09266771 1441.37063523 702.02686761 1443.11651758 718.08891261 1444.83051993 723.56226155 1446.47519172 719.322793 1448.22107407 705.51772466 1449.96695643 683.62805247 1451.71283878 655.61289249 1452.95633877 633.03708234 1454.39440804 605.4354067 1455.88069326 576.39424185 1457.39652575 547.6125151 1458.77000069 523.49913887 1460.22645591 501.35414373 1461.97233827 481.27998406 1463.10477892 472.76810616 1464.14325918 468.45810104 1465.32417938 467.74640752 1466.77161035 472.83014642 1468.5174927 486.97067724 1470.26337506 508.49958111 1471.72375991 530.82476663 1473.18697729 555.68578667 1474.58446614 580.46553089 1475.96544248 604.70918631 1477.71132483 633.19040806 1479.45720718 657.48041157 1481.20308954 675.99312797 1482.94897189 687.66343294 1484.69485424 691.99772208 1486.38503461 689.26387864 1488.13091696 679.82123215 1489.87679931 664.50333203 1490.98790404 652.10664993 1492.15006328 637.26791346 1493.36501033 619.97432347 1494.842882 596.94287032 1496.43697982 570.41953634 1498.0228962 543.46767921 1499.72678289 515.72169806 1501.31927893 492.9076247 1502.94174507 474.93442869 1504.21096311 465.77844514 1504.98917656 462.63983776 1505.96909741 461.5577292 1506.9907857 463.86791721 1508.73666805 475.54258787 1510.48255041 495.89876078 1512.22843276 523.06233623 1513.97431511 554.70006125 1515.72019747 588.24813677 1517.37731367 619.52586272 1519.12319602 649.53604262 1520.86907837 674.52140204 1522.61496072 692.90187573" stroke="#00FF00" stroke-width="1" fill="none" id="gge4073" class="px1"/><polyline points="167.3274886 240.77040062 168.85440418 257.65446885 170.26895719 282.47020237 172.01483954 322.86352816 173.09988306 352.1149088 174.20997233 383.98434601 175.41996179 419.60117394 176.91308226 462.59616494 178.65896461 508.20556653 180.40484697 545.33026488 181.81760393 567.13617735 183.23204864 580.29714751 184.65890599 584.14212873 186.01088894 578.90404659 187.75677129 559.91690442 189.50265364 528.56581814 191.248536 487.17319724 192.99441835 438.68358902 194.7403007 386.40981244 196.43662827 335.22402196 198.18251062 285.37061096 199.92839297 241.29060603 200.98268169 218.4769692 202.30249997 194.95787594 203.57643965 178.24359791 205.02342256 167.19720662 206.59157237 165.48796637 208.1419294 174.70754043 209.6700212 194.31687269 211.2836703 225.51323857 212.95814145 267.40737131 214.1008958 300.23108389 214.85362337 323.08286651 215.91147988 355.94629843 217.02801649 390.56131226 218.77389884 441.46780393 220.5197812 484.93824668 222.26566355 517.32599786 224.0115459 535.96837124 225.71441983 539.4540281 227.34873003 528.83916457 229.09461239 503.17360964 230.84049474 464.50516204 232.58637709 415.51983414 234.33225944 359.52452586 235.76593379 310.78509399 237.03983441 267.2367573 238.37263977 223.10654645 239.13866918 198.95657061 239.89912444 176.25594324 240.80240268 151.34704251 242.18100465 118.73672111 243.926887 89.22130273 245.57912794 76.21365009 247.23494088 80.52768477 248.98082323 106.09964487 250.72670558 154.10803313 252.02342066 203.81884934 253.4301543 269.56844475 254.4880944 325.6157916 254.9876479 353.58543014 255.45894834 380.60689314 255.95420903 409.48424925 256.49867262 441.57036453 257.44681742 497.49296825 258.45470309 555.81743197 259.6473468 621.25758909 261.21093256 697.48364603 262.95681492 765.03654919 264.70269727 809.8439901 266.44857962 829.29106574 268.1517147 823.19258982 269.66860136 797.76401904 271.25226158 753.29796237 272.40927683 710.92955291 273.81437211 650.96491188 275.12788557 589.00415091 276.87376793 502.9178869 278.4466088 426.27532832 280.19249115 347.94611176 281.75033979 288.03568326 283.14089139 245.12217077 283.87333954 227.09814414 284.83495958 208.70527748 285.90934113 195.57225575 287.14911145 190.51589693 288.45831736 197.10768692 289.77174453 215.85760414 291.25501221 250.74716793 292.62900073 294.56207124 293.53010627 328.34832614 294.10082476 351.42050833 294.92015091 386.26463042 295.95594765 432.28950338 297.34177495 495.04606623 298.85035009 561.5398432 300.49828321 627.55352858 302.07801215 680.46492296 303.82389451 723.33148102 305.56977686 747.24032196 307.26893509 751.1472422 308.9574379 736.41069171 310.70332025 703.40578958 312.44920261 655.3505706 314.19508496 596.28188098 315.94096731 530.8715193 317.59049965 467.63828333 319.336382 403.84453885 321.08226435 347.44711864 322.82814671 301.98199878 324.3426194 273.39573671 325.96352276 255.29709964 327.42290661 250.50041238 328.81027616 255.96545948 330.36501545 272.99231333 331.91015491 300.00120399 333.65603727 340.01271319 334.768327 369.32735797 336.14498135 407.66663461 337.55652785 447.31375665 339.3024102 493.41185563 341.04829256 532.80076503 342.51049716 558.31886167 344.03383647 575.94847229 345.46967496 583.3126862 346.90013173 581.35663929 348.61256058 567.0941563 350.35844293 540.30218605 352.10432529 503.13760534 353.85020764 458.2724013 355.59608999 408.80630007 357.27788327 359.84558953 359.02376562 310.80714792 360.76964797 266.4646202 362.18275917 235.70617263 363.34706218 214.70231591 364.6341847 196.75533678 366.11580589 183.66748552 367.71328144 179.31116611 369.36439852 185.83937011 370.9601213 202.66096495 372.63945232 230.60387447 374.30142268 266.84284785 375.61605372 299.94336628 376.52121279 324.13528961 377.70259761 356.24256362 378.98869082 390.49019496 380.73457318 432.83003619 382.48045553 467.21324924 384.22633788 490.64450332 385.97222023 501.06891506 387.60590192 498.13831394 389.3410727 481.64198016 391.08695505 452.16512087 392.8328374 411.70111809 394.57871975 362.89042124 396.32460211 308.85394216 397.59693243 268.01483846 398.96461001 224.55604758 399.83186719 197.89833619 400.66112339 173.55103383 401.66756988 146.05664516 402.77058785 119.25449057 404.5164702 86.30569887 406.17919983 68.46017487 407.92508219 67.39931955 409.66165328 87.10840453 411.40753563 129.43243869 412.74450245 177.09396251 414.0305692 234.41694492 415.37236282 304.22156533 415.95494488 337.10310435 416.33163559 358.97880364 416.82498193 388.18538567 417.4798729 427.61653149 418.28727286 476.64649596 419.30439784 537.82143246 420.22531825 591.43545397 421.82245197 676.63982134 423.48929492 750.67451872 425.23517727 806.9514677 426.98105962 838.07289027 428.69265058 842.69479315 430.42086809 821.77539891 432.02901453 781.11482506 433.55271279 726.59595128 434.57616344 682.89561487 435.75078714 627.71120587 437.29712585 550.23636767 438.85568005 470.77769892 440.60156241 385.92205684 442.07100701 321.89173696 443.63067476 265.01300223 444.4502735 240.56273245 445.22062215 221.4420177 446.09947106 204.48591405 447.13370588 191.4865435 448.34857892 186.17855979 449.61225425 192.27854506 451.02743172 212.99778999 452.42039921 246.94268794 453.79215174 292.03227553 454.73185014 328.58505856 455.3058092 352.75606615 456.11945929 388.84686159 456.95017946 427.30639691 458.46575297 499.02498756 459.8851934 565.05509535 461.57676532 637.28606497 463.13471222 693.6589227 464.88059457 741.12663364 466.62647692 769.17076136 468.31491048 776.42957037 470.00715303 764.22450846 471.75303539 732.81462782 473.49891774 685.26656283 475.24480009 625.66845934 476.89451845 562.57027152 478.53944055 497.51906857 480.19632154 434.13701761 481.94220389 374.04932144 483.68808624 324.6173277 485.43396859 288.75891434 486.85815607 270.85271304 488.36729275 263.60524589 489.88583205 268.4033516 491.51282184 286.17293681 493.1023482 314.60089649 494.58487896 349.00104795 495.74787402 379.85307991 497.11941888 418.65705873 498.58393167 460.73290662 500.32981402 508.24624109 502.07569637 549.2957447 503.55127986 576.5472879 505.03194328 595.35185544 506.54525809 604.71176476 508.20928288 603.00766065 509.88391484 588.89110847 511.62979719 562.13699692 513.37567955 525.14558283 515.1215619 480.6460902 516.86744425 431.7804699 518.54297498 383.81758042 520.28885733 335.87124229 522.03473968 292.83107349 523.78062203 257.12095243 525.10397713 236.07056092 526.55953311 219.77314492 528.30541547 210.38166507 529.9111232 211.78557564 531.36074747 221.16608175 532.92733085 239.28115216 534.6732132 267.6994615 536.41909555 302.4158216 537.62207937 328.50112856 539.06481107 360.1381926 540.48181776 389.80908239 542.22770012 421.68090243 543.97358247 445.75171921 545.71946482 459.75564349 547.46534717 462.26279506 549.10318581 453.67882027 550.84906816 433.21723203 552.59495052 402.23732634 554.34083287 362.61275253 556.08671522 316.75476245 557.58054916 274.59535323 559.14628393 229.70166082 560.36588049 195.53318339 561.2477608 171.908812 562.38734485 143.52761545 563.58101984 117.28500216 565.32690219 87.72405961 567.07278454 71.59927055 568.8186669 72.24882987 570.56454925 92.37288997 572.3104316 133.43509987 573.66983399 179.83031217 574.99510911 236.13027519 576.36417698 303.6967936 576.95652911 335.27541532 577.37020222 357.92401051 577.8860379 386.6611076 578.77646365 436.9360104 579.61582851 484.35618391 580.57867444 537.58403687 581.6384108 593.26895644 583.22101516 667.34880243 584.93759149 731.16331668 586.68347384 774.29117379 588.4293562 792.91315019 590.11931123 786.97387904 591.8360766 757.95872225 593.58195896 707.58723512 594.89610344 658.23637383 596.39527719 593.36998548 598.13988758 511.28103188 599.75284067 433.96177531 601.49872302 354.47106963 602.78547879 301.59431037 604.17580232 252.4805581 604.85194276 232.1113725 605.64724404 211.49277224 606.50458529 193.5809983 607.59362435 177.70240218 608.75324561 169.68076 609.97986857 171.5361807 611.45292972 187.93911595 612.89486361 218.52432884 614.31996442 261.65712131 615.72786613 314.86070873 616.38586929 342.68127165 616.98272755 369.1314978 617.68165595 401.19751257 619.07951273 466.99409435 620.44038484 530.71958551 621.98700926 598.70336687 623.54255505 658.4439858 625.28843741 710.87888905 627.03431976 744.56577542 628.78020211 757.537536 630.46152903 750.12915457 632.20741139 722.99845635 633.95329374 678.69939413 635.69917609 621.06457182 637.44505844 554.75055087 639.07124307 489.58823593 640.74433014 423.66069985 642.49021249 360.56628162 644.23609484 307.30074904 645.9819772 267.05182976 647.10344418 249.07738962 648.38559578 236.71832889 649.81790642 233.49107109 651.41363985 242.86141802 652.74204126 260.52891243 654.16141452 288.1728056 655.90729687 332.08250763 656.93369525 361.74251959 658.0301994 395.21315029 659.19217217 431.41982649 660.77087335 479.27746323 662.5167557 526.94024008 664.02250254 560.84526464 665.54291993 586.09814785 667.01468248 600.59930846 668.72393962 604.23330662 670.37770329 594.18813958 672.12358564 570.03902289 673.869468 533.86764794 675.61535035 488.38401461 677.3612327 436.84707302 679.10711505 382.79102735 680.81074441 330.98387624 682.55662677 282.10813736 684.30250912 240.32409481 685.34620457 219.6651035 686.62056131 199.66514489 688.24006718 183.43248706 689.75625857 178.26487691 691.27193048 183.22717429 692.74355007 197.69663418 694.48943243 226.34733091 696.08019036 261.79112668 697.44988591 297.71723939 698.30141578 321.77432516 699.47947915 356.01169662 700.61198391 388.86803818 702.35786626 436.36256593 704.10374862 476.69721322 705.84963097 506.44060891 707.59551332 523.09577845 709.34139568 525.25412971 711.00508548 513.55717308 712.75096783 487.64607333 714.49685018 449.53325018 716.24273254 401.80649312 717.98861489 347.6270384 719.41314937 300.97518452 720.9549239 250.53366208 722.34348442 207.03679426 723.07494254 185.42259761 723.95762448 161.04289403 724.89010535 137.75461998 726.6359877 102.94845086 728.22488515 83.40430269 729.77860914 77.99415674 731.39735221 88.95942791 733.14323457 121.40920083 734.57874074 164.37882303 735.91946772 217.02306215 737.33341738 283.73056877 738.05346376 321.32372128 738.49894684 345.50438873 739.04952296 376.11658071 739.71000636 413.56671548 740.55744405 462.09255593 741.62680502 522.73794427 742.59269009 575.62724921 744.10635852 651.58817853 745.66223012 717.27651128 747.40811247 771.55117337 749.15399483 802.08400924 750.84935634 807.54252295 752.55437518 789.32281224 754.30025754 748.15924396 756.04613989 687.97655548 757.36146983 632.94669701 758.79251432 567.03044046 760.34552715 492.27216563 762.00383862 413.54428058 763.74972097 337.23735145 765.269924 280.08537539 766.44764492 243.61259046 767.16180981 225.30025485 768.0750525 206.46160134 769.17699013 190.95352588 770.49082248 183.27496048 771.68402404 186.75836475 773.12222153 204.1419198 774.53481184 234.62814815 775.94349748 276.92205504 777.49922393 334.82497611 778.1531272 361.95979178 778.90304422 394.44775051 779.69005913 429.58813819 780.76106799 478.00910441 782.33692624 547.53981395 784.03762524 615.92744332 785.66032971 670.43866644 787.40621207 713.40021842 789.15209442 737.44425882 790.84235227 741.51192347 792.53038111 726.9758327 794.27626346 694.10036094 796.02214582 646.06395152 797.76802817 586.87616525 799.51391052 521.18970035 801.14934876 458.07624929 802.89523111 393.64619458 804.64111347 336.43368169 806.38699582 290.01260887 807.70284611 263.75442755 809.04864732 245.63742827 810.4227917 236.7302202 812.01091681 238.6306534 813.43463024 251.1001148 814.92848407 274.17283205 816.57955038 309.67309355 817.76299021 340.18098956 818.77435199 368.50963218 819.96364431 403.20141757 821.38782311 444.78174971 823.13370546 492.4841635 824.87958782 533.00223315 826.33738406 558.9739986 827.81724381 576.36899478 829.24233453 583.70830445 830.66836591 581.46234977 832.40306419 566.11871398 834.14894655 537.89626529 835.8948289 498.9636201 837.64071125 452.11907333 839.38659361 400.59779427 841.07184178 349.60847885 842.81772414 298.75903812 844.56360649 252.91253369 845.73548213 226.2119514 846.83532033 204.90981857 848.02619905 186.54783666 849.51974953 171.25247734 851.12659943 165.27299363 852.66310178 170.3021055 854.34529392 187.97060347 855.96473537 216.35659138 857.57679274 254.18965136 859.32267509 303.10395468 860.17570872 329.01666724 861.12422412 358.41965478 862.13419016 389.5848528 863.88007251 440.28203413 865.62595487 483.59844845 867.37183722 515.89490607 869.11771957 534.51066622 870.85032614 537.95999958 872.51195621 526.8938059 874.25783856 500.90243757 876.00372091 462.0106632 877.74960327 412.91292865 879.49548562 356.91576856 880.913482 308.78541312 882.19929637 264.94981339 883.53581993 220.86689083 884.29179121 197.14203322 885.06043697 174.31810939 885.95947673 149.68585781 887.46653993 114.74335302 889.14439164 87.49579963 890.67996032 75.79853089 892.28408173 79.57401253 894.02996409 104.37254349 895.77584644 151.63028901 897.09557439 201.81828348 898.51632211 268.03677853 899.67168325 329.39829768 900.17513765 357.73976529 900.64735912 384.93794439 901.14214847 413.8926244 901.63754609 443.15955918 902.62834133 501.66430384 903.69821603 563.45956486 904.91590918 629.7807946 906.4964246 705.62783305 908.24230695 771.27718203 909.98818931 813.80916957 911.69858091 830.70915621 913.40673269 822.65148397 914.89979954 796.12265143 916.46588053 750.97446305 917.59135954 709.19178888 918.97096596 649.91381021 920.31532937 586.23018233 922.04434464 500.75858787 923.63017256 423.49831875 925.37605492 345.41076884 927.12193727 279.57783865 928.37663354 242.09777205 929.11208457 224.52633056 930.04074658 207.38181994 931.12358883 194.82784562 932.33808577 190.60846204 933.7047462 198.49654649 934.99877952 218.08695916 936.48131164 254.0589388 937.87152066 299.33846724 938.70571167 331.01674615 939.26375577 353.72353051 940.06204712 387.81897508 941.2801854 442.18354153 942.65344019 504.48273253 944.33075639 577.59120431 945.87356699 637.91248739 947.54041441 691.36028164 949.28629676 730.75565012 951.03217912 750.80200222 952.74326981 750.80425483 954.4329483 732.31122835 956.17883066 695.92461743 957.92471301 645.22134165 959.67059536 584.40585452 961.41647771 518.23963336 963.05349452 455.67773429 964.79937687 392.97016192 966.54525922 338.44146319 968.29114158 295.45395252 969.69318299 270.90372396 971.22908585 255.25054687 972.90621909 251.96722782 974.36527376 260.61348663 975.95780229 281.30052035 977.46187377 310.15086449 978.81785657 342.26208415 979.92599041 371.54905881 981.22286897 407.67916189 982.67244799 448.35304172 984.41833035 494.38998736 986.1642127 533.7051771 987.64774652 559.46709443 989.14068483 576.64784988 990.55054421 583.96530523 991.97510153 582.21787205 993.67005121 568.42652085 995.41593357 542.01092371 997.16181592 505.17268351 998.90769827 460.56562074 1000.65358063 411.27740553 1002.33412918 362.44252851 1004.08001153 313.41166037 1005.82589389 268.99393085 1007.29239542 237.06582449 1008.45563073 216.13891316 1009.75281822 198.12296003 1011.23395637 185.11945065 1012.83128737 180.80107294 1014.49234744 187.36792115 1016.07220141 203.9172106 1017.76527298 231.85428266 1019.42981848 267.8434449 1020.74093322 300.5308452 1021.65804866 324.7769927 1022.84153286 356.5594131 1024.1774262 391.60280139 1025.92330856 433.08558479 1027.66919091 466.50490044 1029.41507326 488.93828257 1031.16095562 498.40286926 1032.79517986 494.66314657 1034.54106221 477.31116317 1036.28694456 447.24177897 1038.03282691 406.41769752 1039.77870927 357.48899235 1041.52459162 303.56885699 1042.79862986 262.89756393 1044.15074745 220.27156995 1044.98200024 194.94734019 1045.86214327 169.39560164 1046.87739848 142.10310958 1048.03205281 114.74873936 1049.77793516 83.25201246 1051.46726764 66.96219738 1053.21314999 68.24319407 1054.95903235 90.68697967 1056.7049147 135.74230001 1058.01476708 184.24812923 1059.30323816 243.12277785 1060.63266138 313.39896131 1061.18722572 344.9960953 1061.58139786 368.04374724 1062.05715735 396.35190798 1062.68949437 434.51252737 1063.53824036 486.0212684 1064.50717069 544.0988886 1065.51338605 602.16401206 1067.09761248 685.2357703 1068.84349484 760.12525763 1070.58937719 812.72184599 1072.33525954 839.81370844 1074.08114189 840.19657189 1075.5443374 820.37214066 1077.11721074 780.37550198 1078.43337895 734.0046448 1079.43540118 692.24810975 1080.63293945 636.89797792 1082.30581786 553.62129519 1083.85559179 474.60505675 1085.60147414 389.45324309 1087.07503181 324.79017834 1088.63860173 267.14433009 1089.48339509 241.62141075 1090.24193643 222.5115957 1091.12651109 205.07756154 1092.16480921 191.60789635 1093.38830878 185.80534022 1094.62701324 191.24128439 1096.04725898 211.32742826 1097.43826757 244.60607551 1098.81127856 289.21771274 1099.83327009 328.83894186 1100.41814896 353.52106987 1101.24589498 390.32624171 1102.04023663 427.15734331 1103.57033413 499.59682646 1104.98149851 565.25933058 1106.68316385 637.88603742 1108.24708282 694.35104001 1109.99296517 741.60226829 1111.73884752 769.38803468 1113.42798624 776.37542901 1115.12033028 763.89002454 1116.86621263 732.21165114 1118.61209498 684.4345833 1120.35797734 624.66193857 1122.00704027 561.48344465 1123.64026048 496.84346221 1125.29819242 433.40874956 1127.04407477 373.34295456 1128.78995713 323.96411541 1130.53583948 288.18444255 1131.95616012 270.3911365 1133.46164937 263.21017332 1134.97425325 268.0113193 1136.59766954 285.74154571 1138.18832809 314.19811287 1139.67336906 348.68943353 1140.83249792 379.47435021 1142.20270581 418.28831316 1143.66550445 460.3800943 1145.4113868 507.98838883 1147.15726915 549.14443667 1148.65316458 576.80575409 1150.15374341 595.76308746 1151.66885559 604.93959871 1153.33489773 602.98665567 1155.00832351 588.62615391 1156.75420586 561.62668182 1158.50008821 524.42211194 1160.24597057 479.75552861 1161.99185292 430.77854167 1163.66782841 382.75337871 1165.41371077 334.81600987 1167.15959312 291.84312638 1168.90547547 256.25211567 1170.22487676 235.37584156 1171.67575452 219.25585146 1173.42163687 210.02745321 1175.03301868 211.62454335 1176.48142626 221.18920897 1178.04704295 239.49727107 1179.7929253 268.13039728 1181.53880765 303.0350859 1182.73488824 329.07546898 1184.17165804 360.6819098 1185.59530776 390.56083068 1187.34119012 422.46823337 1189.08707247 446.52507356 1190.83295482 460.46911165 1192.57883718 462.8776782 1194.21720605 454.17021008 1195.9630884 433.56138914 1197.70897076 402.42920418 1199.45485311 362.65970701 1201.20073546 316.67542201 1202.69120486 274.52572836 1204.25431978 229.64216646 1205.46712708 195.62448433 1206.34796198 172.00282984 1207.48533928 143.64725532 1208.67796168 117.39978305 1210.42384403 87.80720041 1212.16972638 71.6643036 1213.91560873 72.30854382 1215.66149109 92.43880763 1217.40737344 133.5168564 1218.76630903 179.91160774 1220.09160871 236.2288697 1221.46055511 303.80783602 1222.05258881 335.37733238 1222.46637951 358.03778801 1222.98194475 386.76661386 1223.8671175 436.75653878 1224.70924868 484.34548937 1225.6746427 537.72835953 1226.73509393 593.46269782 1228.30944581 667.20663715 1230.02942279 731.22808944 1231.77530515 774.42523432 1233.5211875 793.11619169 1235.21108467 787.23944898 1236.92571565 758.32750356 1238.671598 708.02151489 1239.98637738 658.68032988 1241.4861997 593.80549576 1243.23208205 511.65886856 1244.83518566 434.78864658 1246.58106801 355.23508546 1247.86785861 302.28672938 1249.26120694 252.98343848 1249.9411534 232.46688767 1250.73233678 211.91350365 1251.58876486 193.96037902 1252.67751125 178.00094668 1253.83585835 169.88688297 1255.06228418 171.62483789 1256.5310573 187.81516576 1257.97435808 218.25716022 1259.40072676 261.28256633 1260.80642853 314.27809318 1261.46579709 342.10550344 1262.06019398 368.40647539 1262.76007172 400.47559665 1264.15982719 466.31137061 1265.51915564 529.95344807 1267.05535314 597.53829932 1268.60088664 657.07555149 1270.34676899 709.83574563 1272.09265134 743.91464572 1273.8385337 757.31228138 1275.51957626 750.31760584 1277.26545861 723.58600998 1279.01134096 679.62636098 1280.75722332 622.24833985 1282.50310567 556.09303604 1284.14151369 490.49798565 1285.81344757 424.59676755 1287.55932992 361.41540003 1289.30521227 308.00439042 1291.05109462 267.56432134 1292.17129011 249.46578019 1293.45501743 236.9157122 1294.89412873 233.50075637 1296.49642557 242.77211673 1297.82496635 260.3523513 1299.24410485 287.90222316 1300.9899872 331.71680491 1302.01399173 361.26075805 1303.10423033 394.49816212 1304.26372217 430.60111996 1305.82811377 478.05057988 1307.57399612 525.83459453 1309.09872169 560.28176234 1310.63085091 585.78610039 1312.08445987 600.20304504 1313.81017099 604.00093042 1315.45838458 594.07316808 1317.20426693 570.03174916 1318.95014928 533.95528246 1320.69603164 488.54682005 1322.44191399 437.06019255 1324.18779634 383.02658805 1325.89114904 331.22175118 1327.6370314 282.31203897 1329.38291375 240.46898591 1330.4268689 219.759556 1331.70240765 199.68049205 1333.30836159 183.45504367 1334.83229668 178.11339647 1336.33742794 182.8836169 1337.81938005 197.30493792 1339.5652624 225.83851846 1341.15061313 261.07351172 1342.53931588 297.46642712 1343.39285586 321.58906166 1344.57804455 356.05328734 1345.69676135 388.53791864 1347.4426437 436.10011092 1349.18852605 476.52487263 1350.93440841 506.37327833 1352.68029076 523.13987989 1354.42617311 525.40753671 1356.08980887 513.80610307 1357.83569123 487.9786992 1359.58157358 449.92772062 1361.32745593 402.23761041 1363.07333829 348.06830093 1364.50019905 301.32912086 1365.88442639 255.91385324 1367.28975251 211.56792078 1368.04630534 188.98975159 1368.90495723 164.95739053 1369.84039789 141.15020204 1371.58628025 105.3025081 1373.16802851 84.62705267 1374.68294995 77.76067511 1376.27308405 86.31517274 1378.0189664 116.03626648 1379.49856801 158.28634259 1380.84846522 209.84407602 1382.28185838 276.33442919 1383.18030841 323.02847479 1383.65056177 348.63111804 1384.22712711 380.79767712 1384.7879178 412.65671889 1385.50324367 453.65918584 1386.41119405 505.4631455 1387.41257657 561.05734237 1388.75197268 630.41401294 1390.32073552 700.71302658 1392.06661788 760.5260083 1393.81250023 797.27391201 1395.4478379 808.94412863 1397.15402019 797.51440383 1398.89990254 762.50392055 1400.64578489 707.23490079 1401.82373745 660.66620382 1403.21958645 598.7582357 1404.9654688 515.71295271 1406.56144935 439.03481511 1408.3073317 360.05882825 1409.69729314 304.16278475 1411.16984941 254.59999889 1411.90074067 234.28702556 1412.81625751 213.36271166 1413.75946651 197.37473628 1414.80433011 186.60470669 1416.01212899 183.57231128 1417.35443523 192.21398577 1418.85381984 216.50973218 1420.23845948 251.77316331 1421.64038159 298.35404126 1422.43251785 328.74380764 1423.01096283 352.40260461 1423.82710058 387.36910241 1424.8211874 431.61254944 1426.20856111 494.16154835 1427.78914082 562.9405354 1429.40069358 626.04796889 1430.99437785 677.57733023 1432.7402602 717.98708542 1434.48614255 739.21139016 1436.19051701 740.43833096 1437.87887052 723.13808521 1439.62475287 687.78116276 1441.37063523 637.81161049 1443.11651758 577.35822795 1444.83051993 512.35300602 1446.47519172 449.03386811 1448.22107407 385.36639164 1449.96695643 329.45405549 1451.71283878 284.74930799 1452.95633877 261.120785 1454.39440804 243.31782969 1455.88069326 236.11298197 1457.39652575 240.52093937 1458.77000069 254.35404302 1460.22645591 278.26554374 1461.97233827 317.2388138 1463.10477892 347.16322893 1464.14325918 376.63007698 1465.32417938 411.22706031 1466.77161035 453.20793793 1468.5174927 499.92967585 1470.26337506 538.85723782 1471.72375991 563.17041265 1473.18697729 578.48531395 1474.58446614 583.92014651 1475.96544248 580.23263986 1477.71132483 563.12627944 1479.45720718 533.42356522 1481.20308954 493.33718042 1482.94897189 445.73366382 1484.69485424 393.88297664 1486.38503461 342.83974137 1488.13091696 292.49383074 1489.87679931 247.51409135 1490.98790404 222.81162289 1492.15006328 201.06317361 1493.36501033 183.40567601 1494.842882 169.73097007 1496.43697982 165.39567285 1498.0228962 172.35528949 1499.72678289 192.35768661 1501.31927893 222.03005985 1502.94174507 261.48664244 1504.21096311 297.31012323 1504.98917656 320.72985679 1505.96909741 350.97610168 1506.9907857 382.58735812 1508.73666805 433.89098992 1510.48255041 478.34026251 1512.22843276 512.19035783 1513.97431511 532.64495489 1515.72019747 538.03464951 1517.37731367 528.76533454 1519.12319602 504.50518966 1520.86907837 467.07308063 1522.61496072 419.06905718" stroke="#FF0000" stroke-width="1" fill="none" id="gge4076" class="px1"/></g></svg>